<ttFont>
    <TTGlyph name="A" xMin="-145" yMin="0" xMax="640" yMax="793">
      <contour>
        <pt x="640" y="793" on="1"/>
        <pt x="549" y="92" on="1"/>
        <pt x="548" y="87" on="0"/>
        <pt x="548" y="79" on="0"/>
        <pt x="548" y="75" on="1"/>
        <pt x="549" y="49" on="0"/>
        <pt x="586" y="31" on="0"/>
        <pt x="633" y="28" on="1"/>
        <pt x="619" y="0" on="1"/>
        <pt x="311" y="0" on="1"/>
        <pt x="325" y="28" on="1"/>
        <pt x="353" y="28" on="0"/>
        <pt x="395" y="35" on="0"/>
        <pt x="423" y="52" on="0"/>
        <pt x="439" y="82" on="0"/>
        <pt x="442" y="105" on="1"/>
        <pt x="467" y="286" on="1"/>
        <pt x="230" y="286" on="1"/>
        <pt x="101" y="137" on="1"/>
        <pt x="78" y="110" on="0"/>
        <pt x="61" y="83" on="0"/>
        <pt x="61" y="69" on="1"/>
        <pt x="62" y="53" on="0"/>
        <pt x="101" y="34" on="0"/>
        <pt x="146" y="28" on="1"/>
        <pt x="133" y="0" on="1"/>
        <pt x="-145" y="0" on="1"/>
        <pt x="-131" y="28" on="1"/>
        <pt x="-95" y="33" on="0"/>
        <pt x="-45" y="48" on="0"/>
        <pt x="-4" y="74" on="0"/>
        <pt x="34" y="111" on="0"/>
        <pt x="58" y="139" on="1"/>
        <pt x="521" y="677" on="1"/>
        <pt x="532" y="770" on="1"/>
      </contour>
      <contour>
        <pt x="514" y="614" on="1"/>
        <pt x="262" y="323" on="1"/>
        <pt x="472" y="323" on="1"/>
      </contour>
    </TTGlyph>
    <TTGlyph name="AE" xMin="-136" yMin="0" xMax="1065" yMax="770">
      <contour>
        <pt x="259" y="0" on="1"/>
        <pt x="271" y="28" on="1"/>
        <pt x="363" y="47" on="1"/>
        <pt x="462" y="286" on="1"/>
        <pt x="253" y="286" on="1"/>
        <pt x="118" y="137" on="1"/>
        <pt x="94" y="111" on="0"/>
        <pt x="75" y="82" on="0"/>
        <pt x="75" y="69" on="1"/>
        <pt x="75" y="53" on="0"/>
        <pt x="114" y="34" on="0"/>
        <pt x="158" y="28" on="1"/>
        <pt x="145" y="0" on="1"/>
        <pt x="-136" y="0" on="1"/>
        <pt x="-122" y="28" on="1"/>
        <pt x="-86" y="33" on="0"/>
        <pt x="-36" y="48" on="0"/>
        <pt x="6" y="74" on="0"/>
        <pt x="46" y="111" on="0"/>
        <pt x="71" y="139" on="1"/>
        <pt x="602" y="728" on="1"/>
        <pt x="525" y="747" on="1"/>
        <pt x="535" y="770" on="1"/>
        <pt x="1057" y="770" on="1"/>
        <pt x="1065" y="550" on="1"/>
        <pt x="1038" y="550" on="1"/>
        <pt x="1029" y="604" on="0"/>
        <pt x="1002" y="692" on="0"/>
        <pt x="980" y="730" on="1"/>
        <pt x="754" y="730" on="1"/>
        <pt x="630" y="426" on="1"/>
        <pt x="798" y="426" on="1"/>
        <pt x="847" y="483" on="0"/>
        <pt x="882" y="540" on="1"/>
        <pt x="911" y="540" on="1"/>
        <pt x="798" y="266" on="1"/>
        <pt x="769" y="266" on="1"/>
        <pt x="777" y="296" on="0"/>
        <pt x="784" y="356" on="0"/>
        <pt x="786" y="386" on="1"/>
        <pt x="612" y="386" on="1"/>
        <pt x="470" y="40" on="1"/>
        <pt x="793" y="40" on="1"/>
        <pt x="834" y="88" on="0"/>
        <pt x="901" y="182" on="0"/>
        <pt x="930" y="230" on="1"/>
        <pt x="959" y="230" on="1"/>
        <pt x="868" y="0" on="1"/>
      </contour>
      <contour>
        <pt x="634" y="702" on="1"/>
        <pt x="630" y="702" on="1"/>
        <pt x="286" y="323" on="1"/>
        <pt x="477" y="323" on="1"/>
      </contour>
    </TTGlyph>
    <TTGlyph name="AEacute" xMin="-136" yMin="0" xMax="1065" yMax="970">
      <contour>
        <pt x="259" y="0" on="1"/>
        <pt x="271" y="28" on="1"/>
        <pt x="363" y="47" on="1"/>
        <pt x="462" y="286" on="1"/>
        <pt x="253" y="286" on="1"/>
        <pt x="118" y="137" on="1"/>
        <pt x="94" y="111" on="0"/>
        <pt x="75" y="82" on="0"/>
        <pt x="75" y="69" on="1"/>
        <pt x="75" y="53" on="0"/>
        <pt x="114" y="34" on="0"/>
        <pt x="158" y="28" on="1"/>
        <pt x="145" y="0" on="1"/>
        <pt x="-136" y="0" on="1"/>
        <pt x="-122" y="28" on="1"/>
        <pt x="-86" y="33" on="0"/>
        <pt x="-36" y="48" on="0"/>
        <pt x="6" y="74" on="0"/>
        <pt x="46" y="111" on="0"/>
        <pt x="71" y="139" on="1"/>
        <pt x="602" y="728" on="1"/>
        <pt x="525" y="747" on="1"/>
        <pt x="535" y="770" on="1"/>
        <pt x="1057" y="770" on="1"/>
        <pt x="1065" y="550" on="1"/>
        <pt x="1038" y="550" on="1"/>
        <pt x="1029" y="604" on="0"/>
        <pt x="1002" y="692" on="0"/>
        <pt x="980" y="730" on="1"/>
        <pt x="754" y="730" on="1"/>
        <pt x="630" y="426" on="1"/>
        <pt x="798" y="426" on="1"/>
        <pt x="847" y="483" on="0"/>
        <pt x="882" y="540" on="1"/>
        <pt x="911" y="540" on="1"/>
        <pt x="798" y="266" on="1"/>
        <pt x="769" y="266" on="1"/>
        <pt x="777" y="296" on="0"/>
        <pt x="784" y="356" on="0"/>
        <pt x="786" y="386" on="1"/>
        <pt x="612" y="386" on="1"/>
        <pt x="470" y="40" on="1"/>
        <pt x="793" y="40" on="1"/>
        <pt x="834" y="88" on="0"/>
        <pt x="901" y="182" on="0"/>
        <pt x="930" y="230" on="1"/>
        <pt x="959" y="230" on="1"/>
        <pt x="868" y="0" on="1"/>
      </contour>
      <contour>
        <pt x="634" y="702" on="1"/>
        <pt x="630" y="702" on="1"/>
        <pt x="286" y="323" on="1"/>
        <pt x="477" y="323" on="1"/>
      </contour>
      <contour>
        <pt x="710" y="847" on="1"/>
        <pt x="854" y="954" on="1"/>
        <pt x="876" y="970" on="0"/>
        <pt x="898" y="970" on="1"/>
        <pt x="915" y="970" on="0"/>
        <pt x="941" y="946" on="0"/>
        <pt x="941" y="927" on="1"/>
        <pt x="941" y="910" on="0"/>
        <pt x="912" y="881" on="0"/>
        <pt x="873" y="870" on="1"/>
        <pt x="721" y="826" on="1"/>
      </contour>
    </TTGlyph>
    <TTGlyph name="Aacute" xMin="-145" yMin="0" xMax="722" yMax="970">
      <contour>
        <pt x="640" y="793" on="1"/>
        <pt x="549" y="92" on="1"/>
        <pt x="548" y="87" on="0"/>
        <pt x="548" y="79" on="0"/>
        <pt x="548" y="75" on="1"/>
        <pt x="549" y="49" on="0"/>
        <pt x="586" y="31" on="0"/>
        <pt x="633" y="28" on="1"/>
        <pt x="619" y="0" on="1"/>
        <pt x="311" y="0" on="1"/>
        <pt x="325" y="28" on="1"/>
        <pt x="353" y="28" on="0"/>
        <pt x="395" y="35" on="0"/>
        <pt x="423" y="52" on="0"/>
        <pt x="439" y="82" on="0"/>
        <pt x="442" y="105" on="1"/>
        <pt x="467" y="286" on="1"/>
        <pt x="230" y="286" on="1"/>
        <pt x="101" y="137" on="1"/>
        <pt x="78" y="110" on="0"/>
        <pt x="61" y="83" on="0"/>
        <pt x="61" y="69" on="1"/>
        <pt x="62" y="53" on="0"/>
        <pt x="101" y="34" on="0"/>
        <pt x="146" y="28" on="1"/>
        <pt x="133" y="0" on="1"/>
        <pt x="-145" y="0" on="1"/>
        <pt x="-131" y="28" on="1"/>
        <pt x="-95" y="33" on="0"/>
        <pt x="-45" y="48" on="0"/>
        <pt x="-4" y="74" on="0"/>
        <pt x="34" y="111" on="0"/>
        <pt x="58" y="139" on="1"/>
        <pt x="521" y="677" on="1"/>
        <pt x="532" y="770" on="1"/>
      </contour>
      <contour>
        <pt x="514" y="614" on="1"/>
        <pt x="262" y="323" on="1"/>
        <pt x="472" y="323" on="1"/>
      </contour>
      <contour>
        <pt x="491" y="847" on="1"/>
        <pt x="635" y="954" on="1"/>
        <pt x="657" y="970" on="0"/>
        <pt x="679" y="970" on="1"/>
        <pt x="696" y="970" on="0"/>
        <pt x="722" y="946" on="0"/>
        <pt x="722" y="927" on="1"/>
        <pt x="722" y="910" on="0"/>
        <pt x="693" y="881" on="0"/>
        <pt x="654" y="870" on="1"/>
        <pt x="502" y="826" on="1"/>
      </contour>
    </TTGlyph>
    <TTGlyph name="Abreve" xMin="-145" yMin="0" xMax="820" yMax="970">
      <contour>
        <pt x="640" y="793" on="1"/>
        <pt x="549" y="92" on="1"/>
        <pt x="548" y="87" on="0"/>
        <pt x="548" y="79" on="0"/>
        <pt x="548" y="75" on="1"/>
        <pt x="549" y="49" on="0"/>
        <pt x="586" y="31" on="0"/>
        <pt x="633" y="28" on="1"/>
        <pt x="619" y="0" on="1"/>
        <pt x="311" y="0" on="1"/>
        <pt x="325" y="28" on="1"/>
        <pt x="353" y="28" on="0"/>
        <pt x="395" y="35" on="0"/>
        <pt x="423" y="52" on="0"/>
        <pt x="439" y="82" on="0"/>
        <pt x="442" y="105" on="1"/>
        <pt x="467" y="286" on="1"/>
        <pt x="230" y="286" on="1"/>
        <pt x="101" y="137" on="1"/>
        <pt x="78" y="110" on="0"/>
        <pt x="61" y="83" on="0"/>
        <pt x="61" y="69" on="1"/>
        <pt x="62" y="53" on="0"/>
        <pt x="101" y="34" on="0"/>
        <pt x="146" y="28" on="1"/>
        <pt x="133" y="0" on="1"/>
        <pt x="-145" y="0" on="1"/>
        <pt x="-131" y="28" on="1"/>
        <pt x="-95" y="33" on="0"/>
        <pt x="-45" y="48" on="0"/>
        <pt x="-4" y="74" on="0"/>
        <pt x="34" y="111" on="0"/>
        <pt x="58" y="139" on="1"/>
        <pt x="521" y="677" on="1"/>
        <pt x="532" y="770" on="1"/>
      </contour>
      <contour>
        <pt x="514" y="614" on="1"/>
        <pt x="262" y="323" on="1"/>
        <pt x="472" y="323" on="1"/>
      </contour>
      <contour>
        <pt x="571" y="970" on="1"/>
        <pt x="572" y="939" on="0"/>
        <pt x="611" y="905" on="0"/>
        <pt x="650" y="905" on="1"/>
        <pt x="683" y="905" on="0"/>
        <pt x="748" y="935" on="0"/>
        <pt x="780" y="970" on="1"/>
        <pt x="820" y="970" on="1"/>
        <pt x="789" y="923" on="0"/>
        <pt x="729" y="868" on="0"/>
        <pt x="677" y="840" on="0"/>
        <pt x="632" y="831" on="0"/>
        <pt x="616" y="831" on="1"/>
        <pt x="599" y="831" on="0"/>
        <pt x="566" y="840" on="0"/>
        <pt x="541" y="859" on="0"/>
        <pt x="526" y="891" on="0"/>
        <pt x="526" y="914" on="1"/>
        <pt x="526" y="939" on="0"/>
        <pt x="536" y="970" on="1"/>
      </contour>
    </TTGlyph>
    <TTGlyph name="Acircumflex" xMin="-145" yMin="0" xMax="750" yMax="970">
      <contour>
        <pt x="640" y="793" on="1"/>
        <pt x="549" y="92" on="1"/>
        <pt x="548" y="87" on="0"/>
        <pt x="548" y="79" on="0"/>
        <pt x="548" y="75" on="1"/>
        <pt x="549" y="49" on="0"/>
        <pt x="586" y="31" on="0"/>
        <pt x="633" y="28" on="1"/>
        <pt x="619" y="0" on="1"/>
        <pt x="311" y="0" on="1"/>
        <pt x="325" y="28" on="1"/>
        <pt x="353" y="28" on="0"/>
        <pt x="395" y="35" on="0"/>
        <pt x="423" y="52" on="0"/>
        <pt x="439" y="82" on="0"/>
        <pt x="442" y="105" on="1"/>
        <pt x="467" y="286" on="1"/>
        <pt x="230" y="286" on="1"/>
        <pt x="101" y="137" on="1"/>
        <pt x="78" y="110" on="0"/>
        <pt x="61" y="83" on="0"/>
        <pt x="61" y="69" on="1"/>
        <pt x="62" y="53" on="0"/>
        <pt x="101" y="34" on="0"/>
        <pt x="146" y="28" on="1"/>
        <pt x="133" y="0" on="1"/>
        <pt x="-145" y="0" on="1"/>
        <pt x="-131" y="28" on="1"/>
        <pt x="-95" y="33" on="0"/>
        <pt x="-45" y="48" on="0"/>
        <pt x="-4" y="74" on="0"/>
        <pt x="34" y="111" on="0"/>
        <pt x="58" y="139" on="1"/>
        <pt x="521" y="677" on="1"/>
        <pt x="532" y="770" on="1"/>
      </contour>
      <contour>
        <pt x="514" y="614" on="1"/>
        <pt x="262" y="323" on="1"/>
        <pt x="472" y="323" on="1"/>
      </contour>
      <contour>
        <pt x="652" y="970" on="1"/>
        <pt x="669" y="970" on="0"/>
        <pt x="688" y="957" on="0"/>
        <pt x="696" y="943" on="1"/>
        <pt x="750" y="847" on="1"/>
        <pt x="724" y="830" on="1"/>
        <pt x="633" y="898" on="1"/>
        <pt x="468" y="830" on="1"/>
        <pt x="456" y="847" on="1"/>
        <pt x="588" y="943" on="1"/>
        <pt x="606" y="956" on="0"/>
        <pt x="633" y="970" on="0"/>
      </contour>
    </TTGlyph>
    <TTGlyph name="Adieresis" xMin="-145" yMin="0" xMax="763" yMax="970">
      <contour>
        <pt x="640" y="793" on="1"/>
        <pt x="549" y="92" on="1"/>
        <pt x="548" y="87" on="0"/>
        <pt x="548" y="79" on="0"/>
        <pt x="548" y="75" on="1"/>
        <pt x="549" y="49" on="0"/>
        <pt x="586" y="31" on="0"/>
        <pt x="633" y="28" on="1"/>
        <pt x="619" y="0" on="1"/>
        <pt x="311" y="0" on="1"/>
        <pt x="325" y="28" on="1"/>
        <pt x="353" y="28" on="0"/>
        <pt x="395" y="35" on="0"/>
        <pt x="423" y="52" on="0"/>
        <pt x="439" y="82" on="0"/>
        <pt x="442" y="105" on="1"/>
        <pt x="467" y="286" on="1"/>
        <pt x="230" y="286" on="1"/>
        <pt x="101" y="137" on="1"/>
        <pt x="78" y="110" on="0"/>
        <pt x="61" y="83" on="0"/>
        <pt x="61" y="69" on="1"/>
        <pt x="62" y="53" on="0"/>
        <pt x="101" y="34" on="0"/>
        <pt x="146" y="28" on="1"/>
        <pt x="133" y="0" on="1"/>
        <pt x="-145" y="0" on="1"/>
        <pt x="-131" y="28" on="1"/>
        <pt x="-95" y="33" on="0"/>
        <pt x="-45" y="48" on="0"/>
        <pt x="-4" y="74" on="0"/>
        <pt x="34" y="111" on="0"/>
        <pt x="58" y="139" on="1"/>
        <pt x="521" y="677" on="1"/>
        <pt x="532" y="770" on="1"/>
      </contour>
      <contour>
        <pt x="514" y="614" on="1"/>
        <pt x="262" y="323" on="1"/>
        <pt x="472" y="323" on="1"/>
      </contour>
      <contour>
        <pt x="531" y="970" on="1"/>
        <pt x="554" y="970" on="0"/>
        <pt x="588" y="942" on="0"/>
        <pt x="588" y="921" on="1"/>
        <pt x="588" y="909" on="0"/>
        <pt x="577" y="887" on="0"/>
        <pt x="558" y="869" on="0"/>
        <pt x="534" y="859" on="0"/>
        <pt x="521" y="859" on="1"/>
        <pt x="495" y="859" on="0"/>
        <pt x="466" y="887" on="0"/>
        <pt x="466" y="910" on="1"/>
        <pt x="466" y="934" on="0"/>
        <pt x="505" y="970" on="0"/>
      </contour>
      <contour>
        <pt x="706" y="970" on="1"/>
        <pt x="729" y="970" on="0"/>
        <pt x="763" y="942" on="0"/>
        <pt x="763" y="921" on="1"/>
        <pt x="763" y="909" on="0"/>
        <pt x="752" y="887" on="0"/>
        <pt x="733" y="869" on="0"/>
        <pt x="709" y="859" on="0"/>
        <pt x="696" y="859" on="1"/>
        <pt x="670" y="859" on="0"/>
        <pt x="641" y="887" on="0"/>
        <pt x="641" y="910" on="1"/>
        <pt x="641" y="934" on="0"/>
        <pt x="680" y="970" on="0"/>
      </contour>
    </TTGlyph>
    <TTGlyph name="Agrave" xMin="-145" yMin="0" xMax="681" yMax="970">
      <contour>
        <pt x="640" y="793" on="1"/>
        <pt x="549" y="92" on="1"/>
        <pt x="548" y="87" on="0"/>
        <pt x="548" y="79" on="0"/>
        <pt x="548" y="75" on="1"/>
        <pt x="549" y="49" on="0"/>
        <pt x="586" y="31" on="0"/>
        <pt x="633" y="28" on="1"/>
        <pt x="619" y="0" on="1"/>
        <pt x="311" y="0" on="1"/>
        <pt x="325" y="28" on="1"/>
        <pt x="353" y="28" on="0"/>
        <pt x="395" y="35" on="0"/>
        <pt x="423" y="52" on="0"/>
        <pt x="439" y="82" on="0"/>
        <pt x="442" y="105" on="1"/>
        <pt x="467" y="286" on="1"/>
        <pt x="230" y="286" on="1"/>
        <pt x="101" y="137" on="1"/>
        <pt x="78" y="110" on="0"/>
        <pt x="61" y="83" on="0"/>
        <pt x="61" y="69" on="1"/>
        <pt x="62" y="53" on="0"/>
        <pt x="101" y="34" on="0"/>
        <pt x="146" y="28" on="1"/>
        <pt x="133" y="0" on="1"/>
        <pt x="-145" y="0" on="1"/>
        <pt x="-131" y="28" on="1"/>
        <pt x="-95" y="33" on="0"/>
        <pt x="-45" y="48" on="0"/>
        <pt x="-4" y="74" on="0"/>
        <pt x="34" y="111" on="0"/>
        <pt x="58" y="139" on="1"/>
        <pt x="521" y="677" on="1"/>
        <pt x="532" y="770" on="1"/>
      </contour>
      <contour>
        <pt x="514" y="614" on="1"/>
        <pt x="262" y="323" on="1"/>
        <pt x="472" y="323" on="1"/>
      </contour>
      <contour>
        <pt x="662" y="826" on="1"/>
        <pt x="501" y="873" on="1"/>
        <pt x="464" y="884" on="0"/>
        <pt x="464" y="922" on="1"/>
        <pt x="464" y="944" on="0"/>
        <pt x="491" y="970" on="0"/>
        <pt x="514" y="970" on="1"/>
        <pt x="531" y="970" on="0"/>
        <pt x="560" y="953" on="0"/>
        <pt x="577" y="938" on="1"/>
        <pt x="681" y="847" on="1"/>
      </contour>
    </TTGlyph>
    <TTGlyph name="Amacron" xMin="-145" yMin="0" xMax="786" yMax="952">
      <contour>
        <pt x="640" y="793" on="1"/>
        <pt x="549" y="92" on="1"/>
        <pt x="548" y="87" on="0"/>
        <pt x="548" y="79" on="0"/>
        <pt x="548" y="75" on="1"/>
        <pt x="549" y="49" on="0"/>
        <pt x="586" y="31" on="0"/>
        <pt x="633" y="28" on="1"/>
        <pt x="619" y="0" on="1"/>
        <pt x="311" y="0" on="1"/>
        <pt x="325" y="28" on="1"/>
        <pt x="353" y="28" on="0"/>
        <pt x="395" y="35" on="0"/>
        <pt x="423" y="52" on="0"/>
        <pt x="439" y="82" on="0"/>
        <pt x="442" y="105" on="1"/>
        <pt x="467" y="286" on="1"/>
        <pt x="230" y="286" on="1"/>
        <pt x="101" y="137" on="1"/>
        <pt x="78" y="110" on="0"/>
        <pt x="61" y="83" on="0"/>
        <pt x="61" y="69" on="1"/>
        <pt x="62" y="53" on="0"/>
        <pt x="101" y="34" on="0"/>
        <pt x="146" y="28" on="1"/>
        <pt x="133" y="0" on="1"/>
        <pt x="-145" y="0" on="1"/>
        <pt x="-131" y="28" on="1"/>
        <pt x="-95" y="33" on="0"/>
        <pt x="-45" y="48" on="0"/>
        <pt x="-4" y="74" on="0"/>
        <pt x="34" y="111" on="0"/>
        <pt x="58" y="139" on="1"/>
        <pt x="521" y="677" on="1"/>
        <pt x="532" y="770" on="1"/>
      </contour>
      <contour>
        <pt x="514" y="614" on="1"/>
        <pt x="262" y="323" on="1"/>
        <pt x="472" y="323" on="1"/>
      </contour>
      <contour>
        <pt x="471" y="881" on="1"/>
        <pt x="499" y="952" on="1"/>
        <pt x="786" y="952" on="1"/>
        <pt x="757" y="881" on="1"/>
      </contour>
    </TTGlyph>
    <TTGlyph name="Aogonek" xMin="-145" yMin="-256" xMax="640" yMax="793">
      <contour>
        <pt x="463" y="-198" on="1"/>
        <pt x="394" y="-256" on="0"/>
        <pt x="326" y="-256" on="1"/>
        <pt x="259" y="-256" on="0"/>
        <pt x="259" y="-204" on="1"/>
        <pt x="259" y="-159" on="0"/>
        <pt x="361" y="-51" on="0"/>
        <pt x="449" y="0" on="1"/>
        <pt x="311" y="0" on="1"/>
        <pt x="325" y="28" on="1"/>
        <pt x="353" y="28" on="0"/>
        <pt x="395" y="35" on="0"/>
        <pt x="423" y="52" on="0"/>
        <pt x="439" y="82" on="0"/>
        <pt x="442" y="105" on="1"/>
        <pt x="467" y="286" on="1"/>
        <pt x="230" y="286" on="1"/>
        <pt x="101" y="137" on="1"/>
        <pt x="78" y="110" on="0"/>
        <pt x="61" y="83" on="0"/>
        <pt x="61" y="69" on="1"/>
        <pt x="62" y="53" on="0"/>
        <pt x="101" y="34" on="0"/>
        <pt x="146" y="28" on="1"/>
        <pt x="133" y="0" on="1"/>
        <pt x="-145" y="0" on="1"/>
        <pt x="-131" y="28" on="1"/>
        <pt x="-95" y="33" on="0"/>
        <pt x="-45" y="48" on="0"/>
        <pt x="-4" y="74" on="0"/>
        <pt x="34" y="111" on="0"/>
        <pt x="58" y="139" on="1"/>
        <pt x="521" y="677" on="1"/>
        <pt x="532" y="770" on="1"/>
        <pt x="640" y="793" on="1"/>
        <pt x="549" y="92" on="1"/>
        <pt x="548" y="87" on="0"/>
        <pt x="548" y="79" on="0"/>
        <pt x="548" y="75" on="1"/>
        <pt x="549" y="49" on="0"/>
        <pt x="586" y="31" on="0"/>
        <pt x="633" y="28" on="1"/>
        <pt x="619" y="0" on="1"/>
        <pt x="493" y="0" on="1"/>
        <pt x="427" y="-52" on="0"/>
        <pt x="356" y="-142" on="0"/>
        <pt x="356" y="-172" on="1"/>
        <pt x="356" y="-201" on="0"/>
        <pt x="393" y="-201" on="1"/>
        <pt x="407" y="-201" on="0"/>
        <pt x="435" y="-192" on="0"/>
        <pt x="458" y="-180" on="1"/>
      </contour>
      <contour>
        <pt x="514" y="614" on="1"/>
        <pt x="262" y="323" on="1"/>
        <pt x="472" y="323" on="1"/>
      </contour>
    </TTGlyph>
    <TTGlyph name="Aring" xMin="-145" yMin="0" xMax="706" yMax="970">
      <contour>
        <pt x="640" y="793" on="1"/>
        <pt x="549" y="92" on="1"/>
        <pt x="548" y="87" on="0"/>
        <pt x="548" y="79" on="0"/>
        <pt x="548" y="75" on="1"/>
        <pt x="549" y="49" on="0"/>
        <pt x="586" y="31" on="0"/>
        <pt x="633" y="28" on="1"/>
        <pt x="619" y="0" on="1"/>
        <pt x="311" y="0" on="1"/>
        <pt x="325" y="28" on="1"/>
        <pt x="353" y="28" on="0"/>
        <pt x="395" y="35" on="0"/>
        <pt x="423" y="52" on="0"/>
        <pt x="439" y="82" on="0"/>
        <pt x="442" y="105" on="1"/>
        <pt x="467" y="286" on="1"/>
        <pt x="230" y="286" on="1"/>
        <pt x="101" y="137" on="1"/>
        <pt x="78" y="110" on="0"/>
        <pt x="61" y="83" on="0"/>
        <pt x="61" y="69" on="1"/>
        <pt x="62" y="53" on="0"/>
        <pt x="101" y="34" on="0"/>
        <pt x="146" y="28" on="1"/>
        <pt x="133" y="0" on="1"/>
        <pt x="-145" y="0" on="1"/>
        <pt x="-131" y="28" on="1"/>
        <pt x="-95" y="33" on="0"/>
        <pt x="-45" y="48" on="0"/>
        <pt x="-4" y="74" on="0"/>
        <pt x="34" y="111" on="0"/>
        <pt x="58" y="139" on="1"/>
        <pt x="521" y="677" on="1"/>
        <pt x="532" y="770" on="1"/>
      </contour>
      <contour>
        <pt x="514" y="614" on="1"/>
        <pt x="262" y="323" on="1"/>
        <pt x="472" y="323" on="1"/>
      </contour>
      <contour>
        <pt x="634" y="970" on="1"/>
        <pt x="664" y="970" on="0"/>
        <pt x="706" y="933" on="0"/>
        <pt x="706" y="907" on="1"/>
        <pt x="706" y="892" on="0"/>
        <pt x="692" y="864" on="0"/>
        <pt x="668" y="843" on="0"/>
        <pt x="636" y="830" on="0"/>
        <pt x="619" y="830" on="1"/>
        <pt x="590" y="830" on="0"/>
        <pt x="552" y="866" on="0"/>
        <pt x="552" y="893" on="1"/>
        <pt x="552" y="924" on="0"/>
        <pt x="600" y="970" on="0"/>
      </contour>
      <contour>
        <pt x="631" y="932" on="1"/>
        <pt x="615" y="932" on="0"/>
        <pt x="592" y="911" on="0"/>
        <pt x="592" y="897" on="1"/>
        <pt x="592" y="883" on="0"/>
        <pt x="610" y="866" on="0"/>
        <pt x="624" y="866" on="1"/>
        <pt x="640" y="866" on="0"/>
        <pt x="666" y="889" on="0"/>
        <pt x="666" y="903" on="1"/>
        <pt x="666" y="915" on="0"/>
        <pt x="645" y="932" on="0"/>
      </contour>
    </TTGlyph>
    <TTGlyph name="Aringacute" xMin="-145" yMin="0" xMax="761" yMax="970">
      <contour>
        <pt x="640" y="793" on="1"/>
        <pt x="549" y="92" on="1"/>
        <pt x="548" y="87" on="0"/>
        <pt x="548" y="79" on="0"/>
        <pt x="548" y="75" on="1"/>
        <pt x="549" y="49" on="0"/>
        <pt x="586" y="31" on="0"/>
        <pt x="633" y="28" on="1"/>
        <pt x="619" y="0" on="1"/>
        <pt x="311" y="0" on="1"/>
        <pt x="325" y="28" on="1"/>
        <pt x="353" y="28" on="0"/>
        <pt x="395" y="35" on="0"/>
        <pt x="423" y="52" on="0"/>
        <pt x="439" y="82" on="0"/>
        <pt x="442" y="105" on="1"/>
        <pt x="467" y="286" on="1"/>
        <pt x="230" y="286" on="1"/>
        <pt x="101" y="137" on="1"/>
        <pt x="78" y="110" on="0"/>
        <pt x="61" y="83" on="0"/>
        <pt x="61" y="69" on="1"/>
        <pt x="62" y="53" on="0"/>
        <pt x="101" y="34" on="0"/>
        <pt x="146" y="28" on="1"/>
        <pt x="133" y="0" on="1"/>
        <pt x="-145" y="0" on="1"/>
        <pt x="-131" y="28" on="1"/>
        <pt x="-95" y="33" on="0"/>
        <pt x="-45" y="48" on="0"/>
        <pt x="-4" y="74" on="0"/>
        <pt x="34" y="111" on="0"/>
        <pt x="58" y="139" on="1"/>
        <pt x="521" y="677" on="1"/>
        <pt x="532" y="770" on="1"/>
      </contour>
      <contour>
        <pt x="514" y="614" on="1"/>
        <pt x="262" y="323" on="1"/>
        <pt x="472" y="323" on="1"/>
      </contour>
      <contour>
        <pt x="641" y="970" on="1"/>
        <pt x="679" y="970" on="0"/>
        <pt x="700" y="944" on="1"/>
        <pt x="705" y="945" on="0"/>
        <pt x="712" y="946" on="0"/>
        <pt x="717" y="946" on="1"/>
        <pt x="761" y="946" on="0"/>
        <pt x="761" y="912" on="1"/>
        <pt x="761" y="897" on="0"/>
        <pt x="737" y="878" on="0"/>
        <pt x="705" y="876" on="1"/>
        <pt x="694" y="856" on="0"/>
        <pt x="651" y="830" on="0"/>
        <pt x="626" y="830" on="1"/>
        <pt x="603" y="830" on="0"/>
        <pt x="571" y="851" on="0"/>
        <pt x="563" y="868" on="1"/>
        <pt x="524" y="870" on="1"/>
        <pt x="520" y="894" on="1"/>
        <pt x="560" y="907" on="1"/>
        <pt x="566" y="933" on="0"/>
        <pt x="611" y="970" on="0"/>
      </contour>
      <contour>
        <pt x="638" y="932" on="1"/>
        <pt x="622" y="932" on="0"/>
        <pt x="599" y="911" on="0"/>
        <pt x="599" y="897" on="1"/>
        <pt x="599" y="883" on="0"/>
        <pt x="617" y="866" on="0"/>
        <pt x="631" y="866" on="1"/>
        <pt x="647" y="866" on="0"/>
        <pt x="673" y="889" on="0"/>
        <pt x="673" y="903" on="1"/>
        <pt x="673" y="915" on="0"/>
        <pt x="652" y="932" on="0"/>
      </contour>
    </TTGlyph>
    <TTGlyph name="Atilde" xMin="-145" yMin="0" xMax="779" yMax="970">
      <contour>
        <pt x="640" y="793" on="1"/>
        <pt x="549" y="92" on="1"/>
        <pt x="548" y="87" on="0"/>
        <pt x="548" y="79" on="0"/>
        <pt x="548" y="75" on="1"/>
        <pt x="549" y="49" on="0"/>
        <pt x="586" y="31" on="0"/>
        <pt x="633" y="28" on="1"/>
        <pt x="619" y="0" on="1"/>
        <pt x="311" y="0" on="1"/>
        <pt x="325" y="28" on="1"/>
        <pt x="353" y="28" on="0"/>
        <pt x="395" y="35" on="0"/>
        <pt x="423" y="52" on="0"/>
        <pt x="439" y="82" on="0"/>
        <pt x="442" y="105" on="1"/>
        <pt x="467" y="286" on="1"/>
        <pt x="230" y="286" on="1"/>
        <pt x="101" y="137" on="1"/>
        <pt x="78" y="110" on="0"/>
        <pt x="61" y="83" on="0"/>
        <pt x="61" y="69" on="1"/>
        <pt x="62" y="53" on="0"/>
        <pt x="101" y="34" on="0"/>
        <pt x="146" y="28" on="1"/>
        <pt x="133" y="0" on="1"/>
        <pt x="-145" y="0" on="1"/>
        <pt x="-131" y="28" on="1"/>
        <pt x="-95" y="33" on="0"/>
        <pt x="-45" y="48" on="0"/>
        <pt x="-4" y="74" on="0"/>
        <pt x="34" y="111" on="0"/>
        <pt x="58" y="139" on="1"/>
        <pt x="521" y="677" on="1"/>
        <pt x="532" y="770" on="1"/>
      </contour>
      <contour>
        <pt x="514" y="614" on="1"/>
        <pt x="262" y="323" on="1"/>
        <pt x="472" y="323" on="1"/>
      </contour>
      <contour>
        <pt x="436" y="853" on="1"/>
        <pt x="450" y="904" on="0"/>
        <pt x="518" y="967" on="0"/>
        <pt x="555" y="967" on="1"/>
        <pt x="572" y="967" on="0"/>
        <pt x="607" y="956" on="0"/>
        <pt x="642" y="943" on="0"/>
        <pt x="676" y="932" on="0"/>
        <pt x="693" y="932" on="1"/>
        <pt x="735" y="932" on="0"/>
        <pt x="755" y="970" on="1"/>
        <pt x="779" y="970" on="1"/>
        <pt x="762" y="918" on="0"/>
        <pt x="693" y="852" on="0"/>
        <pt x="656" y="852" on="1"/>
        <pt x="638" y="852" on="0"/>
        <pt x="605" y="864" on="0"/>
        <pt x="571" y="879" on="0"/>
        <pt x="538" y="891" on="0"/>
        <pt x="520" y="891" on="1"/>
        <pt x="474" y="891" on="0"/>
        <pt x="457" y="853" on="1"/>
      </contour>
    </TTGlyph>
    <TTGlyph name="B" xMin="-63" yMin="0" xMax="724" yMax="770">
      <contour>
        <pt x="243" y="38" on="1"/>
        <pt x="375" y="38" on="0"/>
        <pt x="511" y="148" on="0"/>
        <pt x="511" y="251" on="1"/>
        <pt x="511" y="323" on="0"/>
        <pt x="436" y="389" on="0"/>
        <pt x="359" y="389" on="1"/>
        <pt x="287" y="389" on="1"/>
        <pt x="183" y="135" on="1"/>
        <pt x="166" y="94" on="0"/>
        <pt x="166" y="74" on="1"/>
        <pt x="166" y="54" on="0"/>
        <pt x="201" y="38" on="0"/>
      </contour>
      <contour>
        <pt x="397" y="429" on="1"/>
        <pt x="503" y="429" on="0"/>
        <pt x="620" y="526" on="0"/>
        <pt x="620" y="612" on="1"/>
        <pt x="620" y="672" on="0"/>
        <pt x="555" y="729" on="0"/>
        <pt x="491" y="729" on="1"/>
        <pt x="430" y="729" on="1"/>
        <pt x="304" y="429" on="1"/>
      </contour>
      <contour>
        <pt x="-52" y="28" on="1"/>
        <pt x="36" y="47" on="1"/>
        <pt x="318" y="723" on="1"/>
        <pt x="240" y="742" on="1"/>
        <pt x="251" y="770" on="1"/>
        <pt x="491" y="770" on="1"/>
        <pt x="544" y="770" on="0"/>
        <pt x="630" y="748" on="0"/>
        <pt x="691" y="708" on="0"/>
        <pt x="724" y="649" on="0"/>
        <pt x="724" y="613" on="1"/>
        <pt x="724" y="575" on="0"/>
        <pt x="689" y="505" on="0"/>
        <pt x="628" y="448" on="0"/>
        <pt x="543" y="408" on="0"/>
        <pt x="494" y="401" on="1"/>
        <pt x="494" y="397" on="1"/>
        <pt x="554" y="382" on="0"/>
        <pt x="619" y="297" on="0"/>
        <pt x="619" y="234" on="1"/>
        <pt x="619" y="181" on="0"/>
        <pt x="573" y="95" on="0"/>
        <pt x="488" y="33" on="0"/>
        <pt x="369" y="0" on="0"/>
        <pt x="296" y="0" on="1"/>
        <pt x="-63" y="0" on="1"/>
      </contour>
    </TTGlyph>
    <TTGlyph name="C" xMin="63" yMin="-10" xMax="847" yMax="780">
      <contour>
        <pt x="540" y="77" on="1"/>
        <pt x="536" y="77" on="1"/>
        <pt x="477" y="30" on="0"/>
        <pt x="365" y="-10" on="0"/>
        <pt x="298" y="-10" on="1"/>
        <pt x="63" y="-10" on="0"/>
        <pt x="63" y="213" on="1"/>
        <pt x="63" y="284" on="0"/>
        <pt x="108" y="423" on="0"/>
        <pt x="187" y="549" on="0"/>
        <pt x="295" y="656" on="0"/>
        <pt x="421" y="735" on="0"/>
        <pt x="561" y="780" on="0"/>
        <pt x="632" y="780" on="1"/>
        <pt x="680" y="780" on="0"/>
        <pt x="762" y="757" on="0"/>
        <pt x="789" y="737" on="1"/>
        <pt x="825" y="770" on="1"/>
        <pt x="847" y="770" on="1"/>
        <pt x="750" y="540" on="1"/>
        <pt x="721" y="540" on="1"/>
        <pt x="736" y="595" on="0"/>
        <pt x="736" y="634" on="1"/>
        <pt x="736" y="688" on="0"/>
        <pt x="681" y="736" on="0"/>
        <pt x="622" y="736" on="1"/>
        <pt x="566" y="736" on="0"/>
        <pt x="455" y="695" on="0"/>
        <pt x="356" y="623" on="0"/>
        <pt x="271" y="525" on="0"/>
        <pt x="208" y="410" on="0"/>
        <pt x="173" y="283" on="0"/>
        <pt x="173" y="219" on="1"/>
        <pt x="173" y="37" on="0"/>
        <pt x="325" y="37" on="1"/>
        <pt x="373" y="37" on="0"/>
        <pt x="465" y="72" on="0"/>
        <pt x="547" y="138" on="0"/>
        <pt x="615" y="233" on="0"/>
        <pt x="641" y="293" on="1"/>
        <pt x="670" y="293" on="1"/>
        <pt x="559" y="0" on="1"/>
        <pt x="532" y="0" on="1"/>
      </contour>
    </TTGlyph>
    <TTGlyph name="Cacute" xMin="63" yMin="-10" xMax="847" yMax="970">
      <contour>
        <pt x="540" y="77" on="1"/>
        <pt x="536" y="77" on="1"/>
        <pt x="477" y="30" on="0"/>
        <pt x="365" y="-10" on="0"/>
        <pt x="298" y="-10" on="1"/>
        <pt x="63" y="-10" on="0"/>
        <pt x="63" y="213" on="1"/>
        <pt x="63" y="284" on="0"/>
        <pt x="108" y="423" on="0"/>
        <pt x="187" y="549" on="0"/>
        <pt x="295" y="656" on="0"/>
        <pt x="421" y="735" on="0"/>
        <pt x="561" y="780" on="0"/>
        <pt x="632" y="780" on="1"/>
        <pt x="680" y="780" on="0"/>
        <pt x="762" y="757" on="0"/>
        <pt x="789" y="737" on="1"/>
        <pt x="825" y="770" on="1"/>
        <pt x="847" y="770" on="1"/>
        <pt x="750" y="540" on="1"/>
        <pt x="721" y="540" on="1"/>
        <pt x="736" y="595" on="0"/>
        <pt x="736" y="634" on="1"/>
        <pt x="736" y="688" on="0"/>
        <pt x="681" y="736" on="0"/>
        <pt x="622" y="736" on="1"/>
        <pt x="566" y="736" on="0"/>
        <pt x="455" y="695" on="0"/>
        <pt x="356" y="623" on="0"/>
        <pt x="271" y="525" on="0"/>
        <pt x="208" y="410" on="0"/>
        <pt x="173" y="283" on="0"/>
        <pt x="173" y="219" on="1"/>
        <pt x="173" y="37" on="0"/>
        <pt x="325" y="37" on="1"/>
        <pt x="373" y="37" on="0"/>
        <pt x="465" y="72" on="0"/>
        <pt x="547" y="138" on="0"/>
        <pt x="615" y="233" on="0"/>
        <pt x="641" y="293" on="1"/>
        <pt x="670" y="293" on="1"/>
        <pt x="559" y="0" on="1"/>
        <pt x="532" y="0" on="1"/>
      </contour>
      <contour>
        <pt x="588" y="847" on="1"/>
        <pt x="732" y="954" on="1"/>
        <pt x="754" y="970" on="0"/>
        <pt x="776" y="970" on="1"/>
        <pt x="793" y="970" on="0"/>
        <pt x="819" y="946" on="0"/>
        <pt x="819" y="927" on="1"/>
        <pt x="819" y="910" on="0"/>
        <pt x="790" y="881" on="0"/>
        <pt x="751" y="870" on="1"/>
        <pt x="599" y="826" on="1"/>
      </contour>
    </TTGlyph>
    <TTGlyph name="Ccaron" xMin="63" yMin="-10" xMax="854" yMax="970">
      <contour>
        <pt x="540" y="77" on="1"/>
        <pt x="536" y="77" on="1"/>
        <pt x="477" y="30" on="0"/>
        <pt x="365" y="-10" on="0"/>
        <pt x="298" y="-10" on="1"/>
        <pt x="63" y="-10" on="0"/>
        <pt x="63" y="213" on="1"/>
        <pt x="63" y="284" on="0"/>
        <pt x="108" y="423" on="0"/>
        <pt x="187" y="549" on="0"/>
        <pt x="295" y="656" on="0"/>
        <pt x="421" y="735" on="0"/>
        <pt x="561" y="780" on="0"/>
        <pt x="632" y="780" on="1"/>
        <pt x="680" y="780" on="0"/>
        <pt x="762" y="757" on="0"/>
        <pt x="789" y="737" on="1"/>
        <pt x="825" y="770" on="1"/>
        <pt x="847" y="770" on="1"/>
        <pt x="750" y="540" on="1"/>
        <pt x="721" y="540" on="1"/>
        <pt x="736" y="595" on="0"/>
        <pt x="736" y="634" on="1"/>
        <pt x="736" y="688" on="0"/>
        <pt x="681" y="736" on="0"/>
        <pt x="622" y="736" on="1"/>
        <pt x="566" y="736" on="0"/>
        <pt x="455" y="695" on="0"/>
        <pt x="356" y="623" on="0"/>
        <pt x="271" y="525" on="0"/>
        <pt x="208" y="410" on="0"/>
        <pt x="173" y="283" on="0"/>
        <pt x="173" y="219" on="1"/>
        <pt x="173" y="37" on="0"/>
        <pt x="325" y="37" on="1"/>
        <pt x="373" y="37" on="0"/>
        <pt x="465" y="72" on="0"/>
        <pt x="547" y="138" on="0"/>
        <pt x="615" y="233" on="0"/>
        <pt x="641" y="293" on="1"/>
        <pt x="670" y="293" on="1"/>
        <pt x="559" y="0" on="1"/>
        <pt x="532" y="0" on="1"/>
      </contour>
      <contour>
        <pt x="658" y="830" on="1"/>
        <pt x="641" y="830" on="0"/>
        <pt x="622" y="843" on="0"/>
        <pt x="614" y="857" on="1"/>
        <pt x="560" y="953" on="1"/>
        <pt x="586" y="970" on="1"/>
        <pt x="677" y="902" on="1"/>
        <pt x="842" y="970" on="1"/>
        <pt x="854" y="953" on="1"/>
        <pt x="722" y="857" on="1"/>
        <pt x="704" y="844" on="0"/>
        <pt x="677" y="830" on="0"/>
      </contour>
    </TTGlyph>
    <TTGlyph name="Ccedilla" xMin="63" yMin="-257" xMax="847" yMax="780">
      <contour>
        <pt x="155" y="-210" on="1"/>
        <pt x="177" y="-226" on="0"/>
        <pt x="207" y="-226" on="1"/>
        <pt x="245" y="-226" on="0"/>
        <pt x="296" y="-187" on="0"/>
        <pt x="296" y="-156" on="1"/>
        <pt x="296" y="-122" on="0"/>
        <pt x="254" y="-122" on="1"/>
        <pt x="224" y="-122" on="0"/>
        <pt x="206" y="-134" on="1"/>
        <pt x="198" y="-121" on="1"/>
        <pt x="285" y="-10" on="1"/>
        <pt x="63" y="-4" on="0"/>
        <pt x="63" y="213" on="1"/>
        <pt x="63" y="284" on="0"/>
        <pt x="108" y="423" on="0"/>
        <pt x="187" y="549" on="0"/>
        <pt x="295" y="656" on="0"/>
        <pt x="421" y="735" on="0"/>
        <pt x="561" y="780" on="0"/>
        <pt x="632" y="780" on="1"/>
        <pt x="680" y="780" on="0"/>
        <pt x="762" y="757" on="0"/>
        <pt x="789" y="737" on="1"/>
        <pt x="825" y="770" on="1"/>
        <pt x="847" y="770" on="1"/>
        <pt x="750" y="540" on="1"/>
        <pt x="721" y="540" on="1"/>
        <pt x="736" y="595" on="0"/>
        <pt x="736" y="634" on="1"/>
        <pt x="736" y="688" on="0"/>
        <pt x="681" y="736" on="0"/>
        <pt x="622" y="736" on="1"/>
        <pt x="566" y="736" on="0"/>
        <pt x="455" y="695" on="0"/>
        <pt x="356" y="623" on="0"/>
        <pt x="271" y="525" on="0"/>
        <pt x="208" y="410" on="0"/>
        <pt x="173" y="283" on="0"/>
        <pt x="173" y="219" on="1"/>
        <pt x="173" y="37" on="0"/>
        <pt x="325" y="37" on="1"/>
        <pt x="373" y="37" on="0"/>
        <pt x="465" y="72" on="0"/>
        <pt x="547" y="138" on="0"/>
        <pt x="615" y="233" on="0"/>
        <pt x="641" y="293" on="1"/>
        <pt x="670" y="293" on="1"/>
        <pt x="559" y="0" on="1"/>
        <pt x="532" y="0" on="1"/>
        <pt x="540" y="77" on="1"/>
        <pt x="536" y="77" on="1"/>
        <pt x="483" y="36" on="0"/>
        <pt x="384" y="-5" on="0"/>
        <pt x="327" y="-9" on="1"/>
        <pt x="290" y="-58" on="1"/>
        <pt x="332" y="-58" on="0"/>
        <pt x="378" y="-95" on="0"/>
        <pt x="378" y="-128" on="1"/>
        <pt x="378" y="-154" on="0"/>
        <pt x="350" y="-200" on="0"/>
        <pt x="303" y="-236" on="0"/>
        <pt x="242" y="-257" on="0"/>
        <pt x="208" y="-257" on="1"/>
        <pt x="156" y="-257" on="0"/>
        <pt x="138" y="-233" on="1"/>
      </contour>
    </TTGlyph>
    <TTGlyph name="Ccircumflex" xMin="63" yMin="-10" xMax="847" yMax="970">
      <contour>
        <pt x="540" y="77" on="1"/>
        <pt x="536" y="77" on="1"/>
        <pt x="477" y="30" on="0"/>
        <pt x="365" y="-10" on="0"/>
        <pt x="298" y="-10" on="1"/>
        <pt x="63" y="-10" on="0"/>
        <pt x="63" y="213" on="1"/>
        <pt x="63" y="284" on="0"/>
        <pt x="108" y="423" on="0"/>
        <pt x="187" y="549" on="0"/>
        <pt x="295" y="656" on="0"/>
        <pt x="421" y="735" on="0"/>
        <pt x="561" y="780" on="0"/>
        <pt x="632" y="780" on="1"/>
        <pt x="680" y="780" on="0"/>
        <pt x="762" y="757" on="0"/>
        <pt x="789" y="737" on="1"/>
        <pt x="825" y="770" on="1"/>
        <pt x="847" y="770" on="1"/>
        <pt x="750" y="540" on="1"/>
        <pt x="721" y="540" on="1"/>
        <pt x="736" y="595" on="0"/>
        <pt x="736" y="634" on="1"/>
        <pt x="736" y="688" on="0"/>
        <pt x="681" y="736" on="0"/>
        <pt x="622" y="736" on="1"/>
        <pt x="566" y="736" on="0"/>
        <pt x="455" y="695" on="0"/>
        <pt x="356" y="623" on="0"/>
        <pt x="271" y="525" on="0"/>
        <pt x="208" y="410" on="0"/>
        <pt x="173" y="283" on="0"/>
        <pt x="173" y="219" on="1"/>
        <pt x="173" y="37" on="0"/>
        <pt x="325" y="37" on="1"/>
        <pt x="373" y="37" on="0"/>
        <pt x="465" y="72" on="0"/>
        <pt x="547" y="138" on="0"/>
        <pt x="615" y="233" on="0"/>
        <pt x="641" y="293" on="1"/>
        <pt x="670" y="293" on="1"/>
        <pt x="559" y="0" on="1"/>
        <pt x="532" y="0" on="1"/>
      </contour>
      <contour>
        <pt x="712" y="970" on="1"/>
        <pt x="729" y="970" on="0"/>
        <pt x="748" y="957" on="0"/>
        <pt x="756" y="943" on="1"/>
        <pt x="810" y="847" on="1"/>
        <pt x="784" y="830" on="1"/>
        <pt x="693" y="898" on="1"/>
        <pt x="528" y="830" on="1"/>
        <pt x="516" y="847" on="1"/>
        <pt x="648" y="943" on="1"/>
        <pt x="666" y="956" on="0"/>
        <pt x="693" y="970" on="0"/>
      </contour>
    </TTGlyph>
    <TTGlyph name="Cdotaccent" xMin="63" yMin="-10" xMax="847" yMax="970">
      <contour>
        <pt x="540" y="77" on="1"/>
        <pt x="536" y="77" on="1"/>
        <pt x="477" y="30" on="0"/>
        <pt x="365" y="-10" on="0"/>
        <pt x="298" y="-10" on="1"/>
        <pt x="63" y="-10" on="0"/>
        <pt x="63" y="213" on="1"/>
        <pt x="63" y="284" on="0"/>
        <pt x="108" y="423" on="0"/>
        <pt x="187" y="549" on="0"/>
        <pt x="295" y="656" on="0"/>
        <pt x="421" y="735" on="0"/>
        <pt x="561" y="780" on="0"/>
        <pt x="632" y="780" on="1"/>
        <pt x="680" y="780" on="0"/>
        <pt x="762" y="757" on="0"/>
        <pt x="789" y="737" on="1"/>
        <pt x="825" y="770" on="1"/>
        <pt x="847" y="770" on="1"/>
        <pt x="750" y="540" on="1"/>
        <pt x="721" y="540" on="1"/>
        <pt x="736" y="595" on="0"/>
        <pt x="736" y="634" on="1"/>
        <pt x="736" y="688" on="0"/>
        <pt x="681" y="736" on="0"/>
        <pt x="622" y="736" on="1"/>
        <pt x="566" y="736" on="0"/>
        <pt x="455" y="695" on="0"/>
        <pt x="356" y="623" on="0"/>
        <pt x="271" y="525" on="0"/>
        <pt x="208" y="410" on="0"/>
        <pt x="173" y="283" on="0"/>
        <pt x="173" y="219" on="1"/>
        <pt x="173" y="37" on="0"/>
        <pt x="325" y="37" on="1"/>
        <pt x="373" y="37" on="0"/>
        <pt x="465" y="72" on="0"/>
        <pt x="547" y="138" on="0"/>
        <pt x="615" y="233" on="0"/>
        <pt x="641" y="293" on="1"/>
        <pt x="670" y="293" on="1"/>
        <pt x="559" y="0" on="1"/>
        <pt x="532" y="0" on="1"/>
      </contour>
      <contour>
        <pt x="710" y="970" on="1"/>
        <pt x="736" y="970" on="0"/>
        <pt x="774" y="938" on="0"/>
        <pt x="774" y="915" on="1"/>
        <pt x="774" y="901" on="0"/>
        <pt x="761" y="876" on="0"/>
        <pt x="740" y="857" on="0"/>
        <pt x="713" y="845" on="0"/>
        <pt x="699" y="845" on="1"/>
        <pt x="670" y="845" on="0"/>
        <pt x="637" y="876" on="0"/>
        <pt x="637" y="902" on="1"/>
        <pt x="637" y="930" on="0"/>
        <pt x="681" y="970" on="0"/>
      </contour>
    </TTGlyph>
    <TTGlyph name="D" xMin="-68" yMin="0" xMax="781" yMax="770">
      <contour>
        <pt x="-58" y="23" on="1"/>
        <pt x="34" y="42" on="1"/>
        <pt x="318" y="728" on="1"/>
        <pt x="240" y="747" on="1"/>
        <pt x="250" y="770" on="1"/>
        <pt x="456" y="770" on="1"/>
        <pt x="530" y="770" on="0"/>
        <pt x="650" y="728" on="0"/>
        <pt x="735" y="650" on="0"/>
        <pt x="781" y="539" on="0"/>
        <pt x="781" y="470" on="1"/>
        <pt x="781" y="403" on="0"/>
        <pt x="741" y="275" on="0"/>
        <pt x="669" y="164" on="0"/>
        <pt x="567" y="75" on="0"/>
        <pt x="505" y="47" on="1"/>
        <pt x="401" y="0" on="0"/>
        <pt x="242" y="0" on="1"/>
        <pt x="-68" y="0" on="1"/>
      </contour>
      <contour>
        <pt x="236" y="42" on="1"/>
        <pt x="323" y="42" on="0"/>
        <pt x="481" y="103" on="0"/>
        <pt x="601" y="219" on="0"/>
        <pt x="671" y="388" on="0"/>
        <pt x="671" y="495" on="1"/>
        <pt x="671" y="607" on="0"/>
        <pt x="558" y="730" on="0"/>
        <pt x="455" y="730" on="1"/>
        <pt x="428" y="730" on="1"/>
        <pt x="179" y="129" on="1"/>
        <pt x="166" y="99" on="0"/>
        <pt x="166" y="80" on="1"/>
        <pt x="166" y="59" on="0"/>
        <pt x="198" y="42" on="0"/>
      </contour>
    </TTGlyph>
    <TTGlyph name="Dcaron" xMin="-68" yMin="0" xMax="781" yMax="970">
      <contour>
        <pt x="-58" y="23" on="1"/>
        <pt x="34" y="42" on="1"/>
        <pt x="318" y="728" on="1"/>
        <pt x="240" y="747" on="1"/>
        <pt x="250" y="770" on="1"/>
        <pt x="456" y="770" on="1"/>
        <pt x="530" y="770" on="0"/>
        <pt x="650" y="728" on="0"/>
        <pt x="735" y="650" on="0"/>
        <pt x="781" y="539" on="0"/>
        <pt x="781" y="470" on="1"/>
        <pt x="781" y="403" on="0"/>
        <pt x="741" y="275" on="0"/>
        <pt x="669" y="164" on="0"/>
        <pt x="567" y="75" on="0"/>
        <pt x="505" y="47" on="1"/>
        <pt x="401" y="0" on="0"/>
        <pt x="242" y="0" on="1"/>
        <pt x="-68" y="0" on="1"/>
      </contour>
      <contour>
        <pt x="236" y="42" on="1"/>
        <pt x="323" y="42" on="0"/>
        <pt x="481" y="103" on="0"/>
        <pt x="601" y="219" on="0"/>
        <pt x="671" y="388" on="0"/>
        <pt x="671" y="495" on="1"/>
        <pt x="671" y="607" on="0"/>
        <pt x="558" y="730" on="0"/>
        <pt x="455" y="730" on="1"/>
        <pt x="428" y="730" on="1"/>
        <pt x="179" y="129" on="1"/>
        <pt x="166" y="99" on="0"/>
        <pt x="166" y="80" on="1"/>
        <pt x="166" y="59" on="0"/>
        <pt x="198" y="42" on="0"/>
      </contour>
      <contour>
        <pt x="563" y="830" on="1"/>
        <pt x="546" y="830" on="0"/>
        <pt x="527" y="843" on="0"/>
        <pt x="519" y="857" on="1"/>
        <pt x="465" y="953" on="1"/>
        <pt x="491" y="970" on="1"/>
        <pt x="582" y="902" on="1"/>
        <pt x="747" y="970" on="1"/>
        <pt x="759" y="953" on="1"/>
        <pt x="627" y="857" on="1"/>
        <pt x="609" y="844" on="0"/>
        <pt x="582" y="830" on="0"/>
      </contour>
    </TTGlyph>
    <TTGlyph name="Dcroat" xMin="-65" yMin="0" xMax="784" yMax="770">
      <contour>
        <pt x="-55" y="23" on="1"/>
        <pt x="37" y="42" on="1"/>
        <pt x="175" y="376" on="1"/>
        <pt x="78" y="376" on="1"/>
        <pt x="96" y="420" on="1"/>
        <pt x="193" y="420" on="1"/>
        <pt x="321" y="728" on="1"/>
        <pt x="243" y="747" on="1"/>
        <pt x="253" y="770" on="1"/>
        <pt x="459" y="770" on="1"/>
        <pt x="533" y="770" on="0"/>
        <pt x="653" y="728" on="0"/>
        <pt x="738" y="650" on="0"/>
        <pt x="784" y="539" on="0"/>
        <pt x="784" y="470" on="1"/>
        <pt x="784" y="403" on="0"/>
        <pt x="744" y="275" on="0"/>
        <pt x="672" y="164" on="0"/>
        <pt x="570" y="75" on="0"/>
        <pt x="508" y="47" on="1"/>
        <pt x="404" y="0" on="0"/>
        <pt x="245" y="0" on="1"/>
        <pt x="-65" y="0" on="1"/>
      </contour>
      <contour>
        <pt x="239" y="42" on="1"/>
        <pt x="326" y="42" on="0"/>
        <pt x="484" y="103" on="0"/>
        <pt x="604" y="219" on="0"/>
        <pt x="674" y="388" on="0"/>
        <pt x="674" y="495" on="1"/>
        <pt x="674" y="607" on="0"/>
        <pt x="561" y="730" on="0"/>
        <pt x="458" y="730" on="1"/>
        <pt x="431" y="730" on="1"/>
        <pt x="302" y="420" on="1"/>
        <pt x="453" y="420" on="1"/>
        <pt x="434" y="376" on="1"/>
        <pt x="284" y="376" on="1"/>
        <pt x="182" y="129" on="1"/>
        <pt x="169" y="99" on="0"/>
        <pt x="169" y="80" on="1"/>
        <pt x="169" y="59" on="0"/>
        <pt x="201" y="42" on="0"/>
      </contour>
    </TTGlyph>
    <TTGlyph name="Ddotbelow" xMin="-68" yMin="-256" xMax="781" yMax="770">
      <contour>
        <pt x="-58" y="23" on="1"/>
        <pt x="34" y="42" on="1"/>
        <pt x="318" y="728" on="1"/>
        <pt x="240" y="747" on="1"/>
        <pt x="250" y="770" on="1"/>
        <pt x="456" y="770" on="1"/>
        <pt x="530" y="770" on="0"/>
        <pt x="650" y="728" on="0"/>
        <pt x="735" y="650" on="0"/>
        <pt x="781" y="539" on="0"/>
        <pt x="781" y="470" on="1"/>
        <pt x="781" y="403" on="0"/>
        <pt x="741" y="275" on="0"/>
        <pt x="669" y="164" on="0"/>
        <pt x="567" y="75" on="0"/>
        <pt x="505" y="47" on="1"/>
        <pt x="401" y="0" on="0"/>
        <pt x="242" y="0" on="1"/>
        <pt x="-68" y="0" on="1"/>
      </contour>
      <contour>
        <pt x="236" y="42" on="1"/>
        <pt x="323" y="42" on="0"/>
        <pt x="481" y="103" on="0"/>
        <pt x="601" y="219" on="0"/>
        <pt x="671" y="388" on="0"/>
        <pt x="671" y="495" on="1"/>
        <pt x="671" y="607" on="0"/>
        <pt x="558" y="730" on="0"/>
        <pt x="455" y="730" on="1"/>
        <pt x="428" y="730" on="1"/>
        <pt x="179" y="129" on="1"/>
        <pt x="166" y="99" on="0"/>
        <pt x="166" y="80" on="1"/>
        <pt x="166" y="59" on="0"/>
        <pt x="198" y="42" on="0"/>
      </contour>
      <contour>
        <pt x="193" y="-131" on="1"/>
        <pt x="219" y="-131" on="0"/>
        <pt x="257" y="-163" on="0"/>
        <pt x="257" y="-186" on="1"/>
        <pt x="257" y="-200" on="0"/>
        <pt x="244" y="-225" on="0"/>
        <pt x="223" y="-244" on="0"/>
        <pt x="196" y="-256" on="0"/>
        <pt x="182" y="-256" on="1"/>
        <pt x="153" y="-256" on="0"/>
        <pt x="120" y="-225" on="0"/>
        <pt x="120" y="-199" on="1"/>
        <pt x="120" y="-171" on="0"/>
        <pt x="164" y="-131" on="0"/>
      </contour>
    </TTGlyph>
    <TTGlyph name="E" xMin="-68" yMin="0" xMax="738" yMax="770">
      <contour>
        <pt x="-68" y="0" on="1"/>
        <pt x="-58" y="23" on="1"/>
        <pt x="34" y="42" on="1"/>
        <pt x="318" y="728" on="1"/>
        <pt x="240" y="747" on="1"/>
        <pt x="250" y="770" on="1"/>
        <pt x="730" y="770" on="1"/>
        <pt x="738" y="550" on="1"/>
        <pt x="711" y="550" on="1"/>
        <pt x="702" y="604" on="0"/>
        <pt x="675" y="692" on="0"/>
        <pt x="653" y="730" on="1"/>
        <pt x="427" y="730" on="1"/>
        <pt x="303" y="426" on="1"/>
        <pt x="471" y="426" on="1"/>
        <pt x="520" y="483" on="0"/>
        <pt x="555" y="540" on="1"/>
        <pt x="584" y="540" on="1"/>
        <pt x="471" y="266" on="1"/>
        <pt x="442" y="266" on="1"/>
        <pt x="450" y="296" on="0"/>
        <pt x="457" y="356" on="0"/>
        <pt x="459" y="386" on="1"/>
        <pt x="285" y="386" on="1"/>
        <pt x="143" y="40" on="1"/>
        <pt x="466" y="40" on="1"/>
        <pt x="507" y="88" on="0"/>
        <pt x="574" y="182" on="0"/>
        <pt x="603" y="230" on="1"/>
        <pt x="632" y="230" on="1"/>
        <pt x="541" y="0" on="1"/>
      </contour>
    </TTGlyph>
    <TTGlyph name="Eacute" xMin="-68" yMin="0" xMax="738" yMax="970">
      <contour>
        <pt x="-68" y="0" on="1"/>
        <pt x="-58" y="23" on="1"/>
        <pt x="34" y="42" on="1"/>
        <pt x="318" y="728" on="1"/>
        <pt x="240" y="747" on="1"/>
        <pt x="250" y="770" on="1"/>
        <pt x="730" y="770" on="1"/>
        <pt x="738" y="550" on="1"/>
        <pt x="711" y="550" on="1"/>
        <pt x="702" y="604" on="0"/>
        <pt x="675" y="692" on="0"/>
        <pt x="653" y="730" on="1"/>
        <pt x="427" y="730" on="1"/>
        <pt x="303" y="426" on="1"/>
        <pt x="471" y="426" on="1"/>
        <pt x="520" y="483" on="0"/>
        <pt x="555" y="540" on="1"/>
        <pt x="584" y="540" on="1"/>
        <pt x="471" y="266" on="1"/>
        <pt x="442" y="266" on="1"/>
        <pt x="450" y="296" on="0"/>
        <pt x="457" y="356" on="0"/>
        <pt x="459" y="386" on="1"/>
        <pt x="285" y="386" on="1"/>
        <pt x="143" y="40" on="1"/>
        <pt x="466" y="40" on="1"/>
        <pt x="507" y="88" on="0"/>
        <pt x="574" y="182" on="0"/>
        <pt x="603" y="230" on="1"/>
        <pt x="632" y="230" on="1"/>
        <pt x="541" y="0" on="1"/>
      </contour>
      <contour>
        <pt x="454" y="847" on="1"/>
        <pt x="598" y="954" on="1"/>
        <pt x="620" y="970" on="0"/>
        <pt x="642" y="970" on="1"/>
        <pt x="659" y="970" on="0"/>
        <pt x="685" y="946" on="0"/>
        <pt x="685" y="927" on="1"/>
        <pt x="685" y="910" on="0"/>
        <pt x="656" y="881" on="0"/>
        <pt x="617" y="870" on="1"/>
        <pt x="465" y="826" on="1"/>
      </contour>
    </TTGlyph>
    <TTGlyph name="Ebreve" xMin="-68" yMin="0" xMax="748" yMax="970">
      <contour>
        <pt x="-68" y="0" on="1"/>
        <pt x="-58" y="23" on="1"/>
        <pt x="34" y="42" on="1"/>
        <pt x="318" y="728" on="1"/>
        <pt x="240" y="747" on="1"/>
        <pt x="250" y="770" on="1"/>
        <pt x="730" y="770" on="1"/>
        <pt x="738" y="550" on="1"/>
        <pt x="711" y="550" on="1"/>
        <pt x="702" y="604" on="0"/>
        <pt x="675" y="692" on="0"/>
        <pt x="653" y="730" on="1"/>
        <pt x="427" y="730" on="1"/>
        <pt x="303" y="426" on="1"/>
        <pt x="471" y="426" on="1"/>
        <pt x="520" y="483" on="0"/>
        <pt x="555" y="540" on="1"/>
        <pt x="584" y="540" on="1"/>
        <pt x="471" y="266" on="1"/>
        <pt x="442" y="266" on="1"/>
        <pt x="450" y="296" on="0"/>
        <pt x="457" y="356" on="0"/>
        <pt x="459" y="386" on="1"/>
        <pt x="285" y="386" on="1"/>
        <pt x="143" y="40" on="1"/>
        <pt x="466" y="40" on="1"/>
        <pt x="507" y="88" on="0"/>
        <pt x="574" y="182" on="0"/>
        <pt x="603" y="230" on="1"/>
        <pt x="632" y="230" on="1"/>
        <pt x="541" y="0" on="1"/>
      </contour>
      <contour>
        <pt x="499" y="970" on="1"/>
        <pt x="500" y="939" on="0"/>
        <pt x="539" y="905" on="0"/>
        <pt x="578" y="905" on="1"/>
        <pt x="611" y="905" on="0"/>
        <pt x="676" y="935" on="0"/>
        <pt x="708" y="970" on="1"/>
        <pt x="748" y="970" on="1"/>
        <pt x="717" y="923" on="0"/>
        <pt x="657" y="868" on="0"/>
        <pt x="605" y="840" on="0"/>
        <pt x="560" y="831" on="0"/>
        <pt x="544" y="831" on="1"/>
        <pt x="527" y="831" on="0"/>
        <pt x="494" y="840" on="0"/>
        <pt x="469" y="859" on="0"/>
        <pt x="454" y="891" on="0"/>
        <pt x="454" y="914" on="1"/>
        <pt x="454" y="939" on="0"/>
        <pt x="464" y="970" on="1"/>
      </contour>
    </TTGlyph>
    <TTGlyph name="Ecaron" xMin="-68" yMin="0" xMax="745" yMax="970">
      <contour>
        <pt x="-68" y="0" on="1"/>
        <pt x="-58" y="23" on="1"/>
        <pt x="34" y="42" on="1"/>
        <pt x="318" y="728" on="1"/>
        <pt x="240" y="747" on="1"/>
        <pt x="250" y="770" on="1"/>
        <pt x="730" y="770" on="1"/>
        <pt x="738" y="550" on="1"/>
        <pt x="711" y="550" on="1"/>
        <pt x="702" y="604" on="0"/>
        <pt x="675" y="692" on="0"/>
        <pt x="653" y="730" on="1"/>
        <pt x="427" y="730" on="1"/>
        <pt x="303" y="426" on="1"/>
        <pt x="471" y="426" on="1"/>
        <pt x="520" y="483" on="0"/>
        <pt x="555" y="540" on="1"/>
        <pt x="584" y="540" on="1"/>
        <pt x="471" y="266" on="1"/>
        <pt x="442" y="266" on="1"/>
        <pt x="450" y="296" on="0"/>
        <pt x="457" y="356" on="0"/>
        <pt x="459" y="386" on="1"/>
        <pt x="285" y="386" on="1"/>
        <pt x="143" y="40" on="1"/>
        <pt x="466" y="40" on="1"/>
        <pt x="507" y="88" on="0"/>
        <pt x="574" y="182" on="0"/>
        <pt x="603" y="230" on="1"/>
        <pt x="632" y="230" on="1"/>
        <pt x="541" y="0" on="1"/>
      </contour>
      <contour>
        <pt x="549" y="830" on="1"/>
        <pt x="532" y="830" on="0"/>
        <pt x="513" y="843" on="0"/>
        <pt x="505" y="857" on="1"/>
        <pt x="451" y="953" on="1"/>
        <pt x="477" y="970" on="1"/>
        <pt x="568" y="902" on="1"/>
        <pt x="733" y="970" on="1"/>
        <pt x="745" y="953" on="1"/>
        <pt x="613" y="857" on="1"/>
        <pt x="595" y="844" on="0"/>
        <pt x="568" y="830" on="0"/>
      </contour>
    </TTGlyph>
    <TTGlyph name="Ecircumflex" xMin="-68" yMin="0" xMax="738" yMax="970">
      <contour>
        <pt x="-68" y="0" on="1"/>
        <pt x="-58" y="23" on="1"/>
        <pt x="34" y="42" on="1"/>
        <pt x="318" y="728" on="1"/>
        <pt x="240" y="747" on="1"/>
        <pt x="250" y="770" on="1"/>
        <pt x="730" y="770" on="1"/>
        <pt x="738" y="550" on="1"/>
        <pt x="711" y="550" on="1"/>
        <pt x="702" y="604" on="0"/>
        <pt x="675" y="692" on="0"/>
        <pt x="653" y="730" on="1"/>
        <pt x="427" y="730" on="1"/>
        <pt x="303" y="426" on="1"/>
        <pt x="471" y="426" on="1"/>
        <pt x="520" y="483" on="0"/>
        <pt x="555" y="540" on="1"/>
        <pt x="584" y="540" on="1"/>
        <pt x="471" y="266" on="1"/>
        <pt x="442" y="266" on="1"/>
        <pt x="450" y="296" on="0"/>
        <pt x="457" y="356" on="0"/>
        <pt x="459" y="386" on="1"/>
        <pt x="285" y="386" on="1"/>
        <pt x="143" y="40" on="1"/>
        <pt x="466" y="40" on="1"/>
        <pt x="507" y="88" on="0"/>
        <pt x="574" y="182" on="0"/>
        <pt x="603" y="230" on="1"/>
        <pt x="632" y="230" on="1"/>
        <pt x="541" y="0" on="1"/>
      </contour>
      <contour>
        <pt x="600" y="970" on="1"/>
        <pt x="617" y="970" on="0"/>
        <pt x="636" y="957" on="0"/>
        <pt x="644" y="943" on="1"/>
        <pt x="698" y="847" on="1"/>
        <pt x="672" y="830" on="1"/>
        <pt x="581" y="898" on="1"/>
        <pt x="416" y="830" on="1"/>
        <pt x="404" y="847" on="1"/>
        <pt x="536" y="943" on="1"/>
        <pt x="554" y="956" on="0"/>
        <pt x="581" y="970" on="0"/>
      </contour>
    </TTGlyph>
    <TTGlyph name="Edieresis" xMin="-68" yMin="0" xMax="738" yMax="970">
      <contour>
        <pt x="-68" y="0" on="1"/>
        <pt x="-58" y="23" on="1"/>
        <pt x="34" y="42" on="1"/>
        <pt x="318" y="728" on="1"/>
        <pt x="240" y="747" on="1"/>
        <pt x="250" y="770" on="1"/>
        <pt x="730" y="770" on="1"/>
        <pt x="738" y="550" on="1"/>
        <pt x="711" y="550" on="1"/>
        <pt x="702" y="604" on="0"/>
        <pt x="675" y="692" on="0"/>
        <pt x="653" y="730" on="1"/>
        <pt x="427" y="730" on="1"/>
        <pt x="303" y="426" on="1"/>
        <pt x="471" y="426" on="1"/>
        <pt x="520" y="483" on="0"/>
        <pt x="555" y="540" on="1"/>
        <pt x="584" y="540" on="1"/>
        <pt x="471" y="266" on="1"/>
        <pt x="442" y="266" on="1"/>
        <pt x="450" y="296" on="0"/>
        <pt x="457" y="356" on="0"/>
        <pt x="459" y="386" on="1"/>
        <pt x="285" y="386" on="1"/>
        <pt x="143" y="40" on="1"/>
        <pt x="466" y="40" on="1"/>
        <pt x="507" y="88" on="0"/>
        <pt x="574" y="182" on="0"/>
        <pt x="603" y="230" on="1"/>
        <pt x="632" y="230" on="1"/>
        <pt x="541" y="0" on="1"/>
      </contour>
      <contour>
        <pt x="490" y="970" on="1"/>
        <pt x="513" y="970" on="0"/>
        <pt x="547" y="942" on="0"/>
        <pt x="547" y="921" on="1"/>
        <pt x="547" y="909" on="0"/>
        <pt x="536" y="887" on="0"/>
        <pt x="517" y="869" on="0"/>
        <pt x="493" y="859" on="0"/>
        <pt x="480" y="859" on="1"/>
        <pt x="454" y="859" on="0"/>
        <pt x="425" y="887" on="0"/>
        <pt x="425" y="910" on="1"/>
        <pt x="425" y="934" on="0"/>
        <pt x="464" y="970" on="0"/>
      </contour>
      <contour>
        <pt x="665" y="970" on="1"/>
        <pt x="688" y="970" on="0"/>
        <pt x="722" y="942" on="0"/>
        <pt x="722" y="921" on="1"/>
        <pt x="722" y="909" on="0"/>
        <pt x="711" y="887" on="0"/>
        <pt x="692" y="869" on="0"/>
        <pt x="668" y="859" on="0"/>
        <pt x="655" y="859" on="1"/>
        <pt x="629" y="859" on="0"/>
        <pt x="600" y="887" on="0"/>
        <pt x="600" y="910" on="1"/>
        <pt x="600" y="934" on="0"/>
        <pt x="639" y="970" on="0"/>
      </contour>
    </TTGlyph>
    <TTGlyph name="Edotaccent" xMin="-68" yMin="0" xMax="738" yMax="970">
      <contour>
        <pt x="-68" y="0" on="1"/>
        <pt x="-58" y="23" on="1"/>
        <pt x="34" y="42" on="1"/>
        <pt x="318" y="728" on="1"/>
        <pt x="240" y="747" on="1"/>
        <pt x="250" y="770" on="1"/>
        <pt x="730" y="770" on="1"/>
        <pt x="738" y="550" on="1"/>
        <pt x="711" y="550" on="1"/>
        <pt x="702" y="604" on="0"/>
        <pt x="675" y="692" on="0"/>
        <pt x="653" y="730" on="1"/>
        <pt x="427" y="730" on="1"/>
        <pt x="303" y="426" on="1"/>
        <pt x="471" y="426" on="1"/>
        <pt x="520" y="483" on="0"/>
        <pt x="555" y="540" on="1"/>
        <pt x="584" y="540" on="1"/>
        <pt x="471" y="266" on="1"/>
        <pt x="442" y="266" on="1"/>
        <pt x="450" y="296" on="0"/>
        <pt x="457" y="356" on="0"/>
        <pt x="459" y="386" on="1"/>
        <pt x="285" y="386" on="1"/>
        <pt x="143" y="40" on="1"/>
        <pt x="466" y="40" on="1"/>
        <pt x="507" y="88" on="0"/>
        <pt x="574" y="182" on="0"/>
        <pt x="603" y="230" on="1"/>
        <pt x="632" y="230" on="1"/>
        <pt x="541" y="0" on="1"/>
      </contour>
      <contour>
        <pt x="583" y="970" on="1"/>
        <pt x="609" y="970" on="0"/>
        <pt x="647" y="938" on="0"/>
        <pt x="647" y="915" on="1"/>
        <pt x="647" y="901" on="0"/>
        <pt x="634" y="876" on="0"/>
        <pt x="613" y="857" on="0"/>
        <pt x="586" y="845" on="0"/>
        <pt x="572" y="845" on="1"/>
        <pt x="543" y="845" on="0"/>
        <pt x="510" y="876" on="0"/>
        <pt x="510" y="902" on="1"/>
        <pt x="510" y="930" on="0"/>
        <pt x="554" y="970" on="0"/>
      </contour>
    </TTGlyph>
    <TTGlyph name="Edotbelow" xMin="-68" yMin="-256" xMax="738" yMax="770">
      <contour>
        <pt x="-68" y="0" on="1"/>
        <pt x="-58" y="23" on="1"/>
        <pt x="34" y="42" on="1"/>
        <pt x="318" y="728" on="1"/>
        <pt x="240" y="747" on="1"/>
        <pt x="250" y="770" on="1"/>
        <pt x="730" y="770" on="1"/>
        <pt x="738" y="550" on="1"/>
        <pt x="711" y="550" on="1"/>
        <pt x="702" y="604" on="0"/>
        <pt x="675" y="692" on="0"/>
        <pt x="653" y="730" on="1"/>
        <pt x="427" y="730" on="1"/>
        <pt x="303" y="426" on="1"/>
        <pt x="471" y="426" on="1"/>
        <pt x="520" y="483" on="0"/>
        <pt x="555" y="540" on="1"/>
        <pt x="584" y="540" on="1"/>
        <pt x="471" y="266" on="1"/>
        <pt x="442" y="266" on="1"/>
        <pt x="450" y="296" on="0"/>
        <pt x="457" y="356" on="0"/>
        <pt x="459" y="386" on="1"/>
        <pt x="285" y="386" on="1"/>
        <pt x="143" y="40" on="1"/>
        <pt x="466" y="40" on="1"/>
        <pt x="507" y="88" on="0"/>
        <pt x="574" y="182" on="0"/>
        <pt x="603" y="230" on="1"/>
        <pt x="632" y="230" on="1"/>
        <pt x="541" y="0" on="1"/>
      </contour>
      <contour>
        <pt x="224" y="-131" on="1"/>
        <pt x="250" y="-131" on="0"/>
        <pt x="288" y="-163" on="0"/>
        <pt x="288" y="-186" on="1"/>
        <pt x="288" y="-200" on="0"/>
        <pt x="275" y="-225" on="0"/>
        <pt x="254" y="-244" on="0"/>
        <pt x="227" y="-256" on="0"/>
        <pt x="213" y="-256" on="1"/>
        <pt x="184" y="-256" on="0"/>
        <pt x="151" y="-225" on="0"/>
        <pt x="151" y="-199" on="1"/>
        <pt x="151" y="-171" on="0"/>
        <pt x="195" y="-131" on="0"/>
      </contour>
    </TTGlyph>
    <TTGlyph name="Egrave" xMin="-68" yMin="0" xMax="738" yMax="970">
      <contour>
        <pt x="-68" y="0" on="1"/>
        <pt x="-58" y="23" on="1"/>
        <pt x="34" y="42" on="1"/>
        <pt x="318" y="728" on="1"/>
        <pt x="240" y="747" on="1"/>
        <pt x="250" y="770" on="1"/>
        <pt x="730" y="770" on="1"/>
        <pt x="738" y="550" on="1"/>
        <pt x="711" y="550" on="1"/>
        <pt x="702" y="604" on="0"/>
        <pt x="675" y="692" on="0"/>
        <pt x="653" y="730" on="1"/>
        <pt x="427" y="730" on="1"/>
        <pt x="303" y="426" on="1"/>
        <pt x="471" y="426" on="1"/>
        <pt x="520" y="483" on="0"/>
        <pt x="555" y="540" on="1"/>
        <pt x="584" y="540" on="1"/>
        <pt x="471" y="266" on="1"/>
        <pt x="442" y="266" on="1"/>
        <pt x="450" y="296" on="0"/>
        <pt x="457" y="356" on="0"/>
        <pt x="459" y="386" on="1"/>
        <pt x="285" y="386" on="1"/>
        <pt x="143" y="40" on="1"/>
        <pt x="466" y="40" on="1"/>
        <pt x="507" y="88" on="0"/>
        <pt x="574" y="182" on="0"/>
        <pt x="603" y="230" on="1"/>
        <pt x="632" y="230" on="1"/>
        <pt x="541" y="0" on="1"/>
      </contour>
      <contour>
        <pt x="599" y="826" on="1"/>
        <pt x="438" y="873" on="1"/>
        <pt x="401" y="884" on="0"/>
        <pt x="401" y="922" on="1"/>
        <pt x="401" y="944" on="0"/>
        <pt x="428" y="970" on="0"/>
        <pt x="451" y="970" on="1"/>
        <pt x="468" y="970" on="0"/>
        <pt x="497" y="953" on="0"/>
        <pt x="514" y="938" on="1"/>
        <pt x="618" y="847" on="1"/>
      </contour>
    </TTGlyph>
    <TTGlyph name="Emacron" xMin="-68" yMin="0" xMax="738" yMax="952">
      <contour>
        <pt x="-68" y="0" on="1"/>
        <pt x="-58" y="23" on="1"/>
        <pt x="34" y="42" on="1"/>
        <pt x="318" y="728" on="1"/>
        <pt x="240" y="747" on="1"/>
        <pt x="250" y="770" on="1"/>
        <pt x="730" y="770" on="1"/>
        <pt x="738" y="550" on="1"/>
        <pt x="711" y="550" on="1"/>
        <pt x="702" y="604" on="0"/>
        <pt x="675" y="692" on="0"/>
        <pt x="653" y="730" on="1"/>
        <pt x="427" y="730" on="1"/>
        <pt x="303" y="426" on="1"/>
        <pt x="471" y="426" on="1"/>
        <pt x="520" y="483" on="0"/>
        <pt x="555" y="540" on="1"/>
        <pt x="584" y="540" on="1"/>
        <pt x="471" y="266" on="1"/>
        <pt x="442" y="266" on="1"/>
        <pt x="450" y="296" on="0"/>
        <pt x="457" y="356" on="0"/>
        <pt x="459" y="386" on="1"/>
        <pt x="285" y="386" on="1"/>
        <pt x="143" y="40" on="1"/>
        <pt x="466" y="40" on="1"/>
        <pt x="507" y="88" on="0"/>
        <pt x="574" y="182" on="0"/>
        <pt x="603" y="230" on="1"/>
        <pt x="632" y="230" on="1"/>
        <pt x="541" y="0" on="1"/>
      </contour>
      <contour>
        <pt x="411" y="881" on="1"/>
        <pt x="439" y="952" on="1"/>
        <pt x="726" y="952" on="1"/>
        <pt x="697" y="881" on="1"/>
      </contour>
    </TTGlyph>
    <TTGlyph name="Eng" xMin="-75" yMin="-256" xMax="969" yMax="770">
      <contour>
        <pt x="306" y="-216" on="1"/>
        <pt x="323" y="-216" on="0"/>
        <pt x="354" y="-199" on="0"/>
        <pt x="387" y="-155" on="0"/>
        <pt x="424" y="-83" on="0"/>
        <pt x="447" y="-27" on="1"/>
        <pt x="483" y="60" on="1"/>
        <pt x="353" y="690" on="1"/>
        <pt x="349" y="690" on="1"/>
        <pt x="80" y="42" on="1"/>
        <pt x="162" y="23" on="1"/>
        <pt x="152" y="0" on="1"/>
        <pt x="-75" y="0" on="1"/>
        <pt x="-65" y="23" on="1"/>
        <pt x="32" y="42" on="1"/>
        <pt x="316" y="728" on="1"/>
        <pt x="233" y="747" on="1"/>
        <pt x="243" y="770" on="1"/>
        <pt x="455" y="770" on="1"/>
        <pt x="579" y="171" on="1"/>
        <pt x="583" y="171" on="1"/>
        <pt x="814" y="728" on="1"/>
        <pt x="731" y="747" on="1"/>
        <pt x="741" y="770" on="1"/>
        <pt x="969" y="770" on="1"/>
        <pt x="959" y="747" on="1"/>
        <pt x="863" y="728" on="1"/>
        <pt x="556" y="-10" on="1"/>
        <pt x="506" y="-130" on="0"/>
        <pt x="359" y="-256" on="0"/>
        <pt x="277" y="-256" on="1"/>
        <pt x="222" y="-256" on="0"/>
        <pt x="158" y="-209" on="0"/>
        <pt x="158" y="-177" on="1"/>
        <pt x="158" y="-153" on="0"/>
        <pt x="189" y="-127" on="0"/>
        <pt x="209" y="-127" on="1"/>
        <pt x="233" y="-127" on="0"/>
        <pt x="253" y="-155" on="0"/>
        <pt x="266" y="-188" on="0"/>
        <pt x="283" y="-216" on="0"/>
      </contour>
    </TTGlyph>
    <TTGlyph name="Eogonek" xMin="-68" yMin="-256" xMax="738" yMax="770">
      <contour>
        <pt x="462" y="-198" on="1"/>
        <pt x="393" y="-256" on="0"/>
        <pt x="325" y="-256" on="1"/>
        <pt x="258" y="-256" on="0"/>
        <pt x="258" y="-204" on="1"/>
        <pt x="258" y="-159" on="0"/>
        <pt x="344" y="-51" on="0"/>
        <pt x="431" y="0" on="1"/>
        <pt x="-68" y="0" on="1"/>
        <pt x="-58" y="23" on="1"/>
        <pt x="34" y="42" on="1"/>
        <pt x="318" y="728" on="1"/>
        <pt x="240" y="747" on="1"/>
        <pt x="250" y="770" on="1"/>
        <pt x="730" y="770" on="1"/>
        <pt x="738" y="550" on="1"/>
        <pt x="711" y="550" on="1"/>
        <pt x="702" y="604" on="0"/>
        <pt x="675" y="692" on="0"/>
        <pt x="653" y="730" on="1"/>
        <pt x="427" y="730" on="1"/>
        <pt x="303" y="426" on="1"/>
        <pt x="471" y="426" on="1"/>
        <pt x="520" y="483" on="0"/>
        <pt x="555" y="540" on="1"/>
        <pt x="584" y="540" on="1"/>
        <pt x="471" y="266" on="1"/>
        <pt x="442" y="266" on="1"/>
        <pt x="450" y="296" on="0"/>
        <pt x="457" y="356" on="0"/>
        <pt x="459" y="386" on="1"/>
        <pt x="285" y="386" on="1"/>
        <pt x="143" y="40" on="1"/>
        <pt x="466" y="40" on="1"/>
        <pt x="507" y="88" on="0"/>
        <pt x="574" y="182" on="0"/>
        <pt x="603" y="230" on="1"/>
        <pt x="632" y="230" on="1"/>
        <pt x="541" y="0" on="1"/>
        <pt x="475" y="0" on="1"/>
        <pt x="410" y="-52" on="0"/>
        <pt x="355" y="-142" on="0"/>
        <pt x="355" y="-172" on="1"/>
        <pt x="355" y="-201" on="0"/>
        <pt x="392" y="-201" on="1"/>
        <pt x="406" y="-201" on="0"/>
        <pt x="434" y="-192" on="0"/>
        <pt x="457" y="-180" on="1"/>
      </contour>
    </TTGlyph>
    <TTGlyph name="Eth" xMin="-65" yMin="0" xMax="784" yMax="770">
      <contour>
        <pt x="-55" y="23" on="1"/>
        <pt x="37" y="42" on="1"/>
        <pt x="175" y="376" on="1"/>
        <pt x="78" y="376" on="1"/>
        <pt x="96" y="420" on="1"/>
        <pt x="193" y="420" on="1"/>
        <pt x="321" y="728" on="1"/>
        <pt x="243" y="747" on="1"/>
        <pt x="253" y="770" on="1"/>
        <pt x="459" y="770" on="1"/>
        <pt x="533" y="770" on="0"/>
        <pt x="653" y="728" on="0"/>
        <pt x="738" y="650" on="0"/>
        <pt x="784" y="539" on="0"/>
        <pt x="784" y="470" on="1"/>
        <pt x="784" y="403" on="0"/>
        <pt x="744" y="275" on="0"/>
        <pt x="672" y="164" on="0"/>
        <pt x="570" y="75" on="0"/>
        <pt x="508" y="47" on="1"/>
        <pt x="404" y="0" on="0"/>
        <pt x="245" y="0" on="1"/>
        <pt x="-65" y="0" on="1"/>
      </contour>
      <contour>
        <pt x="239" y="42" on="1"/>
        <pt x="326" y="42" on="0"/>
        <pt x="484" y="103" on="0"/>
        <pt x="604" y="219" on="0"/>
        <pt x="674" y="388" on="0"/>
        <pt x="674" y="495" on="1"/>
        <pt x="674" y="607" on="0"/>
        <pt x="561" y="730" on="0"/>
        <pt x="458" y="730" on="1"/>
        <pt x="431" y="730" on="1"/>
        <pt x="302" y="420" on="1"/>
        <pt x="453" y="420" on="1"/>
        <pt x="434" y="376" on="1"/>
        <pt x="284" y="376" on="1"/>
        <pt x="182" y="129" on="1"/>
        <pt x="169" y="99" on="0"/>
        <pt x="169" y="80" on="1"/>
        <pt x="169" y="59" on="0"/>
        <pt x="201" y="42" on="0"/>
      </contour>
    </TTGlyph>
    <TTGlyph name="Etilde" xMin="-68" yMin="0" xMax="738" yMax="970">
      <contour>
        <pt x="-68" y="0" on="1"/>
        <pt x="-58" y="23" on="1"/>
        <pt x="34" y="42" on="1"/>
        <pt x="318" y="728" on="1"/>
        <pt x="240" y="747" on="1"/>
        <pt x="250" y="770" on="1"/>
        <pt x="730" y="770" on="1"/>
        <pt x="738" y="550" on="1"/>
        <pt x="711" y="550" on="1"/>
        <pt x="702" y="604" on="0"/>
        <pt x="675" y="692" on="0"/>
        <pt x="653" y="730" on="1"/>
        <pt x="427" y="730" on="1"/>
        <pt x="303" y="426" on="1"/>
        <pt x="471" y="426" on="1"/>
        <pt x="520" y="483" on="0"/>
        <pt x="555" y="540" on="1"/>
        <pt x="584" y="540" on="1"/>
        <pt x="471" y="266" on="1"/>
        <pt x="442" y="266" on="1"/>
        <pt x="450" y="296" on="0"/>
        <pt x="457" y="356" on="0"/>
        <pt x="459" y="386" on="1"/>
        <pt x="285" y="386" on="1"/>
        <pt x="143" y="40" on="1"/>
        <pt x="466" y="40" on="1"/>
        <pt x="507" y="88" on="0"/>
        <pt x="574" y="182" on="0"/>
        <pt x="603" y="230" on="1"/>
        <pt x="632" y="230" on="1"/>
        <pt x="541" y="0" on="1"/>
      </contour>
      <contour>
        <pt x="394" y="853" on="1"/>
        <pt x="408" y="904" on="0"/>
        <pt x="476" y="967" on="0"/>
        <pt x="513" y="967" on="1"/>
        <pt x="530" y="967" on="0"/>
        <pt x="565" y="956" on="0"/>
        <pt x="600" y="943" on="0"/>
        <pt x="634" y="932" on="0"/>
        <pt x="651" y="932" on="1"/>
        <pt x="693" y="932" on="0"/>
        <pt x="713" y="970" on="1"/>
        <pt x="737" y="970" on="1"/>
        <pt x="720" y="918" on="0"/>
        <pt x="651" y="852" on="0"/>
        <pt x="614" y="852" on="1"/>
        <pt x="596" y="852" on="0"/>
        <pt x="563" y="864" on="0"/>
        <pt x="529" y="879" on="0"/>
        <pt x="496" y="891" on="0"/>
        <pt x="478" y="891" on="1"/>
        <pt x="432" y="891" on="0"/>
        <pt x="415" y="853" on="1"/>
      </contour>
    </TTGlyph>
    <TTGlyph name="Euro" xMin="57" yMin="-10" xMax="707" yMax="780">
      <contour>
        <pt x="137" y="485" on="1"/>
        <pt x="197" y="485" on="1"/>
        <pt x="227" y="548" on="0"/>
        <pt x="307" y="656" on="0"/>
        <pt x="399" y="735" on="0"/>
        <pt x="500" y="780" on="0"/>
        <pt x="552" y="780" on="1"/>
        <pt x="585" y="780" on="0"/>
        <pt x="642" y="760" on="0"/>
        <pt x="683" y="725" on="0"/>
        <pt x="707" y="679" on="0"/>
        <pt x="707" y="652" on="1"/>
        <pt x="707" y="629" on="0"/>
        <pt x="676" y="596" on="0"/>
        <pt x="650" y="596" on="1"/>
        <pt x="625" y="596" on="0"/>
        <pt x="590" y="631" on="0"/>
        <pt x="590" y="663" on="1"/>
        <pt x="590" y="707" on="0"/>
        <pt x="568" y="738" on="0"/>
        <pt x="539" y="738" on="1"/>
        <pt x="512" y="738" on="0"/>
        <pt x="454" y="699" on="0"/>
        <pt x="395" y="630" on="0"/>
        <pt x="339" y="538" on="0"/>
        <pt x="315" y="485" on="1"/>
        <pt x="566" y="485" on="1"/>
        <pt x="544" y="441" on="1"/>
        <pt x="296" y="441" on="1"/>
        <pt x="282" y="405" on="0"/>
        <pt x="269" y="364" on="1"/>
        <pt x="508" y="364" on="1"/>
        <pt x="486" y="320" on="1"/>
        <pt x="256" y="320" on="1"/>
        <pt x="230" y="224" on="0"/>
        <pt x="230" y="139" on="1"/>
        <pt x="230" y="83" on="0"/>
        <pt x="258" y="31" on="0"/>
        <pt x="288" y="31" on="1"/>
        <pt x="321" y="31" on="0"/>
        <pt x="378" y="77" on="0"/>
        <pt x="401" y="121" on="1"/>
        <pt x="419" y="155" on="0"/>
        <pt x="458" y="189" on="0"/>
        <pt x="482" y="189" on="1"/>
        <pt x="502" y="189" on="0"/>
        <pt x="522" y="169" on="0"/>
        <pt x="522" y="143" on="1"/>
        <pt x="522" y="114" on="0"/>
        <pt x="481" y="59" on="0"/>
        <pt x="416" y="16" on="0"/>
        <pt x="334" y="-10" on="0"/>
        <pt x="293" y="-10" on="1"/>
        <pt x="258" y="-10" on="0"/>
        <pt x="197" y="13" on="0"/>
        <pt x="153" y="60" on="0"/>
        <pt x="128" y="133" on="0"/>
        <pt x="128" y="183" on="1"/>
        <pt x="128" y="250" on="0"/>
        <pt x="142" y="320" on="1"/>
        <pt x="57" y="320" on="1"/>
        <pt x="79" y="364" on="1"/>
        <pt x="152" y="364" on="1"/>
        <pt x="162" y="401" on="0"/>
        <pt x="178" y="441" on="1"/>
        <pt x="115" y="441" on="1"/>
      </contour>
    </TTGlyph>
    <TTGlyph name="Euro.tnum" xMin="-57" yMin="-10" xMax="593" yMax="780">
      <contour>
        <pt x="23" y="485" on="1"/>
        <pt x="83" y="485" on="1"/>
        <pt x="113" y="548" on="0"/>
        <pt x="193" y="656" on="0"/>
        <pt x="285" y="735" on="0"/>
        <pt x="386" y="780" on="0"/>
        <pt x="438" y="780" on="1"/>
        <pt x="471" y="780" on="0"/>
        <pt x="528" y="760" on="0"/>
        <pt x="569" y="725" on="0"/>
        <pt x="593" y="679" on="0"/>
        <pt x="593" y="652" on="1"/>
        <pt x="593" y="629" on="0"/>
        <pt x="562" y="596" on="0"/>
        <pt x="536" y="596" on="1"/>
        <pt x="511" y="596" on="0"/>
        <pt x="476" y="631" on="0"/>
        <pt x="476" y="663" on="1"/>
        <pt x="476" y="707" on="0"/>
        <pt x="454" y="738" on="0"/>
        <pt x="425" y="738" on="1"/>
        <pt x="398" y="738" on="0"/>
        <pt x="340" y="699" on="0"/>
        <pt x="281" y="630" on="0"/>
        <pt x="225" y="538" on="0"/>
        <pt x="201" y="485" on="1"/>
        <pt x="452" y="485" on="1"/>
        <pt x="430" y="441" on="1"/>
        <pt x="182" y="441" on="1"/>
        <pt x="168" y="405" on="0"/>
        <pt x="155" y="364" on="1"/>
        <pt x="394" y="364" on="1"/>
        <pt x="372" y="320" on="1"/>
        <pt x="142" y="320" on="1"/>
        <pt x="116" y="224" on="0"/>
        <pt x="116" y="139" on="1"/>
        <pt x="116" y="83" on="0"/>
        <pt x="144" y="31" on="0"/>
        <pt x="174" y="31" on="1"/>
        <pt x="207" y="31" on="0"/>
        <pt x="264" y="77" on="0"/>
        <pt x="287" y="121" on="1"/>
        <pt x="305" y="155" on="0"/>
        <pt x="344" y="189" on="0"/>
        <pt x="368" y="189" on="1"/>
        <pt x="388" y="189" on="0"/>
        <pt x="408" y="169" on="0"/>
        <pt x="408" y="143" on="1"/>
        <pt x="408" y="114" on="0"/>
        <pt x="367" y="59" on="0"/>
        <pt x="302" y="16" on="0"/>
        <pt x="220" y="-10" on="0"/>
        <pt x="179" y="-10" on="1"/>
        <pt x="144" y="-10" on="0"/>
        <pt x="83" y="13" on="0"/>
        <pt x="39" y="60" on="0"/>
        <pt x="14" y="133" on="0"/>
        <pt x="14" y="183" on="1"/>
        <pt x="14" y="250" on="0"/>
        <pt x="28" y="320" on="1"/>
        <pt x="-57" y="320" on="1"/>
        <pt x="-35" y="364" on="1"/>
        <pt x="38" y="364" on="1"/>
        <pt x="48" y="401" on="0"/>
        <pt x="64" y="441" on="1"/>
        <pt x="1" y="441" on="1"/>
      </contour>
    </TTGlyph>
    <TTGlyph name="F" xMin="-68" yMin="0" xMax="738" yMax="770">
      <contour>
        <pt x="-68" y="0" on="1"/>
        <pt x="-58" y="23" on="1"/>
        <pt x="34" y="42" on="1"/>
        <pt x="318" y="728" on="1"/>
        <pt x="240" y="747" on="1"/>
        <pt x="250" y="770" on="1"/>
        <pt x="738" y="770" on="1"/>
        <pt x="738" y="550" on="1"/>
        <pt x="711" y="550" on="1"/>
        <pt x="703" y="604" on="0"/>
        <pt x="678" y="692" on="0"/>
        <pt x="661" y="730" on="1"/>
        <pt x="427" y="730" on="1"/>
        <pt x="298" y="414" on="1"/>
        <pt x="466" y="414" on="1"/>
        <pt x="515" y="471" on="0"/>
        <pt x="550" y="528" on="1"/>
        <pt x="579" y="528" on="1"/>
        <pt x="466" y="254" on="1"/>
        <pt x="437" y="254" on="1"/>
        <pt x="445" y="284" on="0"/>
        <pt x="452" y="344" on="0"/>
        <pt x="454" y="374" on="1"/>
        <pt x="280" y="374" on="1"/>
        <pt x="143" y="40" on="1"/>
        <pt x="260" y="23" on="1"/>
        <pt x="250" y="0" on="1"/>
      </contour>
    </TTGlyph>
    <TTGlyph name="G" xMin="71" yMin="-10" xMax="855" yMax="780">
      <contour>
        <pt x="598" y="344" on="1"/>
        <pt x="515" y="363" on="1"/>
        <pt x="525" y="386" on="1"/>
        <pt x="809" y="386" on="1"/>
        <pt x="799" y="363" on="1"/>
        <pt x="703" y="344" on="1"/>
        <pt x="585" y="59" on="1"/>
        <pt x="524" y="25" on="0"/>
        <pt x="389" y="-10" on="0"/>
        <pt x="326" y="-10" on="1"/>
        <pt x="204" y="-10" on="0"/>
        <pt x="71" y="119" on="0"/>
        <pt x="71" y="237" on="1"/>
        <pt x="71" y="305" on="0"/>
        <pt x="114" y="438" on="0"/>
        <pt x="189" y="559" on="0"/>
        <pt x="293" y="662" on="0"/>
        <pt x="414" y="737" on="0"/>
        <pt x="548" y="780" on="0"/>
        <pt x="616" y="780" on="1"/>
        <pt x="669" y="780" on="0"/>
        <pt x="747" y="754" on="0"/>
        <pt x="780" y="725" on="1"/>
        <pt x="831" y="770" on="1"/>
        <pt x="855" y="770" on="1"/>
        <pt x="757" y="530" on="1"/>
        <pt x="727" y="530" on="1"/>
        <pt x="734" y="557" on="0"/>
        <pt x="741" y="601" on="0"/>
        <pt x="741" y="621" on="1"/>
        <pt x="741" y="736" on="0"/>
        <pt x="612" y="736" on="1"/>
        <pt x="557" y="736" on="0"/>
        <pt x="450" y="698" on="0"/>
        <pt x="355" y="629" on="0"/>
        <pt x="275" y="535" on="0"/>
        <pt x="217" y="423" on="0"/>
        <pt x="184" y="298" on="0"/>
        <pt x="184" y="233" on="1"/>
        <pt x="184" y="34" on="0"/>
        <pt x="348" y="34" on="1"/>
        <pt x="412" y="34" on="0"/>
        <pt x="494" y="93" on="0"/>
        <pt x="521" y="159" on="1"/>
      </contour>
    </TTGlyph>
    <TTGlyph name="Gbreve" xMin="71" yMin="-10" xMax="883" yMax="970">
      <contour>
        <pt x="598" y="344" on="1"/>
        <pt x="515" y="363" on="1"/>
        <pt x="525" y="386" on="1"/>
        <pt x="809" y="386" on="1"/>
        <pt x="799" y="363" on="1"/>
        <pt x="703" y="344" on="1"/>
        <pt x="585" y="59" on="1"/>
        <pt x="524" y="25" on="0"/>
        <pt x="389" y="-10" on="0"/>
        <pt x="326" y="-10" on="1"/>
        <pt x="204" y="-10" on="0"/>
        <pt x="71" y="119" on="0"/>
        <pt x="71" y="237" on="1"/>
        <pt x="71" y="305" on="0"/>
        <pt x="114" y="438" on="0"/>
        <pt x="189" y="559" on="0"/>
        <pt x="293" y="662" on="0"/>
        <pt x="414" y="737" on="0"/>
        <pt x="548" y="780" on="0"/>
        <pt x="616" y="780" on="1"/>
        <pt x="669" y="780" on="0"/>
        <pt x="747" y="754" on="0"/>
        <pt x="780" y="725" on="1"/>
        <pt x="831" y="770" on="1"/>
        <pt x="855" y="770" on="1"/>
        <pt x="757" y="530" on="1"/>
        <pt x="727" y="530" on="1"/>
        <pt x="734" y="557" on="0"/>
        <pt x="741" y="601" on="0"/>
        <pt x="741" y="621" on="1"/>
        <pt x="741" y="736" on="0"/>
        <pt x="612" y="736" on="1"/>
        <pt x="557" y="736" on="0"/>
        <pt x="450" y="698" on="0"/>
        <pt x="355" y="629" on="0"/>
        <pt x="275" y="535" on="0"/>
        <pt x="217" y="423" on="0"/>
        <pt x="184" y="298" on="0"/>
        <pt x="184" y="233" on="1"/>
        <pt x="184" y="34" on="0"/>
        <pt x="348" y="34" on="1"/>
        <pt x="412" y="34" on="0"/>
        <pt x="494" y="93" on="0"/>
        <pt x="521" y="159" on="1"/>
      </contour>
      <contour>
        <pt x="634" y="970" on="1"/>
        <pt x="635" y="939" on="0"/>
        <pt x="674" y="905" on="0"/>
        <pt x="713" y="905" on="1"/>
        <pt x="746" y="905" on="0"/>
        <pt x="811" y="935" on="0"/>
        <pt x="843" y="970" on="1"/>
        <pt x="883" y="970" on="1"/>
        <pt x="852" y="923" on="0"/>
        <pt x="792" y="868" on="0"/>
        <pt x="740" y="840" on="0"/>
        <pt x="695" y="831" on="0"/>
        <pt x="679" y="831" on="1"/>
        <pt x="662" y="831" on="0"/>
        <pt x="629" y="840" on="0"/>
        <pt x="604" y="859" on="0"/>
        <pt x="589" y="891" on="0"/>
        <pt x="589" y="914" on="1"/>
        <pt x="589" y="939" on="0"/>
        <pt x="599" y="970" on="1"/>
      </contour>
    </TTGlyph>
    <TTGlyph name="Gcircumflex" xMin="71" yMin="-10" xMax="855" yMax="970">
      <contour>
        <pt x="598" y="344" on="1"/>
        <pt x="515" y="363" on="1"/>
        <pt x="525" y="386" on="1"/>
        <pt x="809" y="386" on="1"/>
        <pt x="799" y="363" on="1"/>
        <pt x="703" y="344" on="1"/>
        <pt x="585" y="59" on="1"/>
        <pt x="524" y="25" on="0"/>
        <pt x="389" y="-10" on="0"/>
        <pt x="326" y="-10" on="1"/>
        <pt x="204" y="-10" on="0"/>
        <pt x="71" y="119" on="0"/>
        <pt x="71" y="237" on="1"/>
        <pt x="71" y="305" on="0"/>
        <pt x="114" y="438" on="0"/>
        <pt x="189" y="559" on="0"/>
        <pt x="293" y="662" on="0"/>
        <pt x="414" y="737" on="0"/>
        <pt x="548" y="780" on="0"/>
        <pt x="616" y="780" on="1"/>
        <pt x="669" y="780" on="0"/>
        <pt x="747" y="754" on="0"/>
        <pt x="780" y="725" on="1"/>
        <pt x="831" y="770" on="1"/>
        <pt x="855" y="770" on="1"/>
        <pt x="757" y="530" on="1"/>
        <pt x="727" y="530" on="1"/>
        <pt x="734" y="557" on="0"/>
        <pt x="741" y="601" on="0"/>
        <pt x="741" y="621" on="1"/>
        <pt x="741" y="736" on="0"/>
        <pt x="612" y="736" on="1"/>
        <pt x="557" y="736" on="0"/>
        <pt x="450" y="698" on="0"/>
        <pt x="355" y="629" on="0"/>
        <pt x="275" y="535" on="0"/>
        <pt x="217" y="423" on="0"/>
        <pt x="184" y="298" on="0"/>
        <pt x="184" y="233" on="1"/>
        <pt x="184" y="34" on="0"/>
        <pt x="348" y="34" on="1"/>
        <pt x="412" y="34" on="0"/>
        <pt x="494" y="93" on="0"/>
        <pt x="521" y="159" on="1"/>
      </contour>
      <contour>
        <pt x="720" y="970" on="1"/>
        <pt x="737" y="970" on="0"/>
        <pt x="756" y="957" on="0"/>
        <pt x="764" y="943" on="1"/>
        <pt x="818" y="847" on="1"/>
        <pt x="792" y="830" on="1"/>
        <pt x="701" y="898" on="1"/>
        <pt x="536" y="830" on="1"/>
        <pt x="524" y="847" on="1"/>
        <pt x="656" y="943" on="1"/>
        <pt x="674" y="956" on="0"/>
        <pt x="701" y="970" on="0"/>
      </contour>
    </TTGlyph>
    <TTGlyph name="Gcommaaccent" xMin="71" yMin="-247" xMax="855" yMax="780">
      <contour>
        <pt x="598" y="344" on="1"/>
        <pt x="515" y="363" on="1"/>
        <pt x="525" y="386" on="1"/>
        <pt x="809" y="386" on="1"/>
        <pt x="799" y="363" on="1"/>
        <pt x="703" y="344" on="1"/>
        <pt x="585" y="59" on="1"/>
        <pt x="524" y="25" on="0"/>
        <pt x="389" y="-10" on="0"/>
        <pt x="326" y="-10" on="1"/>
        <pt x="204" y="-10" on="0"/>
        <pt x="71" y="119" on="0"/>
        <pt x="71" y="237" on="1"/>
        <pt x="71" y="305" on="0"/>
        <pt x="114" y="438" on="0"/>
        <pt x="189" y="559" on="0"/>
        <pt x="293" y="662" on="0"/>
        <pt x="414" y="737" on="0"/>
        <pt x="548" y="780" on="0"/>
        <pt x="616" y="780" on="1"/>
        <pt x="669" y="780" on="0"/>
        <pt x="747" y="754" on="0"/>
        <pt x="780" y="725" on="1"/>
        <pt x="831" y="770" on="1"/>
        <pt x="855" y="770" on="1"/>
        <pt x="757" y="530" on="1"/>
        <pt x="727" y="530" on="1"/>
        <pt x="734" y="557" on="0"/>
        <pt x="741" y="601" on="0"/>
        <pt x="741" y="621" on="1"/>
        <pt x="741" y="736" on="0"/>
        <pt x="612" y="736" on="1"/>
        <pt x="557" y="736" on="0"/>
        <pt x="450" y="698" on="0"/>
        <pt x="355" y="629" on="0"/>
        <pt x="275" y="535" on="0"/>
        <pt x="217" y="423" on="0"/>
        <pt x="184" y="298" on="0"/>
        <pt x="184" y="233" on="1"/>
        <pt x="184" y="34" on="0"/>
        <pt x="348" y="34" on="1"/>
        <pt x="412" y="34" on="0"/>
        <pt x="494" y="93" on="0"/>
        <pt x="521" y="159" on="1"/>
      </contour>
      <contour>
        <pt x="256" y="-149" on="1"/>
        <pt x="227" y="-141" on="0"/>
        <pt x="227" y="-105" on="1"/>
        <pt x="227" y="-77" on="0"/>
        <pt x="259" y="-44" on="0"/>
        <pt x="293" y="-44" on="1"/>
        <pt x="343" y="-44" on="0"/>
        <pt x="343" y="-100" on="1"/>
        <pt x="343" y="-138" on="0"/>
        <pt x="279" y="-215" on="0"/>
        <pt x="220" y="-247" on="1"/>
        <pt x="205" y="-228" on="1"/>
        <pt x="236" y="-213" on="0"/>
        <pt x="279" y="-173" on="0"/>
        <pt x="279" y="-161" on="1"/>
        <pt x="279" y="-156" on="0"/>
        <pt x="270" y="-152" on="0"/>
      </contour>
    </TTGlyph>
    <TTGlyph name="Gdotaccent" xMin="71" yMin="-10" xMax="855" yMax="970">
      <contour>
        <pt x="598" y="344" on="1"/>
        <pt x="515" y="363" on="1"/>
        <pt x="525" y="386" on="1"/>
        <pt x="809" y="386" on="1"/>
        <pt x="799" y="363" on="1"/>
        <pt x="703" y="344" on="1"/>
        <pt x="585" y="59" on="1"/>
        <pt x="524" y="25" on="0"/>
        <pt x="389" y="-10" on="0"/>
        <pt x="326" y="-10" on="1"/>
        <pt x="204" y="-10" on="0"/>
        <pt x="71" y="119" on="0"/>
        <pt x="71" y="237" on="1"/>
        <pt x="71" y="305" on="0"/>
        <pt x="114" y="438" on="0"/>
        <pt x="189" y="559" on="0"/>
        <pt x="293" y="662" on="0"/>
        <pt x="414" y="737" on="0"/>
        <pt x="548" y="780" on="0"/>
        <pt x="616" y="780" on="1"/>
        <pt x="669" y="780" on="0"/>
        <pt x="747" y="754" on="0"/>
        <pt x="780" y="725" on="1"/>
        <pt x="831" y="770" on="1"/>
        <pt x="855" y="770" on="1"/>
        <pt x="757" y="530" on="1"/>
        <pt x="727" y="530" on="1"/>
        <pt x="734" y="557" on="0"/>
        <pt x="741" y="601" on="0"/>
        <pt x="741" y="621" on="1"/>
        <pt x="741" y="736" on="0"/>
        <pt x="612" y="736" on="1"/>
        <pt x="557" y="736" on="0"/>
        <pt x="450" y="698" on="0"/>
        <pt x="355" y="629" on="0"/>
        <pt x="275" y="535" on="0"/>
        <pt x="217" y="423" on="0"/>
        <pt x="184" y="298" on="0"/>
        <pt x="184" y="233" on="1"/>
        <pt x="184" y="34" on="0"/>
        <pt x="348" y="34" on="1"/>
        <pt x="412" y="34" on="0"/>
        <pt x="494" y="93" on="0"/>
        <pt x="521" y="159" on="1"/>
      </contour>
      <contour>
        <pt x="704" y="970" on="1"/>
        <pt x="730" y="970" on="0"/>
        <pt x="768" y="938" on="0"/>
        <pt x="768" y="915" on="1"/>
        <pt x="768" y="901" on="0"/>
        <pt x="755" y="876" on="0"/>
        <pt x="734" y="857" on="0"/>
        <pt x="707" y="845" on="0"/>
        <pt x="693" y="845" on="1"/>
        <pt x="664" y="845" on="0"/>
        <pt x="631" y="876" on="0"/>
        <pt x="631" y="902" on="1"/>
        <pt x="631" y="930" on="0"/>
        <pt x="675" y="970" on="0"/>
      </contour>
    </TTGlyph>
    <TTGlyph name="H" xMin="-72" yMin="0" xMax="1003" yMax="770">
      <contour>
        <pt x="643" y="385" on="1"/>
        <pt x="287" y="385" on="1"/>
        <pt x="145" y="42" on="1"/>
        <pt x="227" y="23" on="1"/>
        <pt x="217" y="0" on="1"/>
        <pt x="-72" y="0" on="1"/>
        <pt x="-62" y="23" on="1"/>
        <pt x="35" y="42" on="1"/>
        <pt x="319" y="728" on="1"/>
        <pt x="236" y="747" on="1"/>
        <pt x="246" y="770" on="1"/>
        <pt x="536" y="770" on="1"/>
        <pt x="526" y="747" on="1"/>
        <pt x="430" y="728" on="1"/>
        <pt x="304" y="425" on="1"/>
        <pt x="660" y="425" on="1"/>
        <pt x="786" y="728" on="1"/>
        <pt x="703" y="747" on="1"/>
        <pt x="713" y="770" on="1"/>
        <pt x="1003" y="770" on="1"/>
        <pt x="993" y="745" on="1"/>
        <pt x="897" y="728" on="1"/>
        <pt x="612" y="42" on="1"/>
        <pt x="693" y="21" on="1"/>
        <pt x="684" y="0" on="1"/>
        <pt x="394" y="0" on="1"/>
        <pt x="404" y="23" on="1"/>
        <pt x="501" y="42" on="1"/>
      </contour>
    </TTGlyph>
    <TTGlyph name="Hbar" xMin="-71" yMin="0" xMax="1004" yMax="770">
      <contour>
        <pt x="644" y="385" on="1"/>
        <pt x="288" y="385" on="1"/>
        <pt x="146" y="42" on="1"/>
        <pt x="228" y="23" on="1"/>
        <pt x="218" y="0" on="1"/>
        <pt x="-71" y="0" on="1"/>
        <pt x="-61" y="23" on="1"/>
        <pt x="36" y="42" on="1"/>
        <pt x="246" y="550" on="1"/>
        <pt x="167" y="550" on="1"/>
        <pt x="185" y="594" on="1"/>
        <pt x="264" y="594" on="1"/>
        <pt x="320" y="728" on="1"/>
        <pt x="237" y="747" on="1"/>
        <pt x="247" y="770" on="1"/>
        <pt x="537" y="770" on="1"/>
        <pt x="527" y="747" on="1"/>
        <pt x="431" y="728" on="1"/>
        <pt x="375" y="594" on="1"/>
        <pt x="731" y="594" on="1"/>
        <pt x="787" y="728" on="1"/>
        <pt x="704" y="747" on="1"/>
        <pt x="714" y="770" on="1"/>
        <pt x="1004" y="770" on="1"/>
        <pt x="994" y="745" on="1"/>
        <pt x="898" y="728" on="1"/>
        <pt x="842" y="594" on="1"/>
        <pt x="942" y="594" on="1"/>
        <pt x="923" y="550" on="1"/>
        <pt x="824" y="550" on="1"/>
        <pt x="613" y="42" on="1"/>
        <pt x="694" y="21" on="1"/>
        <pt x="685" y="0" on="1"/>
        <pt x="395" y="0" on="1"/>
        <pt x="405" y="23" on="1"/>
        <pt x="502" y="42" on="1"/>
      </contour>
      <contour>
        <pt x="661" y="425" on="1"/>
        <pt x="713" y="550" on="1"/>
        <pt x="357" y="550" on="1"/>
        <pt x="305" y="425" on="1"/>
      </contour>
    </TTGlyph>
    <TTGlyph name="Hcircumflex" xMin="-72" yMin="0" xMax="1003" yMax="970">
      <contour>
        <pt x="643" y="385" on="1"/>
        <pt x="287" y="385" on="1"/>
        <pt x="145" y="42" on="1"/>
        <pt x="227" y="23" on="1"/>
        <pt x="217" y="0" on="1"/>
        <pt x="-72" y="0" on="1"/>
        <pt x="-62" y="23" on="1"/>
        <pt x="35" y="42" on="1"/>
        <pt x="319" y="728" on="1"/>
        <pt x="236" y="747" on="1"/>
        <pt x="246" y="770" on="1"/>
        <pt x="536" y="770" on="1"/>
        <pt x="526" y="747" on="1"/>
        <pt x="430" y="728" on="1"/>
        <pt x="304" y="425" on="1"/>
        <pt x="660" y="425" on="1"/>
        <pt x="786" y="728" on="1"/>
        <pt x="703" y="747" on="1"/>
        <pt x="713" y="770" on="1"/>
        <pt x="1003" y="770" on="1"/>
        <pt x="993" y="745" on="1"/>
        <pt x="897" y="728" on="1"/>
        <pt x="612" y="42" on="1"/>
        <pt x="693" y="21" on="1"/>
        <pt x="684" y="0" on="1"/>
        <pt x="394" y="0" on="1"/>
        <pt x="404" y="23" on="1"/>
        <pt x="501" y="42" on="1"/>
      </contour>
      <contour>
        <pt x="694" y="970" on="1"/>
        <pt x="711" y="970" on="0"/>
        <pt x="730" y="957" on="0"/>
        <pt x="738" y="943" on="1"/>
        <pt x="792" y="847" on="1"/>
        <pt x="766" y="830" on="1"/>
        <pt x="675" y="898" on="1"/>
        <pt x="510" y="830" on="1"/>
        <pt x="498" y="847" on="1"/>
        <pt x="630" y="943" on="1"/>
        <pt x="648" y="956" on="0"/>
        <pt x="675" y="970" on="0"/>
      </contour>
    </TTGlyph>
    <TTGlyph name="Hdotbelow" xMin="-72" yMin="-256" xMax="1003" yMax="770">
      <contour>
        <pt x="643" y="385" on="1"/>
        <pt x="287" y="385" on="1"/>
        <pt x="145" y="42" on="1"/>
        <pt x="227" y="23" on="1"/>
        <pt x="217" y="0" on="1"/>
        <pt x="-72" y="0" on="1"/>
        <pt x="-62" y="23" on="1"/>
        <pt x="35" y="42" on="1"/>
        <pt x="319" y="728" on="1"/>
        <pt x="236" y="747" on="1"/>
        <pt x="246" y="770" on="1"/>
        <pt x="536" y="770" on="1"/>
        <pt x="526" y="747" on="1"/>
        <pt x="430" y="728" on="1"/>
        <pt x="304" y="425" on="1"/>
        <pt x="660" y="425" on="1"/>
        <pt x="786" y="728" on="1"/>
        <pt x="703" y="747" on="1"/>
        <pt x="713" y="770" on="1"/>
        <pt x="1003" y="770" on="1"/>
        <pt x="993" y="745" on="1"/>
        <pt x="897" y="728" on="1"/>
        <pt x="612" y="42" on="1"/>
        <pt x="693" y="21" on="1"/>
        <pt x="684" y="0" on="1"/>
        <pt x="394" y="0" on="1"/>
        <pt x="404" y="23" on="1"/>
        <pt x="501" y="42" on="1"/>
      </contour>
      <contour>
        <pt x="254" y="-131" on="1"/>
        <pt x="280" y="-131" on="0"/>
        <pt x="318" y="-163" on="0"/>
        <pt x="318" y="-186" on="1"/>
        <pt x="318" y="-200" on="0"/>
        <pt x="305" y="-225" on="0"/>
        <pt x="284" y="-244" on="0"/>
        <pt x="257" y="-256" on="0"/>
        <pt x="243" y="-256" on="1"/>
        <pt x="214" y="-256" on="0"/>
        <pt x="181" y="-225" on="0"/>
        <pt x="181" y="-199" on="1"/>
        <pt x="181" y="-171" on="0"/>
        <pt x="225" y="-131" on="0"/>
      </contour>
    </TTGlyph>
    <TTGlyph name="I" xMin="-72" yMin="0" xMax="536" yMax="770">
      <contour>
        <pt x="319" y="728" on="1"/>
        <pt x="236" y="747" on="1"/>
        <pt x="246" y="770" on="1"/>
        <pt x="536" y="770" on="1"/>
        <pt x="526" y="747" on="1"/>
        <pt x="430" y="728" on="1"/>
        <pt x="145" y="42" on="1"/>
        <pt x="227" y="23" on="1"/>
        <pt x="217" y="0" on="1"/>
        <pt x="-72" y="0" on="1"/>
        <pt x="-62" y="23" on="1"/>
        <pt x="35" y="42" on="1"/>
      </contour>
    </TTGlyph>
    <TTGlyph name="IJ" xMin="-72" yMin="-256" xMax="927" yMax="770">
      <contour>
        <pt x="319" y="728" on="1"/>
        <pt x="236" y="747" on="1"/>
        <pt x="246" y="770" on="1"/>
        <pt x="536" y="770" on="1"/>
        <pt x="526" y="747" on="1"/>
        <pt x="430" y="728" on="1"/>
        <pt x="145" y="42" on="1"/>
        <pt x="227" y="23" on="1"/>
        <pt x="217" y="0" on="1"/>
        <pt x="-72" y="0" on="1"/>
        <pt x="-62" y="23" on="1"/>
        <pt x="35" y="42" on="1"/>
      </contour>
      <contour>
        <pt x="507" y="-27" on="1"/>
        <pt x="485" y="-80" on="0"/>
        <pt x="425" y="-165" on="0"/>
        <pt x="354" y="-224" on="0"/>
        <pt x="276" y="-256" on="0"/>
        <pt x="235" y="-256" on="1"/>
        <pt x="180" y="-256" on="0"/>
        <pt x="116" y="-209" on="0"/>
        <pt x="116" y="-177" on="1"/>
        <pt x="116" y="-153" on="0"/>
        <pt x="147" y="-127" on="0"/>
        <pt x="167" y="-127" on="1"/>
        <pt x="191" y="-127" on="0"/>
        <pt x="211" y="-155" on="0"/>
        <pt x="224" y="-188" on="0"/>
        <pt x="241" y="-216" on="0"/>
        <pt x="264" y="-216" on="1"/>
        <pt x="280" y="-216" on="0"/>
        <pt x="308" y="-198" on="0"/>
        <pt x="338" y="-154" on="0"/>
        <pt x="372" y="-81" on="0"/>
        <pt x="395" y="-27" on="1"/>
        <pt x="710" y="728" on="1"/>
        <pt x="627" y="747" on="1"/>
        <pt x="637" y="770" on="1"/>
        <pt x="927" y="770" on="1"/>
        <pt x="917" y="747" on="1"/>
        <pt x="821" y="728" on="1"/>
      </contour>
    </TTGlyph>
    <TTGlyph name="Iacute" xMin="-72" yMin="0" xMax="567" yMax="970">
      <contour>
        <pt x="319" y="728" on="1"/>
        <pt x="236" y="747" on="1"/>
        <pt x="246" y="770" on="1"/>
        <pt x="536" y="770" on="1"/>
        <pt x="526" y="747" on="1"/>
        <pt x="430" y="728" on="1"/>
        <pt x="145" y="42" on="1"/>
        <pt x="227" y="23" on="1"/>
        <pt x="217" y="0" on="1"/>
        <pt x="-72" y="0" on="1"/>
        <pt x="-62" y="23" on="1"/>
        <pt x="35" y="42" on="1"/>
      </contour>
      <contour>
        <pt x="336" y="847" on="1"/>
        <pt x="480" y="954" on="1"/>
        <pt x="502" y="970" on="0"/>
        <pt x="524" y="970" on="1"/>
        <pt x="541" y="970" on="0"/>
        <pt x="567" y="946" on="0"/>
        <pt x="567" y="927" on="1"/>
        <pt x="567" y="910" on="0"/>
        <pt x="538" y="881" on="0"/>
        <pt x="499" y="870" on="1"/>
        <pt x="347" y="826" on="1"/>
      </contour>
    </TTGlyph>
    <TTGlyph name="Ibreve" xMin="-72" yMin="0" xMax="626" yMax="970">
      <contour>
        <pt x="319" y="728" on="1"/>
        <pt x="236" y="747" on="1"/>
        <pt x="246" y="770" on="1"/>
        <pt x="536" y="770" on="1"/>
        <pt x="526" y="747" on="1"/>
        <pt x="430" y="728" on="1"/>
        <pt x="145" y="42" on="1"/>
        <pt x="227" y="23" on="1"/>
        <pt x="217" y="0" on="1"/>
        <pt x="-72" y="0" on="1"/>
        <pt x="-62" y="23" on="1"/>
        <pt x="35" y="42" on="1"/>
      </contour>
      <contour>
        <pt x="377" y="970" on="1"/>
        <pt x="378" y="939" on="0"/>
        <pt x="417" y="905" on="0"/>
        <pt x="456" y="905" on="1"/>
        <pt x="489" y="905" on="0"/>
        <pt x="554" y="935" on="0"/>
        <pt x="586" y="970" on="1"/>
        <pt x="626" y="970" on="1"/>
        <pt x="595" y="923" on="0"/>
        <pt x="535" y="868" on="0"/>
        <pt x="483" y="840" on="0"/>
        <pt x="438" y="831" on="0"/>
        <pt x="422" y="831" on="1"/>
        <pt x="405" y="831" on="0"/>
        <pt x="372" y="840" on="0"/>
        <pt x="347" y="859" on="0"/>
        <pt x="332" y="891" on="0"/>
        <pt x="332" y="914" on="1"/>
        <pt x="332" y="939" on="0"/>
        <pt x="342" y="970" on="1"/>
      </contour>
    </TTGlyph>
    <TTGlyph name="Icircumflex" xMin="-72" yMin="0" xMax="571" yMax="970">
      <contour>
        <pt x="319" y="728" on="1"/>
        <pt x="236" y="747" on="1"/>
        <pt x="246" y="770" on="1"/>
        <pt x="536" y="770" on="1"/>
        <pt x="526" y="747" on="1"/>
        <pt x="430" y="728" on="1"/>
        <pt x="145" y="42" on="1"/>
        <pt x="227" y="23" on="1"/>
        <pt x="217" y="0" on="1"/>
        <pt x="-72" y="0" on="1"/>
        <pt x="-62" y="23" on="1"/>
        <pt x="35" y="42" on="1"/>
      </contour>
      <contour>
        <pt x="473" y="970" on="1"/>
        <pt x="490" y="970" on="0"/>
        <pt x="509" y="957" on="0"/>
        <pt x="517" y="943" on="1"/>
        <pt x="571" y="847" on="1"/>
        <pt x="545" y="830" on="1"/>
        <pt x="454" y="898" on="1"/>
        <pt x="289" y="830" on="1"/>
        <pt x="277" y="847" on="1"/>
        <pt x="409" y="943" on="1"/>
        <pt x="427" y="956" on="0"/>
        <pt x="454" y="970" on="0"/>
      </contour>
    </TTGlyph>
    <TTGlyph name="Idieresis" xMin="-72" yMin="0" xMax="591" yMax="970">
      <contour>
        <pt x="319" y="728" on="1"/>
        <pt x="236" y="747" on="1"/>
        <pt x="246" y="770" on="1"/>
        <pt x="536" y="770" on="1"/>
        <pt x="526" y="747" on="1"/>
        <pt x="430" y="728" on="1"/>
        <pt x="145" y="42" on="1"/>
        <pt x="227" y="23" on="1"/>
        <pt x="217" y="0" on="1"/>
        <pt x="-72" y="0" on="1"/>
        <pt x="-62" y="23" on="1"/>
        <pt x="35" y="42" on="1"/>
      </contour>
      <contour>
        <pt x="359" y="970" on="1"/>
        <pt x="382" y="970" on="0"/>
        <pt x="416" y="942" on="0"/>
        <pt x="416" y="921" on="1"/>
        <pt x="416" y="909" on="0"/>
        <pt x="405" y="887" on="0"/>
        <pt x="386" y="869" on="0"/>
        <pt x="362" y="859" on="0"/>
        <pt x="349" y="859" on="1"/>
        <pt x="323" y="859" on="0"/>
        <pt x="294" y="887" on="0"/>
        <pt x="294" y="910" on="1"/>
        <pt x="294" y="934" on="0"/>
        <pt x="333" y="970" on="0"/>
      </contour>
      <contour>
        <pt x="534" y="970" on="1"/>
        <pt x="557" y="970" on="0"/>
        <pt x="591" y="942" on="0"/>
        <pt x="591" y="921" on="1"/>
        <pt x="591" y="909" on="0"/>
        <pt x="580" y="887" on="0"/>
        <pt x="561" y="869" on="0"/>
        <pt x="537" y="859" on="0"/>
        <pt x="524" y="859" on="1"/>
        <pt x="498" y="859" on="0"/>
        <pt x="469" y="887" on="0"/>
        <pt x="469" y="910" on="1"/>
        <pt x="469" y="934" on="0"/>
        <pt x="508" y="970" on="0"/>
      </contour>
    </TTGlyph>
    <TTGlyph name="Idotaccent" xMin="-72" yMin="0" xMax="536" yMax="970">
      <contour>
        <pt x="319" y="728" on="1"/>
        <pt x="236" y="747" on="1"/>
        <pt x="246" y="770" on="1"/>
        <pt x="536" y="770" on="1"/>
        <pt x="526" y="747" on="1"/>
        <pt x="430" y="728" on="1"/>
        <pt x="145" y="42" on="1"/>
        <pt x="227" y="23" on="1"/>
        <pt x="217" y="0" on="1"/>
        <pt x="-72" y="0" on="1"/>
        <pt x="-62" y="23" on="1"/>
        <pt x="35" y="42" on="1"/>
      </contour>
      <contour>
        <pt x="453" y="970" on="1"/>
        <pt x="479" y="970" on="0"/>
        <pt x="517" y="938" on="0"/>
        <pt x="517" y="915" on="1"/>
        <pt x="517" y="901" on="0"/>
        <pt x="504" y="876" on="0"/>
        <pt x="483" y="857" on="0"/>
        <pt x="456" y="845" on="0"/>
        <pt x="442" y="845" on="1"/>
        <pt x="413" y="845" on="0"/>
        <pt x="380" y="876" on="0"/>
        <pt x="380" y="902" on="1"/>
        <pt x="380" y="930" on="0"/>
        <pt x="424" y="970" on="0"/>
      </contour>
    </TTGlyph>
    <TTGlyph name="Idotbelow" xMin="-72" yMin="-256" xMax="536" yMax="770">
      <contour>
        <pt x="319" y="728" on="1"/>
        <pt x="236" y="747" on="1"/>
        <pt x="246" y="770" on="1"/>
        <pt x="536" y="770" on="1"/>
        <pt x="526" y="747" on="1"/>
        <pt x="430" y="728" on="1"/>
        <pt x="145" y="42" on="1"/>
        <pt x="227" y="23" on="1"/>
        <pt x="217" y="0" on="1"/>
        <pt x="-72" y="0" on="1"/>
        <pt x="-62" y="23" on="1"/>
        <pt x="35" y="42" on="1"/>
      </contour>
      <contour>
        <pt x="17" y="-131" on="1"/>
        <pt x="43" y="-131" on="0"/>
        <pt x="81" y="-163" on="0"/>
        <pt x="81" y="-186" on="1"/>
        <pt x="81" y="-200" on="0"/>
        <pt x="68" y="-225" on="0"/>
        <pt x="47" y="-244" on="0"/>
        <pt x="20" y="-256" on="0"/>
        <pt x="6" y="-256" on="1"/>
        <pt x="-23" y="-256" on="0"/>
        <pt x="-56" y="-225" on="0"/>
        <pt x="-56" y="-199" on="1"/>
        <pt x="-56" y="-171" on="0"/>
        <pt x="-12" y="-131" on="0"/>
      </contour>
    </TTGlyph>
    <TTGlyph name="Igrave" xMin="-72" yMin="0" xMax="536" yMax="970">
      <contour>
        <pt x="319" y="728" on="1"/>
        <pt x="236" y="747" on="1"/>
        <pt x="246" y="770" on="1"/>
        <pt x="536" y="770" on="1"/>
        <pt x="526" y="747" on="1"/>
        <pt x="430" y="728" on="1"/>
        <pt x="145" y="42" on="1"/>
        <pt x="227" y="23" on="1"/>
        <pt x="217" y="0" on="1"/>
        <pt x="-72" y="0" on="1"/>
        <pt x="-62" y="23" on="1"/>
        <pt x="35" y="42" on="1"/>
      </contour>
      <contour>
        <pt x="491" y="826" on="1"/>
        <pt x="330" y="873" on="1"/>
        <pt x="293" y="884" on="0"/>
        <pt x="293" y="922" on="1"/>
        <pt x="293" y="944" on="0"/>
        <pt x="320" y="970" on="0"/>
        <pt x="343" y="970" on="1"/>
        <pt x="360" y="970" on="0"/>
        <pt x="389" y="953" on="0"/>
        <pt x="406" y="938" on="1"/>
        <pt x="510" y="847" on="1"/>
      </contour>
    </TTGlyph>
    <TTGlyph name="Imacron" xMin="-72" yMin="0" xMax="604" yMax="952">
      <contour>
        <pt x="319" y="728" on="1"/>
        <pt x="236" y="747" on="1"/>
        <pt x="246" y="770" on="1"/>
        <pt x="536" y="770" on="1"/>
        <pt x="526" y="747" on="1"/>
        <pt x="430" y="728" on="1"/>
        <pt x="145" y="42" on="1"/>
        <pt x="227" y="23" on="1"/>
        <pt x="217" y="0" on="1"/>
        <pt x="-72" y="0" on="1"/>
        <pt x="-62" y="23" on="1"/>
        <pt x="35" y="42" on="1"/>
      </contour>
      <contour>
        <pt x="289" y="881" on="1"/>
        <pt x="317" y="952" on="1"/>
        <pt x="604" y="952" on="1"/>
        <pt x="575" y="881" on="1"/>
      </contour>
    </TTGlyph>
    <TTGlyph name="Iogonek" xMin="-130" yMin="-256" xMax="536" yMax="770">
      <contour>
        <pt x="74" y="-198" on="1"/>
        <pt x="5" y="-256" on="0"/>
        <pt x="-63" y="-256" on="1"/>
        <pt x="-130" y="-256" on="0"/>
        <pt x="-130" y="-204" on="1"/>
        <pt x="-130" y="-159" on="0"/>
        <pt x="-28" y="-51" on="0"/>
        <pt x="60" y="0" on="1"/>
        <pt x="-72" y="0" on="1"/>
        <pt x="-62" y="23" on="1"/>
        <pt x="35" y="42" on="1"/>
        <pt x="319" y="728" on="1"/>
        <pt x="236" y="747" on="1"/>
        <pt x="246" y="770" on="1"/>
        <pt x="536" y="770" on="1"/>
        <pt x="526" y="747" on="1"/>
        <pt x="430" y="728" on="1"/>
        <pt x="145" y="42" on="1"/>
        <pt x="227" y="23" on="1"/>
        <pt x="217" y="0" on="1"/>
        <pt x="104" y="0" on="1"/>
        <pt x="38" y="-52" on="0"/>
        <pt x="-33" y="-142" on="0"/>
        <pt x="-33" y="-172" on="1"/>
        <pt x="-33" y="-201" on="0"/>
        <pt x="4" y="-201" on="1"/>
        <pt x="18" y="-201" on="0"/>
        <pt x="46" y="-192" on="0"/>
        <pt x="69" y="-180" on="1"/>
      </contour>
    </TTGlyph>
    <TTGlyph name="Itilde" xMin="-72" yMin="0" xMax="622" yMax="970">
      <contour>
        <pt x="319" y="728" on="1"/>
        <pt x="236" y="747" on="1"/>
        <pt x="246" y="770" on="1"/>
        <pt x="536" y="770" on="1"/>
        <pt x="526" y="747" on="1"/>
        <pt x="430" y="728" on="1"/>
        <pt x="145" y="42" on="1"/>
        <pt x="227" y="23" on="1"/>
        <pt x="217" y="0" on="1"/>
        <pt x="-72" y="0" on="1"/>
        <pt x="-62" y="23" on="1"/>
        <pt x="35" y="42" on="1"/>
      </contour>
      <contour>
        <pt x="279" y="853" on="1"/>
        <pt x="293" y="904" on="0"/>
        <pt x="361" y="967" on="0"/>
        <pt x="398" y="967" on="1"/>
        <pt x="415" y="967" on="0"/>
        <pt x="450" y="956" on="0"/>
        <pt x="485" y="943" on="0"/>
        <pt x="519" y="932" on="0"/>
        <pt x="536" y="932" on="1"/>
        <pt x="578" y="932" on="0"/>
        <pt x="598" y="970" on="1"/>
        <pt x="622" y="970" on="1"/>
        <pt x="605" y="918" on="0"/>
        <pt x="536" y="852" on="0"/>
        <pt x="499" y="852" on="1"/>
        <pt x="481" y="852" on="0"/>
        <pt x="448" y="864" on="0"/>
        <pt x="414" y="879" on="0"/>
        <pt x="381" y="891" on="0"/>
        <pt x="363" y="891" on="1"/>
        <pt x="317" y="891" on="0"/>
        <pt x="300" y="853" on="1"/>
      </contour>
    </TTGlyph>
    <TTGlyph name="J" xMin="-276" yMin="-256" xMax="535" yMax="770">
      <contour>
        <pt x="115" y="-27" on="1"/>
        <pt x="93" y="-80" on="0"/>
        <pt x="33" y="-165" on="0"/>
        <pt x="-38" y="-224" on="0"/>
        <pt x="-116" y="-256" on="0"/>
        <pt x="-157" y="-256" on="1"/>
        <pt x="-212" y="-256" on="0"/>
        <pt x="-276" y="-209" on="0"/>
        <pt x="-276" y="-177" on="1"/>
        <pt x="-276" y="-153" on="0"/>
        <pt x="-245" y="-127" on="0"/>
        <pt x="-225" y="-127" on="1"/>
        <pt x="-201" y="-127" on="0"/>
        <pt x="-181" y="-155" on="0"/>
        <pt x="-168" y="-188" on="0"/>
        <pt x="-151" y="-216" on="0"/>
        <pt x="-128" y="-216" on="1"/>
        <pt x="-112" y="-216" on="0"/>
        <pt x="-84" y="-198" on="0"/>
        <pt x="-54" y="-154" on="0"/>
        <pt x="-20" y="-81" on="0"/>
        <pt x="3" y="-27" on="1"/>
        <pt x="318" y="728" on="1"/>
        <pt x="235" y="747" on="1"/>
        <pt x="245" y="770" on="1"/>
        <pt x="535" y="770" on="1"/>
        <pt x="525" y="747" on="1"/>
        <pt x="429" y="728" on="1"/>
      </contour>
    </TTGlyph>
    <TTGlyph name="Jcircumflex" xMin="-276" yMin="-256" xMax="555" yMax="970">
      <contour>
        <pt x="115" y="-27" on="1"/>
        <pt x="93" y="-80" on="0"/>
        <pt x="33" y="-165" on="0"/>
        <pt x="-38" y="-224" on="0"/>
        <pt x="-116" y="-256" on="0"/>
        <pt x="-157" y="-256" on="1"/>
        <pt x="-212" y="-256" on="0"/>
        <pt x="-276" y="-209" on="0"/>
        <pt x="-276" y="-177" on="1"/>
        <pt x="-276" y="-153" on="0"/>
        <pt x="-245" y="-127" on="0"/>
        <pt x="-225" y="-127" on="1"/>
        <pt x="-201" y="-127" on="0"/>
        <pt x="-181" y="-155" on="0"/>
        <pt x="-168" y="-188" on="0"/>
        <pt x="-151" y="-216" on="0"/>
        <pt x="-128" y="-216" on="1"/>
        <pt x="-112" y="-216" on="0"/>
        <pt x="-84" y="-198" on="0"/>
        <pt x="-54" y="-154" on="0"/>
        <pt x="-20" y="-81" on="0"/>
        <pt x="3" y="-27" on="1"/>
        <pt x="318" y="728" on="1"/>
        <pt x="235" y="747" on="1"/>
        <pt x="245" y="770" on="1"/>
        <pt x="535" y="770" on="1"/>
        <pt x="525" y="747" on="1"/>
        <pt x="429" y="728" on="1"/>
      </contour>
      <contour>
        <pt x="457" y="970" on="1"/>
        <pt x="474" y="970" on="0"/>
        <pt x="493" y="957" on="0"/>
        <pt x="501" y="943" on="1"/>
        <pt x="555" y="847" on="1"/>
        <pt x="529" y="830" on="1"/>
        <pt x="438" y="898" on="1"/>
        <pt x="273" y="830" on="1"/>
        <pt x="261" y="847" on="1"/>
        <pt x="393" y="943" on="1"/>
        <pt x="411" y="956" on="0"/>
        <pt x="438" y="970" on="0"/>
      </contour>
    </TTGlyph>
    <TTGlyph name="K" xMin="-64" yMin="0" xMax="854" yMax="770">
      <contour>
        <pt x="429" y="729" on="1"/>
        <pt x="295" y="407" on="1"/>
        <pt x="610" y="655" on="1"/>
        <pt x="655" y="691" on="0"/>
        <pt x="655" y="710" on="1"/>
        <pt x="655" y="725" on="0"/>
        <pt x="622" y="745" on="0"/>
        <pt x="586" y="747" on="1"/>
        <pt x="595" y="770" on="1"/>
        <pt x="854" y="770" on="1"/>
        <pt x="840" y="742" on="1"/>
        <pt x="818" y="740" on="0"/>
        <pt x="783" y="733" on="0"/>
        <pt x="753" y="721" on="0"/>
        <pt x="723" y="702" on="0"/>
        <pt x="707" y="689" on="1"/>
        <pt x="417" y="458" on="1"/>
        <pt x="574" y="42" on="1"/>
        <pt x="662" y="23" on="1"/>
        <pt x="655" y="0" on="1"/>
        <pt x="474" y="0" on="1"/>
        <pt x="335" y="392" on="1"/>
        <pt x="266" y="338" on="1"/>
        <pt x="143" y="42" on="1"/>
        <pt x="262" y="23" on="1"/>
        <pt x="252" y="0" on="1"/>
        <pt x="-64" y="0" on="1"/>
        <pt x="-55" y="23" on="1"/>
        <pt x="33" y="42" on="1"/>
        <pt x="319" y="728" on="1"/>
        <pt x="241" y="747" on="1"/>
        <pt x="250" y="770" on="1"/>
        <pt x="520" y="770" on="1"/>
        <pt x="510" y="747" on="1"/>
      </contour>
    </TTGlyph>
    <TTGlyph name="Kcommaaccent" xMin="-64" yMin="-247" xMax="854" yMax="770">
      <contour>
        <pt x="429" y="729" on="1"/>
        <pt x="295" y="407" on="1"/>
        <pt x="610" y="655" on="1"/>
        <pt x="655" y="691" on="0"/>
        <pt x="655" y="710" on="1"/>
        <pt x="655" y="725" on="0"/>
        <pt x="622" y="745" on="0"/>
        <pt x="586" y="747" on="1"/>
        <pt x="595" y="770" on="1"/>
        <pt x="854" y="770" on="1"/>
        <pt x="840" y="742" on="1"/>
        <pt x="818" y="740" on="0"/>
        <pt x="783" y="733" on="0"/>
        <pt x="753" y="721" on="0"/>
        <pt x="723" y="702" on="0"/>
        <pt x="707" y="689" on="1"/>
        <pt x="417" y="458" on="1"/>
        <pt x="574" y="42" on="1"/>
        <pt x="662" y="23" on="1"/>
        <pt x="655" y="0" on="1"/>
        <pt x="474" y="0" on="1"/>
        <pt x="335" y="392" on="1"/>
        <pt x="266" y="338" on="1"/>
        <pt x="143" y="42" on="1"/>
        <pt x="262" y="23" on="1"/>
        <pt x="252" y="0" on="1"/>
        <pt x="-64" y="0" on="1"/>
        <pt x="-55" y="23" on="1"/>
        <pt x="33" y="42" on="1"/>
        <pt x="319" y="728" on="1"/>
        <pt x="241" y="747" on="1"/>
        <pt x="250" y="770" on="1"/>
        <pt x="520" y="770" on="1"/>
        <pt x="510" y="747" on="1"/>
      </contour>
      <contour>
        <pt x="283" y="-149" on="1"/>
        <pt x="254" y="-141" on="0"/>
        <pt x="254" y="-105" on="1"/>
        <pt x="254" y="-77" on="0"/>
        <pt x="286" y="-44" on="0"/>
        <pt x="320" y="-44" on="1"/>
        <pt x="370" y="-44" on="0"/>
        <pt x="370" y="-100" on="1"/>
        <pt x="370" y="-138" on="0"/>
        <pt x="306" y="-215" on="0"/>
        <pt x="247" y="-247" on="1"/>
        <pt x="232" y="-228" on="1"/>
        <pt x="263" y="-213" on="0"/>
        <pt x="306" y="-173" on="0"/>
        <pt x="306" y="-161" on="1"/>
        <pt x="306" y="-156" on="0"/>
        <pt x="297" y="-152" on="0"/>
      </contour>
    </TTGlyph>
    <TTGlyph name="L" xMin="-68" yMin="0" xMax="637" yMax="770">
      <contour>
        <pt x="-68" y="0" on="1"/>
        <pt x="-58" y="23" on="1"/>
        <pt x="34" y="42" on="1"/>
        <pt x="318" y="728" on="1"/>
        <pt x="240" y="747" on="1"/>
        <pt x="250" y="770" on="1"/>
        <pt x="536" y="770" on="1"/>
        <pt x="526" y="747" on="1"/>
        <pt x="425" y="725" on="1"/>
        <pt x="143" y="40" on="1"/>
        <pt x="461" y="40" on="1"/>
        <pt x="502" y="88" on="0"/>
        <pt x="574" y="194" on="0"/>
        <pt x="603" y="242" on="1"/>
        <pt x="637" y="242" on="1"/>
        <pt x="541" y="0" on="1"/>
      </contour>
    </TTGlyph>
    <TTGlyph name="Lacute" xMin="-68" yMin="0" xMax="637" yMax="970">
      <contour>
        <pt x="-68" y="0" on="1"/>
        <pt x="-58" y="23" on="1"/>
        <pt x="34" y="42" on="1"/>
        <pt x="318" y="728" on="1"/>
        <pt x="240" y="747" on="1"/>
        <pt x="250" y="770" on="1"/>
        <pt x="536" y="770" on="1"/>
        <pt x="526" y="747" on="1"/>
        <pt x="425" y="725" on="1"/>
        <pt x="143" y="40" on="1"/>
        <pt x="461" y="40" on="1"/>
        <pt x="502" y="88" on="0"/>
        <pt x="574" y="194" on="0"/>
        <pt x="603" y="242" on="1"/>
        <pt x="637" y="242" on="1"/>
        <pt x="541" y="0" on="1"/>
      </contour>
      <contour>
        <pt x="350" y="847" on="1"/>
        <pt x="494" y="954" on="1"/>
        <pt x="516" y="970" on="0"/>
        <pt x="538" y="970" on="1"/>
        <pt x="555" y="970" on="0"/>
        <pt x="581" y="946" on="0"/>
        <pt x="581" y="927" on="1"/>
        <pt x="581" y="910" on="0"/>
        <pt x="552" y="881" on="0"/>
        <pt x="513" y="870" on="1"/>
        <pt x="361" y="826" on="1"/>
      </contour>
    </TTGlyph>
    <TTGlyph name="Lcaron" xMin="-68" yMin="0" xMax="637" yMax="970">
      <contour>
        <pt x="-68" y="0" on="1"/>
        <pt x="-58" y="23" on="1"/>
        <pt x="34" y="42" on="1"/>
        <pt x="318" y="728" on="1"/>
        <pt x="240" y="747" on="1"/>
        <pt x="250" y="770" on="1"/>
        <pt x="536" y="770" on="1"/>
        <pt x="526" y="747" on="1"/>
        <pt x="425" y="725" on="1"/>
        <pt x="143" y="40" on="1"/>
        <pt x="461" y="40" on="1"/>
        <pt x="502" y="88" on="0"/>
        <pt x="574" y="194" on="0"/>
        <pt x="603" y="242" on="1"/>
        <pt x="637" y="242" on="1"/>
        <pt x="541" y="0" on="1"/>
      </contour>
      <contour>
        <pt x="426" y="830" on="1"/>
        <pt x="409" y="830" on="0"/>
        <pt x="390" y="843" on="0"/>
        <pt x="382" y="857" on="1"/>
        <pt x="328" y="953" on="1"/>
        <pt x="354" y="970" on="1"/>
        <pt x="445" y="902" on="1"/>
        <pt x="610" y="970" on="1"/>
        <pt x="622" y="953" on="1"/>
        <pt x="490" y="857" on="1"/>
        <pt x="472" y="844" on="0"/>
        <pt x="445" y="830" on="0"/>
      </contour>
    </TTGlyph>
    <TTGlyph name="Lcommaaccent" xMin="-68" yMin="-247" xMax="637" yMax="770">
      <contour>
        <pt x="-68" y="0" on="1"/>
        <pt x="-58" y="23" on="1"/>
        <pt x="34" y="42" on="1"/>
        <pt x="318" y="728" on="1"/>
        <pt x="240" y="747" on="1"/>
        <pt x="250" y="770" on="1"/>
        <pt x="536" y="770" on="1"/>
        <pt x="526" y="747" on="1"/>
        <pt x="425" y="725" on="1"/>
        <pt x="143" y="40" on="1"/>
        <pt x="461" y="40" on="1"/>
        <pt x="502" y="88" on="0"/>
        <pt x="574" y="194" on="0"/>
        <pt x="603" y="242" on="1"/>
        <pt x="637" y="242" on="1"/>
        <pt x="541" y="0" on="1"/>
      </contour>
      <contour>
        <pt x="221" y="-149" on="1"/>
        <pt x="192" y="-141" on="0"/>
        <pt x="192" y="-105" on="1"/>
        <pt x="192" y="-77" on="0"/>
        <pt x="224" y="-44" on="0"/>
        <pt x="258" y="-44" on="1"/>
        <pt x="308" y="-44" on="0"/>
        <pt x="308" y="-100" on="1"/>
        <pt x="308" y="-138" on="0"/>
        <pt x="244" y="-215" on="0"/>
        <pt x="185" y="-247" on="1"/>
        <pt x="170" y="-228" on="1"/>
        <pt x="201" y="-213" on="0"/>
        <pt x="244" y="-173" on="0"/>
        <pt x="244" y="-161" on="1"/>
        <pt x="244" y="-156" on="0"/>
        <pt x="235" y="-152" on="0"/>
      </contour>
    </TTGlyph>
    <TTGlyph name="Ldot" xMin="-68" yMin="0" xMax="637" yMax="770">
      <contour>
        <pt x="-68" y="0" on="1"/>
        <pt x="-58" y="23" on="1"/>
        <pt x="34" y="42" on="1"/>
        <pt x="318" y="728" on="1"/>
        <pt x="240" y="747" on="1"/>
        <pt x="250" y="770" on="1"/>
        <pt x="536" y="770" on="1"/>
        <pt x="526" y="747" on="1"/>
        <pt x="425" y="725" on="1"/>
        <pt x="143" y="40" on="1"/>
        <pt x="461" y="40" on="1"/>
        <pt x="502" y="88" on="0"/>
        <pt x="574" y="194" on="0"/>
        <pt x="603" y="242" on="1"/>
        <pt x="637" y="242" on="1"/>
        <pt x="541" y="0" on="1"/>
      </contour>
      <contour>
        <pt x="462" y="425" on="1"/>
        <pt x="488" y="425" on="0"/>
        <pt x="526" y="393" on="0"/>
        <pt x="526" y="370" on="1"/>
        <pt x="526" y="356" on="0"/>
        <pt x="513" y="331" on="0"/>
        <pt x="492" y="312" on="0"/>
        <pt x="465" y="300" on="0"/>
        <pt x="451" y="300" on="1"/>
        <pt x="422" y="300" on="0"/>
        <pt x="389" y="331" on="0"/>
        <pt x="389" y="357" on="1"/>
        <pt x="389" y="385" on="0"/>
        <pt x="433" y="425" on="0"/>
      </contour>
    </TTGlyph>
    <TTGlyph name="Lslash" xMin="-66" yMin="0" xMax="639" yMax="770">
      <contour>
        <pt x="-66" y="0" on="1"/>
        <pt x="-56" y="23" on="1"/>
        <pt x="36" y="42" on="1"/>
        <pt x="154" y="326" on="1"/>
        <pt x="43" y="274" on="1"/>
        <pt x="43" y="322" on="1"/>
        <pt x="179" y="386" on="1"/>
        <pt x="320" y="728" on="1"/>
        <pt x="242" y="747" on="1"/>
        <pt x="252" y="770" on="1"/>
        <pt x="538" y="770" on="1"/>
        <pt x="528" y="747" on="1"/>
        <pt x="427" y="725" on="1"/>
        <pt x="314" y="450" on="1"/>
        <pt x="439" y="510" on="1"/>
        <pt x="437" y="461" on="1"/>
        <pt x="289" y="391" on="1"/>
        <pt x="145" y="40" on="1"/>
        <pt x="463" y="40" on="1"/>
        <pt x="504" y="88" on="0"/>
        <pt x="576" y="194" on="0"/>
        <pt x="605" y="242" on="1"/>
        <pt x="639" y="242" on="1"/>
        <pt x="543" y="0" on="1"/>
      </contour>
    </TTGlyph>
    <TTGlyph name="M" xMin="-100" yMin="-10" xMax="1138" yMax="770">
      <contour>
        <pt x="-90" y="23" on="1"/>
        <pt x="7" y="42" on="1"/>
        <pt x="358" y="728" on="1"/>
        <pt x="268" y="747" on="1"/>
        <pt x="277" y="770" on="1"/>
        <pt x="511" y="770" on="1"/>
        <pt x="439" y="169" on="1"/>
        <pt x="443" y="169" on="1"/>
        <pt x="904" y="770" on="1"/>
        <pt x="1138" y="770" on="1"/>
        <pt x="1129" y="747" on="1"/>
        <pt x="1032" y="728" on="1"/>
        <pt x="747" y="42" on="1"/>
        <pt x="829" y="23" on="1"/>
        <pt x="819" y="0" on="1"/>
        <pt x="535" y="0" on="1"/>
        <pt x="545" y="23" on="1"/>
        <pt x="642" y="42" on="1"/>
        <pt x="921" y="710" on="1"/>
        <pt x="917" y="710" on="1"/>
        <pt x="359" y="-10" on="1"/>
        <pt x="306" y="-10" on="1"/>
        <pt x="393" y="690" on="1"/>
        <pt x="389" y="690" on="1"/>
        <pt x="55" y="42" on="1"/>
        <pt x="137" y="23" on="1"/>
        <pt x="127" y="0" on="1"/>
        <pt x="-100" y="0" on="1"/>
      </contour>
    </TTGlyph>
    <TTGlyph name="N" xMin="-75" yMin="-10" xMax="969" yMax="770">
      <contour>
        <pt x="353" y="690" on="1"/>
        <pt x="349" y="690" on="1"/>
        <pt x="80" y="42" on="1"/>
        <pt x="162" y="23" on="1"/>
        <pt x="152" y="0" on="1"/>
        <pt x="-75" y="0" on="1"/>
        <pt x="-65" y="23" on="1"/>
        <pt x="32" y="42" on="1"/>
        <pt x="316" y="728" on="1"/>
        <pt x="233" y="747" on="1"/>
        <pt x="243" y="770" on="1"/>
        <pt x="455" y="770" on="1"/>
        <pt x="579" y="171" on="1"/>
        <pt x="583" y="171" on="1"/>
        <pt x="814" y="728" on="1"/>
        <pt x="731" y="747" on="1"/>
        <pt x="741" y="770" on="1"/>
        <pt x="969" y="770" on="1"/>
        <pt x="959" y="747" on="1"/>
        <pt x="863" y="728" on="1"/>
        <pt x="556" y="-10" on="1"/>
        <pt x="498" y="-10" on="1"/>
      </contour>
    </TTGlyph>
    <TTGlyph name="Nacute" xMin="-75" yMin="-10" xMax="969" yMax="970">
      <contour>
        <pt x="353" y="690" on="1"/>
        <pt x="349" y="690" on="1"/>
        <pt x="80" y="42" on="1"/>
        <pt x="162" y="23" on="1"/>
        <pt x="152" y="0" on="1"/>
        <pt x="-75" y="0" on="1"/>
        <pt x="-65" y="23" on="1"/>
        <pt x="32" y="42" on="1"/>
        <pt x="316" y="728" on="1"/>
        <pt x="233" y="747" on="1"/>
        <pt x="243" y="770" on="1"/>
        <pt x="455" y="770" on="1"/>
        <pt x="579" y="171" on="1"/>
        <pt x="583" y="171" on="1"/>
        <pt x="814" y="728" on="1"/>
        <pt x="731" y="747" on="1"/>
        <pt x="741" y="770" on="1"/>
        <pt x="969" y="770" on="1"/>
        <pt x="959" y="747" on="1"/>
        <pt x="863" y="728" on="1"/>
        <pt x="556" y="-10" on="1"/>
        <pt x="498" y="-10" on="1"/>
      </contour>
      <contour>
        <pt x="544" y="847" on="1"/>
        <pt x="688" y="954" on="1"/>
        <pt x="710" y="970" on="0"/>
        <pt x="732" y="970" on="1"/>
        <pt x="749" y="970" on="0"/>
        <pt x="775" y="946" on="0"/>
        <pt x="775" y="927" on="1"/>
        <pt x="775" y="910" on="0"/>
        <pt x="746" y="881" on="0"/>
        <pt x="707" y="870" on="1"/>
        <pt x="555" y="826" on="1"/>
      </contour>
    </TTGlyph>
    <TTGlyph name="Ncaron" xMin="-75" yMin="-10" xMax="969" yMax="970">
      <contour>
        <pt x="353" y="690" on="1"/>
        <pt x="349" y="690" on="1"/>
        <pt x="80" y="42" on="1"/>
        <pt x="162" y="23" on="1"/>
        <pt x="152" y="0" on="1"/>
        <pt x="-75" y="0" on="1"/>
        <pt x="-65" y="23" on="1"/>
        <pt x="32" y="42" on="1"/>
        <pt x="316" y="728" on="1"/>
        <pt x="233" y="747" on="1"/>
        <pt x="243" y="770" on="1"/>
        <pt x="455" y="770" on="1"/>
        <pt x="579" y="171" on="1"/>
        <pt x="583" y="171" on="1"/>
        <pt x="814" y="728" on="1"/>
        <pt x="731" y="747" on="1"/>
        <pt x="741" y="770" on="1"/>
        <pt x="969" y="770" on="1"/>
        <pt x="959" y="747" on="1"/>
        <pt x="863" y="728" on="1"/>
        <pt x="556" y="-10" on="1"/>
        <pt x="498" y="-10" on="1"/>
      </contour>
      <contour>
        <pt x="612" y="830" on="1"/>
        <pt x="595" y="830" on="0"/>
        <pt x="576" y="843" on="0"/>
        <pt x="568" y="857" on="1"/>
        <pt x="514" y="953" on="1"/>
        <pt x="540" y="970" on="1"/>
        <pt x="631" y="902" on="1"/>
        <pt x="796" y="970" on="1"/>
        <pt x="808" y="953" on="1"/>
        <pt x="676" y="857" on="1"/>
        <pt x="658" y="844" on="0"/>
        <pt x="631" y="830" on="0"/>
      </contour>
    </TTGlyph>
    <TTGlyph name="Ncommaaccent" xMin="-75" yMin="-257" xMax="969" yMax="770">
      <contour>
        <pt x="353" y="690" on="1"/>
        <pt x="349" y="690" on="1"/>
        <pt x="80" y="42" on="1"/>
        <pt x="162" y="23" on="1"/>
        <pt x="152" y="0" on="1"/>
        <pt x="-75" y="0" on="1"/>
        <pt x="-65" y="23" on="1"/>
        <pt x="32" y="42" on="1"/>
        <pt x="316" y="728" on="1"/>
        <pt x="233" y="747" on="1"/>
        <pt x="243" y="770" on="1"/>
        <pt x="455" y="770" on="1"/>
        <pt x="579" y="171" on="1"/>
        <pt x="583" y="171" on="1"/>
        <pt x="814" y="728" on="1"/>
        <pt x="731" y="747" on="1"/>
        <pt x="741" y="770" on="1"/>
        <pt x="969" y="770" on="1"/>
        <pt x="959" y="747" on="1"/>
        <pt x="863" y="728" on="1"/>
        <pt x="556" y="-10" on="1"/>
        <pt x="498" y="-10" on="1"/>
      </contour>
      <contour>
        <pt x="257" y="-159" on="1"/>
        <pt x="228" y="-151" on="0"/>
        <pt x="228" y="-115" on="1"/>
        <pt x="228" y="-87" on="0"/>
        <pt x="260" y="-54" on="0"/>
        <pt x="294" y="-54" on="1"/>
        <pt x="344" y="-54" on="0"/>
        <pt x="344" y="-110" on="1"/>
        <pt x="344" y="-148" on="0"/>
        <pt x="280" y="-225" on="0"/>
        <pt x="221" y="-257" on="1"/>
        <pt x="206" y="-238" on="1"/>
        <pt x="237" y="-223" on="0"/>
        <pt x="280" y="-183" on="0"/>
        <pt x="280" y="-171" on="1"/>
        <pt x="280" y="-166" on="0"/>
        <pt x="271" y="-162" on="0"/>
      </contour>
    </TTGlyph>
    <TTGlyph name="Ndotaccent" xMin="-75" yMin="-10" xMax="969" yMax="970">
      <contour>
        <pt x="353" y="690" on="1"/>
        <pt x="349" y="690" on="1"/>
        <pt x="80" y="42" on="1"/>
        <pt x="162" y="23" on="1"/>
        <pt x="152" y="0" on="1"/>
        <pt x="-75" y="0" on="1"/>
        <pt x="-65" y="23" on="1"/>
        <pt x="32" y="42" on="1"/>
        <pt x="316" y="728" on="1"/>
        <pt x="233" y="747" on="1"/>
        <pt x="243" y="770" on="1"/>
        <pt x="455" y="770" on="1"/>
        <pt x="579" y="171" on="1"/>
        <pt x="583" y="171" on="1"/>
        <pt x="814" y="728" on="1"/>
        <pt x="731" y="747" on="1"/>
        <pt x="741" y="770" on="1"/>
        <pt x="969" y="770" on="1"/>
        <pt x="959" y="747" on="1"/>
        <pt x="863" y="728" on="1"/>
        <pt x="556" y="-10" on="1"/>
        <pt x="498" y="-10" on="1"/>
      </contour>
      <contour>
        <pt x="650" y="970" on="1"/>
        <pt x="676" y="970" on="0"/>
        <pt x="714" y="938" on="0"/>
        <pt x="714" y="915" on="1"/>
        <pt x="714" y="901" on="0"/>
        <pt x="701" y="876" on="0"/>
        <pt x="680" y="857" on="0"/>
        <pt x="653" y="845" on="0"/>
        <pt x="639" y="845" on="1"/>
        <pt x="610" y="845" on="0"/>
        <pt x="577" y="876" on="0"/>
        <pt x="577" y="902" on="1"/>
        <pt x="577" y="930" on="0"/>
        <pt x="621" y="970" on="0"/>
      </contour>
    </TTGlyph>
    <TTGlyph name="Ntilde" xMin="-75" yMin="-10" xMax="969" yMax="970">
      <contour>
        <pt x="353" y="690" on="1"/>
        <pt x="349" y="690" on="1"/>
        <pt x="80" y="42" on="1"/>
        <pt x="162" y="23" on="1"/>
        <pt x="152" y="0" on="1"/>
        <pt x="-75" y="0" on="1"/>
        <pt x="-65" y="23" on="1"/>
        <pt x="32" y="42" on="1"/>
        <pt x="316" y="728" on="1"/>
        <pt x="233" y="747" on="1"/>
        <pt x="243" y="770" on="1"/>
        <pt x="455" y="770" on="1"/>
        <pt x="579" y="171" on="1"/>
        <pt x="583" y="171" on="1"/>
        <pt x="814" y="728" on="1"/>
        <pt x="731" y="747" on="1"/>
        <pt x="741" y="770" on="1"/>
        <pt x="969" y="770" on="1"/>
        <pt x="959" y="747" on="1"/>
        <pt x="863" y="728" on="1"/>
        <pt x="556" y="-10" on="1"/>
        <pt x="498" y="-10" on="1"/>
      </contour>
      <contour>
        <pt x="486" y="853" on="1"/>
        <pt x="500" y="904" on="0"/>
        <pt x="568" y="967" on="0"/>
        <pt x="605" y="967" on="1"/>
        <pt x="622" y="967" on="0"/>
        <pt x="657" y="956" on="0"/>
        <pt x="692" y="943" on="0"/>
        <pt x="726" y="932" on="0"/>
        <pt x="743" y="932" on="1"/>
        <pt x="785" y="932" on="0"/>
        <pt x="805" y="970" on="1"/>
        <pt x="829" y="970" on="1"/>
        <pt x="812" y="918" on="0"/>
        <pt x="743" y="852" on="0"/>
        <pt x="706" y="852" on="1"/>
        <pt x="688" y="852" on="0"/>
        <pt x="655" y="864" on="0"/>
        <pt x="621" y="879" on="0"/>
        <pt x="588" y="891" on="0"/>
        <pt x="570" y="891" on="1"/>
        <pt x="524" y="891" on="0"/>
        <pt x="507" y="853" on="1"/>
      </contour>
    </TTGlyph>
    <TTGlyph name="O" xMin="75" yMin="-10" xMax="801" yMax="780">
      <contour>
        <pt x="304" y="-10" on="1"/>
        <pt x="195" y="-10" on="0"/>
        <pt x="75" y="118" on="0"/>
        <pt x="75" y="236" on="1"/>
        <pt x="75" y="304" on="0"/>
        <pt x="114" y="437" on="0"/>
        <pt x="183" y="558" on="0"/>
        <pt x="277" y="662" on="0"/>
        <pt x="387" y="737" on="0"/>
        <pt x="509" y="780" on="0"/>
        <pt x="571" y="780" on="1"/>
        <pt x="681" y="780" on="0"/>
        <pt x="801" y="650" on="0"/>
        <pt x="801" y="531" on="1"/>
        <pt x="801" y="463" on="0"/>
        <pt x="762" y="330" on="0"/>
        <pt x="693" y="210" on="0"/>
        <pt x="599" y="107" on="0"/>
        <pt x="489" y="32" on="0"/>
        <pt x="366" y="-10" on="0"/>
      </contour>
      <contour>
        <pt x="319" y="37" on="1"/>
        <pt x="365" y="37" on="0"/>
        <pt x="455" y="79" on="0"/>
        <pt x="538" y="153" on="0"/>
        <pt x="609" y="254" on="0"/>
        <pt x="660" y="371" on="0"/>
        <pt x="690" y="500" on="0"/>
        <pt x="690" y="565" on="1"/>
        <pt x="690" y="736" on="0"/>
        <pt x="565" y="736" on="1"/>
        <pt x="519" y="736" on="0"/>
        <pt x="428" y="694" on="0"/>
        <pt x="345" y="620" on="0"/>
        <pt x="274" y="519" on="0"/>
        <pt x="221" y="402" on="0"/>
        <pt x="191" y="274" on="0"/>
        <pt x="191" y="210" on="1"/>
        <pt x="191" y="37" on="0"/>
      </contour>
    </TTGlyph>
    <TTGlyph name="OE" xMin="73" yMin="-10" xMax="1147" yMax="780">
      <contour>
        <pt x="1139" y="770" on="1"/>
        <pt x="1147" y="550" on="1"/>
        <pt x="1120" y="550" on="1"/>
        <pt x="1109" y="608" on="0"/>
        <pt x="1082" y="695" on="0"/>
        <pt x="1062" y="730" on="1"/>
        <pt x="836" y="730" on="1"/>
        <pt x="712" y="426" on="1"/>
        <pt x="880" y="426" on="1"/>
        <pt x="929" y="483" on="0"/>
        <pt x="964" y="540" on="1"/>
        <pt x="993" y="540" on="1"/>
        <pt x="880" y="266" on="1"/>
        <pt x="851" y="266" on="1"/>
        <pt x="859" y="291" on="0"/>
        <pt x="866" y="348" on="0"/>
        <pt x="868" y="386" on="1"/>
        <pt x="694" y="386" on="1"/>
        <pt x="552" y="40" on="1"/>
        <pt x="875" y="40" on="1"/>
        <pt x="913" y="85" on="0"/>
        <pt x="981" y="179" on="0"/>
        <pt x="1012" y="230" on="1"/>
        <pt x="1041" y="230" on="1"/>
        <pt x="950" y="0" on="1"/>
        <pt x="417" y="0" on="1"/>
        <pt x="370" y="-10" on="0"/>
        <pt x="321" y="-10" on="1"/>
        <pt x="203" y="-10" on="0"/>
        <pt x="73" y="120" on="0"/>
        <pt x="73" y="238" on="1"/>
        <pt x="73" y="308" on="0"/>
        <pt x="115" y="442" on="0"/>
        <pt x="189" y="562" on="0"/>
        <pt x="291" y="664" on="0"/>
        <pt x="411" y="738" on="0"/>
        <pt x="545" y="780" on="0"/>
        <pt x="615" y="780" on="1"/>
        <pt x="641" y="780" on="0"/>
        <pt x="683" y="775" on="0"/>
        <pt x="703" y="770" on="1"/>
      </contour>
      <contour>
        <pt x="583" y="736" on="1"/>
        <pt x="511" y="736" on="0"/>
        <pt x="370" y="644" on="0"/>
        <pt x="258" y="495" on="0"/>
        <pt x="189" y="308" on="0"/>
        <pt x="189" y="212" on="1"/>
        <pt x="189" y="37" on="0"/>
        <pt x="334" y="37" on="1"/>
        <pt x="391" y="37" on="0"/>
        <pt x="434" y="65" on="1"/>
        <pt x="704" y="678" on="1"/>
        <pt x="667" y="736" on="0"/>
      </contour>
    </TTGlyph>
    <TTGlyph name="Oacute" xMin="75" yMin="-10" xMax="801" yMax="970">
      <contour>
        <pt x="304" y="-10" on="1"/>
        <pt x="195" y="-10" on="0"/>
        <pt x="75" y="118" on="0"/>
        <pt x="75" y="236" on="1"/>
        <pt x="75" y="304" on="0"/>
        <pt x="114" y="437" on="0"/>
        <pt x="183" y="558" on="0"/>
        <pt x="277" y="662" on="0"/>
        <pt x="387" y="737" on="0"/>
        <pt x="509" y="780" on="0"/>
        <pt x="571" y="780" on="1"/>
        <pt x="681" y="780" on="0"/>
        <pt x="801" y="650" on="0"/>
        <pt x="801" y="531" on="1"/>
        <pt x="801" y="463" on="0"/>
        <pt x="762" y="330" on="0"/>
        <pt x="693" y="210" on="0"/>
        <pt x="599" y="107" on="0"/>
        <pt x="489" y="32" on="0"/>
        <pt x="366" y="-10" on="0"/>
      </contour>
      <contour>
        <pt x="319" y="37" on="1"/>
        <pt x="365" y="37" on="0"/>
        <pt x="455" y="79" on="0"/>
        <pt x="538" y="153" on="0"/>
        <pt x="609" y="254" on="0"/>
        <pt x="660" y="371" on="0"/>
        <pt x="690" y="500" on="0"/>
        <pt x="690" y="565" on="1"/>
        <pt x="690" y="736" on="0"/>
        <pt x="565" y="736" on="1"/>
        <pt x="519" y="736" on="0"/>
        <pt x="428" y="694" on="0"/>
        <pt x="345" y="620" on="0"/>
        <pt x="274" y="519" on="0"/>
        <pt x="221" y="402" on="0"/>
        <pt x="191" y="274" on="0"/>
        <pt x="191" y="210" on="1"/>
        <pt x="191" y="37" on="0"/>
      </contour>
      <contour>
        <pt x="555" y="847" on="1"/>
        <pt x="699" y="954" on="1"/>
        <pt x="721" y="970" on="0"/>
        <pt x="743" y="970" on="1"/>
        <pt x="760" y="970" on="0"/>
        <pt x="786" y="946" on="0"/>
        <pt x="786" y="927" on="1"/>
        <pt x="786" y="910" on="0"/>
        <pt x="757" y="881" on="0"/>
        <pt x="718" y="870" on="1"/>
        <pt x="566" y="826" on="1"/>
      </contour>
    </TTGlyph>
    <TTGlyph name="Obreve" xMin="75" yMin="-10" xMax="851" yMax="970">
      <contour>
        <pt x="304" y="-10" on="1"/>
        <pt x="195" y="-10" on="0"/>
        <pt x="75" y="118" on="0"/>
        <pt x="75" y="236" on="1"/>
        <pt x="75" y="304" on="0"/>
        <pt x="114" y="437" on="0"/>
        <pt x="183" y="558" on="0"/>
        <pt x="277" y="662" on="0"/>
        <pt x="387" y="737" on="0"/>
        <pt x="509" y="780" on="0"/>
        <pt x="571" y="780" on="1"/>
        <pt x="681" y="780" on="0"/>
        <pt x="801" y="650" on="0"/>
        <pt x="801" y="531" on="1"/>
        <pt x="801" y="463" on="0"/>
        <pt x="762" y="330" on="0"/>
        <pt x="693" y="210" on="0"/>
        <pt x="599" y="107" on="0"/>
        <pt x="489" y="32" on="0"/>
        <pt x="366" y="-10" on="0"/>
      </contour>
      <contour>
        <pt x="319" y="37" on="1"/>
        <pt x="365" y="37" on="0"/>
        <pt x="455" y="79" on="0"/>
        <pt x="538" y="153" on="0"/>
        <pt x="609" y="254" on="0"/>
        <pt x="660" y="371" on="0"/>
        <pt x="690" y="500" on="0"/>
        <pt x="690" y="565" on="1"/>
        <pt x="690" y="736" on="0"/>
        <pt x="565" y="736" on="1"/>
        <pt x="519" y="736" on="0"/>
        <pt x="428" y="694" on="0"/>
        <pt x="345" y="620" on="0"/>
        <pt x="274" y="519" on="0"/>
        <pt x="221" y="402" on="0"/>
        <pt x="191" y="274" on="0"/>
        <pt x="191" y="210" on="1"/>
        <pt x="191" y="37" on="0"/>
      </contour>
      <contour>
        <pt x="602" y="970" on="1"/>
        <pt x="603" y="939" on="0"/>
        <pt x="642" y="905" on="0"/>
        <pt x="681" y="905" on="1"/>
        <pt x="714" y="905" on="0"/>
        <pt x="779" y="935" on="0"/>
        <pt x="811" y="970" on="1"/>
        <pt x="851" y="970" on="1"/>
        <pt x="820" y="923" on="0"/>
        <pt x="760" y="868" on="0"/>
        <pt x="708" y="840" on="0"/>
        <pt x="663" y="831" on="0"/>
        <pt x="647" y="831" on="1"/>
        <pt x="630" y="831" on="0"/>
        <pt x="597" y="840" on="0"/>
        <pt x="572" y="859" on="0"/>
        <pt x="557" y="891" on="0"/>
        <pt x="557" y="914" on="1"/>
        <pt x="557" y="939" on="0"/>
        <pt x="567" y="970" on="1"/>
      </contour>
    </TTGlyph>
    <TTGlyph name="Ocircumflex" xMin="75" yMin="-10" xMax="801" yMax="970">
      <contour>
        <pt x="304" y="-10" on="1"/>
        <pt x="195" y="-10" on="0"/>
        <pt x="75" y="118" on="0"/>
        <pt x="75" y="236" on="1"/>
        <pt x="75" y="304" on="0"/>
        <pt x="114" y="437" on="0"/>
        <pt x="183" y="558" on="0"/>
        <pt x="277" y="662" on="0"/>
        <pt x="387" y="737" on="0"/>
        <pt x="509" y="780" on="0"/>
        <pt x="571" y="780" on="1"/>
        <pt x="681" y="780" on="0"/>
        <pt x="801" y="650" on="0"/>
        <pt x="801" y="531" on="1"/>
        <pt x="801" y="463" on="0"/>
        <pt x="762" y="330" on="0"/>
        <pt x="693" y="210" on="0"/>
        <pt x="599" y="107" on="0"/>
        <pt x="489" y="32" on="0"/>
        <pt x="366" y="-10" on="0"/>
      </contour>
      <contour>
        <pt x="319" y="37" on="1"/>
        <pt x="365" y="37" on="0"/>
        <pt x="455" y="79" on="0"/>
        <pt x="538" y="153" on="0"/>
        <pt x="609" y="254" on="0"/>
        <pt x="660" y="371" on="0"/>
        <pt x="690" y="500" on="0"/>
        <pt x="690" y="565" on="1"/>
        <pt x="690" y="736" on="0"/>
        <pt x="565" y="736" on="1"/>
        <pt x="519" y="736" on="0"/>
        <pt x="428" y="694" on="0"/>
        <pt x="345" y="620" on="0"/>
        <pt x="274" y="519" on="0"/>
        <pt x="221" y="402" on="0"/>
        <pt x="191" y="274" on="0"/>
        <pt x="191" y="210" on="1"/>
        <pt x="191" y="37" on="0"/>
      </contour>
      <contour>
        <pt x="671" y="970" on="1"/>
        <pt x="688" y="970" on="0"/>
        <pt x="707" y="957" on="0"/>
        <pt x="715" y="943" on="1"/>
        <pt x="769" y="847" on="1"/>
        <pt x="743" y="830" on="1"/>
        <pt x="652" y="898" on="1"/>
        <pt x="487" y="830" on="1"/>
        <pt x="475" y="847" on="1"/>
        <pt x="607" y="943" on="1"/>
        <pt x="625" y="956" on="0"/>
        <pt x="652" y="970" on="0"/>
      </contour>
    </TTGlyph>
    <TTGlyph name="Odieresis" xMin="75" yMin="-10" xMax="806" yMax="970">
      <contour>
        <pt x="304" y="-10" on="1"/>
        <pt x="195" y="-10" on="0"/>
        <pt x="75" y="118" on="0"/>
        <pt x="75" y="236" on="1"/>
        <pt x="75" y="304" on="0"/>
        <pt x="114" y="437" on="0"/>
        <pt x="183" y="558" on="0"/>
        <pt x="277" y="662" on="0"/>
        <pt x="387" y="737" on="0"/>
        <pt x="509" y="780" on="0"/>
        <pt x="571" y="780" on="1"/>
        <pt x="681" y="780" on="0"/>
        <pt x="801" y="650" on="0"/>
        <pt x="801" y="531" on="1"/>
        <pt x="801" y="463" on="0"/>
        <pt x="762" y="330" on="0"/>
        <pt x="693" y="210" on="0"/>
        <pt x="599" y="107" on="0"/>
        <pt x="489" y="32" on="0"/>
        <pt x="366" y="-10" on="0"/>
      </contour>
      <contour>
        <pt x="319" y="37" on="1"/>
        <pt x="365" y="37" on="0"/>
        <pt x="455" y="79" on="0"/>
        <pt x="538" y="153" on="0"/>
        <pt x="609" y="254" on="0"/>
        <pt x="660" y="371" on="0"/>
        <pt x="690" y="500" on="0"/>
        <pt x="690" y="565" on="1"/>
        <pt x="690" y="736" on="0"/>
        <pt x="565" y="736" on="1"/>
        <pt x="519" y="736" on="0"/>
        <pt x="428" y="694" on="0"/>
        <pt x="345" y="620" on="0"/>
        <pt x="274" y="519" on="0"/>
        <pt x="221" y="402" on="0"/>
        <pt x="191" y="274" on="0"/>
        <pt x="191" y="210" on="1"/>
        <pt x="191" y="37" on="0"/>
      </contour>
      <contour>
        <pt x="574" y="970" on="1"/>
        <pt x="597" y="970" on="0"/>
        <pt x="631" y="942" on="0"/>
        <pt x="631" y="921" on="1"/>
        <pt x="631" y="909" on="0"/>
        <pt x="620" y="887" on="0"/>
        <pt x="601" y="869" on="0"/>
        <pt x="577" y="859" on="0"/>
        <pt x="564" y="859" on="1"/>
        <pt x="538" y="859" on="0"/>
        <pt x="509" y="887" on="0"/>
        <pt x="509" y="910" on="1"/>
        <pt x="509" y="934" on="0"/>
        <pt x="548" y="970" on="0"/>
      </contour>
      <contour>
        <pt x="749" y="970" on="1"/>
        <pt x="772" y="970" on="0"/>
        <pt x="806" y="942" on="0"/>
        <pt x="806" y="921" on="1"/>
        <pt x="806" y="909" on="0"/>
        <pt x="795" y="887" on="0"/>
        <pt x="776" y="869" on="0"/>
        <pt x="752" y="859" on="0"/>
        <pt x="739" y="859" on="1"/>
        <pt x="713" y="859" on="0"/>
        <pt x="684" y="887" on="0"/>
        <pt x="684" y="910" on="1"/>
        <pt x="684" y="934" on="0"/>
        <pt x="723" y="970" on="0"/>
      </contour>
    </TTGlyph>
    <TTGlyph name="Odotbelow" xMin="75" yMin="-256" xMax="801" yMax="780">
      <contour>
        <pt x="304" y="-10" on="1"/>
        <pt x="195" y="-10" on="0"/>
        <pt x="75" y="118" on="0"/>
        <pt x="75" y="236" on="1"/>
        <pt x="75" y="304" on="0"/>
        <pt x="114" y="437" on="0"/>
        <pt x="183" y="558" on="0"/>
        <pt x="277" y="662" on="0"/>
        <pt x="387" y="737" on="0"/>
        <pt x="509" y="780" on="0"/>
        <pt x="571" y="780" on="1"/>
        <pt x="681" y="780" on="0"/>
        <pt x="801" y="650" on="0"/>
        <pt x="801" y="531" on="1"/>
        <pt x="801" y="463" on="0"/>
        <pt x="762" y="330" on="0"/>
        <pt x="693" y="210" on="0"/>
        <pt x="599" y="107" on="0"/>
        <pt x="489" y="32" on="0"/>
        <pt x="366" y="-10" on="0"/>
      </contour>
      <contour>
        <pt x="319" y="37" on="1"/>
        <pt x="365" y="37" on="0"/>
        <pt x="455" y="79" on="0"/>
        <pt x="538" y="153" on="0"/>
        <pt x="609" y="254" on="0"/>
        <pt x="660" y="371" on="0"/>
        <pt x="690" y="500" on="0"/>
        <pt x="690" y="565" on="1"/>
        <pt x="690" y="736" on="0"/>
        <pt x="565" y="736" on="1"/>
        <pt x="519" y="736" on="0"/>
        <pt x="428" y="694" on="0"/>
        <pt x="345" y="620" on="0"/>
        <pt x="274" y="519" on="0"/>
        <pt x="221" y="402" on="0"/>
        <pt x="191" y="274" on="0"/>
        <pt x="191" y="210" on="1"/>
        <pt x="191" y="37" on="0"/>
      </contour>
      <contour>
        <pt x="228" y="-131" on="1"/>
        <pt x="254" y="-131" on="0"/>
        <pt x="292" y="-163" on="0"/>
        <pt x="292" y="-186" on="1"/>
        <pt x="292" y="-200" on="0"/>
        <pt x="279" y="-225" on="0"/>
        <pt x="258" y="-244" on="0"/>
        <pt x="231" y="-256" on="0"/>
        <pt x="217" y="-256" on="1"/>
        <pt x="188" y="-256" on="0"/>
        <pt x="155" y="-225" on="0"/>
        <pt x="155" y="-199" on="1"/>
        <pt x="155" y="-171" on="0"/>
        <pt x="199" y="-131" on="0"/>
      </contour>
    </TTGlyph>
    <TTGlyph name="Ograve" xMin="75" yMin="-10" xMax="801" yMax="970">
      <contour>
        <pt x="304" y="-10" on="1"/>
        <pt x="195" y="-10" on="0"/>
        <pt x="75" y="118" on="0"/>
        <pt x="75" y="236" on="1"/>
        <pt x="75" y="304" on="0"/>
        <pt x="114" y="437" on="0"/>
        <pt x="183" y="558" on="0"/>
        <pt x="277" y="662" on="0"/>
        <pt x="387" y="737" on="0"/>
        <pt x="509" y="780" on="0"/>
        <pt x="571" y="780" on="1"/>
        <pt x="681" y="780" on="0"/>
        <pt x="801" y="650" on="0"/>
        <pt x="801" y="531" on="1"/>
        <pt x="801" y="463" on="0"/>
        <pt x="762" y="330" on="0"/>
        <pt x="693" y="210" on="0"/>
        <pt x="599" y="107" on="0"/>
        <pt x="489" y="32" on="0"/>
        <pt x="366" y="-10" on="0"/>
      </contour>
      <contour>
        <pt x="319" y="37" on="1"/>
        <pt x="365" y="37" on="0"/>
        <pt x="455" y="79" on="0"/>
        <pt x="538" y="153" on="0"/>
        <pt x="609" y="254" on="0"/>
        <pt x="660" y="371" on="0"/>
        <pt x="690" y="500" on="0"/>
        <pt x="690" y="565" on="1"/>
        <pt x="690" y="736" on="0"/>
        <pt x="565" y="736" on="1"/>
        <pt x="519" y="736" on="0"/>
        <pt x="428" y="694" on="0"/>
        <pt x="345" y="620" on="0"/>
        <pt x="274" y="519" on="0"/>
        <pt x="221" y="402" on="0"/>
        <pt x="191" y="274" on="0"/>
        <pt x="191" y="210" on="1"/>
        <pt x="191" y="37" on="0"/>
      </contour>
      <contour>
        <pt x="710" y="826" on="1"/>
        <pt x="549" y="873" on="1"/>
        <pt x="512" y="884" on="0"/>
        <pt x="512" y="922" on="1"/>
        <pt x="512" y="944" on="0"/>
        <pt x="539" y="970" on="0"/>
        <pt x="562" y="970" on="1"/>
        <pt x="579" y="970" on="0"/>
        <pt x="608" y="953" on="0"/>
        <pt x="625" y="938" on="1"/>
        <pt x="729" y="847" on="1"/>
      </contour>
    </TTGlyph>
    <TTGlyph name="Ohungarumlaut" xMin="75" yMin="-10" xMax="900" yMax="970">
      <contour>
        <pt x="304" y="-10" on="1"/>
        <pt x="195" y="-10" on="0"/>
        <pt x="75" y="118" on="0"/>
        <pt x="75" y="236" on="1"/>
        <pt x="75" y="304" on="0"/>
        <pt x="114" y="437" on="0"/>
        <pt x="183" y="558" on="0"/>
        <pt x="277" y="662" on="0"/>
        <pt x="387" y="737" on="0"/>
        <pt x="509" y="780" on="0"/>
        <pt x="571" y="780" on="1"/>
        <pt x="681" y="780" on="0"/>
        <pt x="801" y="650" on="0"/>
        <pt x="801" y="531" on="1"/>
        <pt x="801" y="463" on="0"/>
        <pt x="762" y="330" on="0"/>
        <pt x="693" y="210" on="0"/>
        <pt x="599" y="107" on="0"/>
        <pt x="489" y="32" on="0"/>
        <pt x="366" y="-10" on="0"/>
      </contour>
      <contour>
        <pt x="319" y="37" on="1"/>
        <pt x="365" y="37" on="0"/>
        <pt x="455" y="79" on="0"/>
        <pt x="538" y="153" on="0"/>
        <pt x="609" y="254" on="0"/>
        <pt x="660" y="371" on="0"/>
        <pt x="690" y="500" on="0"/>
        <pt x="690" y="565" on="1"/>
        <pt x="690" y="736" on="0"/>
        <pt x="565" y="736" on="1"/>
        <pt x="519" y="736" on="0"/>
        <pt x="428" y="694" on="0"/>
        <pt x="345" y="620" on="0"/>
        <pt x="274" y="519" on="0"/>
        <pt x="221" y="402" on="0"/>
        <pt x="191" y="274" on="0"/>
        <pt x="191" y="210" on="1"/>
        <pt x="191" y="37" on="0"/>
      </contour>
      <contour>
        <pt x="669" y="847" on="1"/>
        <pt x="814" y="952" on="1"/>
        <pt x="825" y="960" on="0"/>
        <pt x="846" y="969" on="0"/>
        <pt x="857" y="969" on="1"/>
        <pt x="874" y="969" on="0"/>
        <pt x="900" y="943" on="0"/>
        <pt x="900" y="923" on="1"/>
        <pt x="900" y="906" on="0"/>
        <pt x="871" y="879" on="0"/>
        <pt x="831" y="868" on="1"/>
        <pt x="679" y="826" on="1"/>
      </contour>
      <contour>
        <pt x="470" y="848" on="1"/>
        <pt x="615" y="953" on="1"/>
        <pt x="626" y="961" on="0"/>
        <pt x="647" y="970" on="0"/>
        <pt x="658" y="970" on="1"/>
        <pt x="675" y="970" on="0"/>
        <pt x="702" y="944" on="0"/>
        <pt x="702" y="926" on="1"/>
        <pt x="702" y="909" on="0"/>
        <pt x="673" y="880" on="0"/>
        <pt x="633" y="869" on="1"/>
        <pt x="480" y="827" on="1"/>
      </contour>
    </TTGlyph>
    <TTGlyph name="Omacron" xMin="75" yMin="-10" xMax="801" yMax="952">
      <contour>
        <pt x="304" y="-10" on="1"/>
        <pt x="195" y="-10" on="0"/>
        <pt x="75" y="118" on="0"/>
        <pt x="75" y="236" on="1"/>
        <pt x="75" y="304" on="0"/>
        <pt x="114" y="437" on="0"/>
        <pt x="183" y="558" on="0"/>
        <pt x="277" y="662" on="0"/>
        <pt x="387" y="737" on="0"/>
        <pt x="509" y="780" on="0"/>
        <pt x="571" y="780" on="1"/>
        <pt x="681" y="780" on="0"/>
        <pt x="801" y="650" on="0"/>
        <pt x="801" y="531" on="1"/>
        <pt x="801" y="463" on="0"/>
        <pt x="762" y="330" on="0"/>
        <pt x="693" y="210" on="0"/>
        <pt x="599" y="107" on="0"/>
        <pt x="489" y="32" on="0"/>
        <pt x="366" y="-10" on="0"/>
      </contour>
      <contour>
        <pt x="319" y="37" on="1"/>
        <pt x="365" y="37" on="0"/>
        <pt x="455" y="79" on="0"/>
        <pt x="538" y="153" on="0"/>
        <pt x="609" y="254" on="0"/>
        <pt x="660" y="371" on="0"/>
        <pt x="690" y="500" on="0"/>
        <pt x="690" y="565" on="1"/>
        <pt x="690" y="736" on="0"/>
        <pt x="565" y="736" on="1"/>
        <pt x="519" y="736" on="0"/>
        <pt x="428" y="694" on="0"/>
        <pt x="345" y="620" on="0"/>
        <pt x="274" y="519" on="0"/>
        <pt x="221" y="402" on="0"/>
        <pt x="191" y="274" on="0"/>
        <pt x="191" y="210" on="1"/>
        <pt x="191" y="37" on="0"/>
      </contour>
      <contour>
        <pt x="471" y="881" on="1"/>
        <pt x="499" y="952" on="1"/>
        <pt x="786" y="952" on="1"/>
        <pt x="757" y="881" on="1"/>
      </contour>
    </TTGlyph>
    <TTGlyph name="Oogonek" xMin="75" yMin="-256" xMax="801" yMax="780">
      <contour>
        <pt x="293" y="-198" on="1"/>
        <pt x="224" y="-256" on="0"/>
        <pt x="156" y="-256" on="1"/>
        <pt x="89" y="-256" on="0"/>
        <pt x="89" y="-204" on="1"/>
        <pt x="89" y="-161" on="0"/>
        <pt x="184" y="-57" on="0"/>
        <pt x="265" y="-8" on="1"/>
        <pt x="174" y="3" on="0"/>
        <pt x="75" y="129" on="0"/>
        <pt x="75" y="236" on="1"/>
        <pt x="75" y="304" on="0"/>
        <pt x="114" y="437" on="0"/>
        <pt x="183" y="558" on="0"/>
        <pt x="277" y="662" on="0"/>
        <pt x="387" y="737" on="0"/>
        <pt x="509" y="780" on="0"/>
        <pt x="571" y="780" on="1"/>
        <pt x="681" y="780" on="0"/>
        <pt x="801" y="650" on="0"/>
        <pt x="801" y="531" on="1"/>
        <pt x="801" y="464" on="0"/>
        <pt x="763" y="332" on="0"/>
        <pt x="695" y="212" on="0"/>
        <pt x="602" y="110" on="0"/>
        <pt x="493" y="35" on="0"/>
        <pt x="373" y="-9" on="0"/>
        <pt x="311" y="-10" on="1"/>
        <pt x="251" y="-59" on="0"/>
        <pt x="186" y="-143" on="0"/>
        <pt x="186" y="-172" on="1"/>
        <pt x="186" y="-201" on="0"/>
        <pt x="223" y="-201" on="1"/>
        <pt x="237" y="-201" on="0"/>
        <pt x="265" y="-192" on="0"/>
        <pt x="288" y="-180" on="1"/>
      </contour>
      <contour>
        <pt x="319" y="37" on="1"/>
        <pt x="365" y="37" on="0"/>
        <pt x="455" y="79" on="0"/>
        <pt x="538" y="153" on="0"/>
        <pt x="609" y="254" on="0"/>
        <pt x="660" y="371" on="0"/>
        <pt x="690" y="500" on="0"/>
        <pt x="690" y="565" on="1"/>
        <pt x="690" y="736" on="0"/>
        <pt x="565" y="736" on="1"/>
        <pt x="519" y="736" on="0"/>
        <pt x="428" y="694" on="0"/>
        <pt x="345" y="620" on="0"/>
        <pt x="274" y="519" on="0"/>
        <pt x="221" y="402" on="0"/>
        <pt x="191" y="274" on="0"/>
        <pt x="191" y="210" on="1"/>
        <pt x="191" y="37" on="0"/>
      </contour>
    </TTGlyph>
    <TTGlyph name="Oslash" xMin="32" yMin="-10" xMax="863" yMax="780">
      <contour>
        <pt x="304" y="-10" on="1"/>
        <pt x="201" y="-10" on="0"/>
        <pt x="141" y="48" on="1"/>
        <pt x="93" y="0" on="1"/>
        <pt x="32" y="0" on="1"/>
        <pt x="114" y="82" on="1"/>
        <pt x="75" y="140" on="0"/>
        <pt x="75" y="236" on="1"/>
        <pt x="75" y="304" on="0"/>
        <pt x="114" y="437" on="0"/>
        <pt x="183" y="558" on="0"/>
        <pt x="277" y="662" on="0"/>
        <pt x="387" y="737" on="0"/>
        <pt x="509" y="780" on="0"/>
        <pt x="571" y="780" on="1"/>
        <pt x="681" y="780" on="0"/>
        <pt x="743" y="712" on="1"/>
        <pt x="800" y="770" on="1"/>
        <pt x="863" y="770" on="1"/>
        <pt x="768" y="675" on="1"/>
        <pt x="784" y="646" on="0"/>
        <pt x="801" y="574" on="0"/>
        <pt x="801" y="531" on="1"/>
        <pt x="801" y="463" on="0"/>
        <pt x="762" y="330" on="0"/>
        <pt x="693" y="210" on="0"/>
        <pt x="599" y="107" on="0"/>
        <pt x="489" y="32" on="0"/>
        <pt x="366" y="-10" on="0"/>
      </contour>
      <contour>
        <pt x="565" y="736" on="1"/>
        <pt x="519" y="736" on="0"/>
        <pt x="428" y="694" on="0"/>
        <pt x="345" y="620" on="0"/>
        <pt x="274" y="519" on="0"/>
        <pt x="221" y="402" on="0"/>
        <pt x="191" y="274" on="0"/>
        <pt x="191" y="210" on="1"/>
        <pt x="191" y="183" on="0"/>
        <pt x="194" y="162" on="1"/>
        <pt x="680" y="649" on="1"/>
        <pt x="654" y="736" on="0"/>
      </contour>
      <contour>
        <pt x="319" y="37" on="1"/>
        <pt x="365" y="37" on="0"/>
        <pt x="455" y="79" on="0"/>
        <pt x="538" y="153" on="0"/>
        <pt x="609" y="254" on="0"/>
        <pt x="660" y="371" on="0"/>
        <pt x="690" y="500" on="0"/>
        <pt x="690" y="565" on="1"/>
        <pt x="690" y="573" on="0"/>
        <pt x="689" y="588" on="0"/>
        <pt x="689" y="596" on="1"/>
        <pt x="205" y="112" on="1"/>
        <pt x="231" y="37" on="0"/>
      </contour>
    </TTGlyph>
    <TTGlyph name="Oslashacute" xMin="32" yMin="-10" xMax="863" yMax="970">
      <contour>
        <pt x="32" y="0" on="1"/>
        <pt x="114" y="82" on="1"/>
        <pt x="75" y="140" on="0"/>
        <pt x="75" y="236" on="1"/>
        <pt x="75" y="304" on="0"/>
        <pt x="114" y="437" on="0"/>
        <pt x="183" y="558" on="0"/>
        <pt x="277" y="662" on="0"/>
        <pt x="387" y="737" on="0"/>
        <pt x="509" y="780" on="0"/>
        <pt x="571" y="780" on="1"/>
        <pt x="681" y="780" on="0"/>
        <pt x="743" y="712" on="1"/>
        <pt x="800" y="770" on="1"/>
        <pt x="863" y="770" on="1"/>
        <pt x="768" y="675" on="1"/>
        <pt x="784" y="646" on="0"/>
        <pt x="801" y="574" on="0"/>
        <pt x="801" y="531" on="1"/>
        <pt x="801" y="463" on="0"/>
        <pt x="762" y="330" on="0"/>
        <pt x="693" y="210" on="0"/>
        <pt x="599" y="107" on="0"/>
        <pt x="489" y="32" on="0"/>
        <pt x="366" y="-10" on="0"/>
        <pt x="304" y="-10" on="1"/>
        <pt x="201" y="-10" on="0"/>
        <pt x="141" y="48" on="1"/>
        <pt x="93" y="0" on="1"/>
      </contour>
      <contour>
        <pt x="191" y="210" on="1"/>
        <pt x="191" y="183" on="0"/>
        <pt x="194" y="162" on="1"/>
        <pt x="680" y="649" on="1"/>
        <pt x="654" y="736" on="0"/>
        <pt x="565" y="736" on="1"/>
        <pt x="519" y="736" on="0"/>
        <pt x="428" y="694" on="0"/>
        <pt x="345" y="620" on="0"/>
        <pt x="274" y="519" on="0"/>
        <pt x="221" y="402" on="0"/>
        <pt x="191" y="274" on="0"/>
      </contour>
      <contour>
        <pt x="319" y="37" on="1"/>
        <pt x="365" y="37" on="0"/>
        <pt x="455" y="79" on="0"/>
        <pt x="538" y="153" on="0"/>
        <pt x="609" y="254" on="0"/>
        <pt x="660" y="371" on="0"/>
        <pt x="690" y="500" on="0"/>
        <pt x="690" y="565" on="1"/>
        <pt x="690" y="573" on="0"/>
        <pt x="689" y="588" on="0"/>
        <pt x="689" y="596" on="1"/>
        <pt x="205" y="112" on="1"/>
        <pt x="231" y="37" on="0"/>
      </contour>
      <contour>
        <pt x="605" y="847" on="1"/>
        <pt x="749" y="954" on="1"/>
        <pt x="771" y="970" on="0"/>
        <pt x="793" y="970" on="1"/>
        <pt x="810" y="970" on="0"/>
        <pt x="836" y="946" on="0"/>
        <pt x="836" y="927" on="1"/>
        <pt x="836" y="910" on="0"/>
        <pt x="807" y="881" on="0"/>
        <pt x="768" y="870" on="1"/>
        <pt x="616" y="826" on="1"/>
      </contour>
    </TTGlyph>
    <TTGlyph name="Otilde" xMin="75" yMin="-10" xMax="818" yMax="970">
      <contour>
        <pt x="304" y="-10" on="1"/>
        <pt x="195" y="-10" on="0"/>
        <pt x="75" y="118" on="0"/>
        <pt x="75" y="236" on="1"/>
        <pt x="75" y="304" on="0"/>
        <pt x="114" y="437" on="0"/>
        <pt x="183" y="558" on="0"/>
        <pt x="277" y="662" on="0"/>
        <pt x="387" y="737" on="0"/>
        <pt x="509" y="780" on="0"/>
        <pt x="571" y="780" on="1"/>
        <pt x="681" y="780" on="0"/>
        <pt x="801" y="650" on="0"/>
        <pt x="801" y="531" on="1"/>
        <pt x="801" y="463" on="0"/>
        <pt x="762" y="330" on="0"/>
        <pt x="693" y="210" on="0"/>
        <pt x="599" y="107" on="0"/>
        <pt x="489" y="32" on="0"/>
        <pt x="366" y="-10" on="0"/>
      </contour>
      <contour>
        <pt x="319" y="37" on="1"/>
        <pt x="365" y="37" on="0"/>
        <pt x="455" y="79" on="0"/>
        <pt x="538" y="153" on="0"/>
        <pt x="609" y="254" on="0"/>
        <pt x="660" y="371" on="0"/>
        <pt x="690" y="500" on="0"/>
        <pt x="690" y="565" on="1"/>
        <pt x="690" y="736" on="0"/>
        <pt x="565" y="736" on="1"/>
        <pt x="519" y="736" on="0"/>
        <pt x="428" y="694" on="0"/>
        <pt x="345" y="620" on="0"/>
        <pt x="274" y="519" on="0"/>
        <pt x="221" y="402" on="0"/>
        <pt x="191" y="274" on="0"/>
        <pt x="191" y="210" on="1"/>
        <pt x="191" y="37" on="0"/>
      </contour>
      <contour>
        <pt x="475" y="853" on="1"/>
        <pt x="489" y="904" on="0"/>
        <pt x="557" y="967" on="0"/>
        <pt x="594" y="967" on="1"/>
        <pt x="611" y="967" on="0"/>
        <pt x="646" y="956" on="0"/>
        <pt x="681" y="943" on="0"/>
        <pt x="715" y="932" on="0"/>
        <pt x="732" y="932" on="1"/>
        <pt x="774" y="932" on="0"/>
        <pt x="794" y="970" on="1"/>
        <pt x="818" y="970" on="1"/>
        <pt x="801" y="918" on="0"/>
        <pt x="732" y="852" on="0"/>
        <pt x="695" y="852" on="1"/>
        <pt x="677" y="852" on="0"/>
        <pt x="644" y="864" on="0"/>
        <pt x="610" y="879" on="0"/>
        <pt x="577" y="891" on="0"/>
        <pt x="559" y="891" on="1"/>
        <pt x="513" y="891" on="0"/>
        <pt x="496" y="853" on="1"/>
      </contour>
    </TTGlyph>
    <TTGlyph name="P" xMin="-64" yMin="0" xMax="720" yMax="770">
      <contour>
        <pt x="265" y="341" on="1"/>
        <pt x="143" y="42" on="1"/>
        <pt x="262" y="23" on="1"/>
        <pt x="252" y="0" on="1"/>
        <pt x="-64" y="0" on="1"/>
        <pt x="-55" y="23" on="1"/>
        <pt x="33" y="42" on="1"/>
        <pt x="319" y="728" on="1"/>
        <pt x="241" y="747" on="1"/>
        <pt x="250" y="770" on="1"/>
        <pt x="490" y="770" on="1"/>
        <pt x="599" y="770" on="0"/>
        <pt x="720" y="678" on="0"/>
        <pt x="720" y="594" on="1"/>
        <pt x="720" y="537" on="0"/>
        <pt x="669" y="444" on="0"/>
        <pt x="575" y="377" on="0"/>
        <pt x="443" y="341" on="0"/>
        <pt x="363" y="341" on="1"/>
      </contour>
      <contour>
        <pt x="377" y="385" on="1"/>
        <pt x="426" y="385" on="0"/>
        <pt x="514" y="420" on="0"/>
        <pt x="578" y="481" on="0"/>
        <pt x="616" y="562" on="0"/>
        <pt x="616" y="608" on="1"/>
        <pt x="616" y="667" on="0"/>
        <pt x="552" y="729" on="0"/>
        <pt x="490" y="729" on="1"/>
        <pt x="429" y="729" on="1"/>
        <pt x="284" y="385" on="1"/>
      </contour>
    </TTGlyph>
    <TTGlyph name="Q" xMin="12" yMin="-227" xMax="802" yMax="780">
      <contour>
        <pt x="270" y="-8" on="1"/>
        <pt x="178" y="3" on="0"/>
        <pt x="76" y="127" on="0"/>
        <pt x="76" y="237" on="1"/>
        <pt x="76" y="305" on="0"/>
        <pt x="115" y="438" on="0"/>
        <pt x="184" y="559" on="0"/>
        <pt x="278" y="662" on="0"/>
        <pt x="389" y="737" on="0"/>
        <pt x="511" y="780" on="0"/>
        <pt x="574" y="780" on="1"/>
        <pt x="683" y="780" on="0"/>
        <pt x="802" y="650" on="0"/>
        <pt x="802" y="530" on="1"/>
        <pt x="802" y="443" on="0"/>
        <pt x="740" y="281" on="0"/>
        <pt x="636" y="144" on="0"/>
        <pt x="500" y="38" on="0"/>
        <pt x="425" y="8" on="1"/>
        <pt x="190" y="-87" on="1"/>
        <pt x="218" y="-108" on="0"/>
        <pt x="280" y="-127" on="0"/>
        <pt x="325" y="-127" on="1"/>
        <pt x="391" y="-127" on="0"/>
        <pt x="488" y="-91" on="0"/>
        <pt x="508" y="-63" on="1"/>
        <pt x="542" y="-63" on="1"/>
        <pt x="537" y="-80" on="0"/>
        <pt x="506" y="-136" on="0"/>
        <pt x="451" y="-189" on="0"/>
        <pt x="374" y="-227" on="0"/>
        <pt x="325" y="-227" on="1"/>
        <pt x="279" y="-227" on="0"/>
        <pt x="223" y="-195" on="0"/>
        <pt x="180" y="-158" on="0"/>
        <pt x="139" y="-126" on="0"/>
        <pt x="108" y="-126" on="1"/>
        <pt x="94" y="-126" on="0"/>
        <pt x="86" y="-133" on="0"/>
        <pt x="86" y="-140" on="1"/>
        <pt x="86" y="-146" on="0"/>
        <pt x="90" y="-159" on="0"/>
        <pt x="90" y="-166" on="1"/>
        <pt x="90" y="-180" on="0"/>
        <pt x="67" y="-201" on="0"/>
        <pt x="50" y="-201" on="1"/>
        <pt x="30" y="-201" on="0"/>
        <pt x="12" y="-175" on="0"/>
        <pt x="12" y="-159" on="1"/>
        <pt x="12" y="-136" on="0"/>
        <pt x="45" y="-104" on="0"/>
        <pt x="79" y="-90" on="1"/>
        <pt x="270" y="-12" on="1"/>
      </contour>
      <contour>
        <pt x="318" y="37" on="1"/>
        <pt x="364" y="37" on="0"/>
        <pt x="455" y="79" on="0"/>
        <pt x="538" y="153" on="0"/>
        <pt x="609" y="253" on="0"/>
        <pt x="661" y="370" on="0"/>
        <pt x="691" y="498" on="0"/>
        <pt x="691" y="562" on="1"/>
        <pt x="691" y="651" on="0"/>
        <pt x="630" y="736" on="0"/>
        <pt x="567" y="736" on="1"/>
        <pt x="521" y="736" on="0"/>
        <pt x="430" y="694" on="0"/>
        <pt x="346" y="620" on="0"/>
        <pt x="275" y="519" on="0"/>
        <pt x="222" y="403" on="0"/>
        <pt x="192" y="276" on="0"/>
        <pt x="192" y="212" on="1"/>
        <pt x="192" y="37" on="0"/>
      </contour>
    </TTGlyph>
    <TTGlyph name="R" xMin="-64" yMin="0" xMax="717" yMax="770">
      <contour>
        <pt x="270" y="354" on="1"/>
        <pt x="143" y="42" on="1"/>
        <pt x="262" y="23" on="1"/>
        <pt x="252" y="0" on="1"/>
        <pt x="-64" y="0" on="1"/>
        <pt x="-55" y="23" on="1"/>
        <pt x="33" y="42" on="1"/>
        <pt x="319" y="728" on="1"/>
        <pt x="241" y="747" on="1"/>
        <pt x="250" y="770" on="1"/>
        <pt x="490" y="770" on="1"/>
        <pt x="607" y="770" on="0"/>
        <pt x="717" y="686" on="0"/>
        <pt x="717" y="607" on="1"/>
        <pt x="717" y="558" on="0"/>
        <pt x="679" y="475" on="0"/>
        <pt x="610" y="411" on="0"/>
        <pt x="511" y="368" on="0"/>
        <pt x="450" y="359" on="1"/>
        <pt x="564" y="42" on="1"/>
        <pt x="672" y="23" on="1"/>
        <pt x="665" y="0" on="1"/>
        <pt x="464" y="0" on="1"/>
        <pt x="347" y="354" on="1"/>
      </contour>
      <contour>
        <pt x="382" y="398" on="1"/>
        <pt x="430" y="398" on="0"/>
        <pt x="515" y="432" on="0"/>
        <pt x="579" y="489" on="0"/>
        <pt x="616" y="565" on="0"/>
        <pt x="616" y="608" on="1"/>
        <pt x="616" y="667" on="0"/>
        <pt x="552" y="729" on="0"/>
        <pt x="490" y="729" on="1"/>
        <pt x="429" y="729" on="1"/>
        <pt x="289" y="398" on="1"/>
      </contour>
    </TTGlyph>
    <TTGlyph name="Racute" xMin="-64" yMin="0" xMax="717" yMax="970">
      <contour>
        <pt x="270" y="354" on="1"/>
        <pt x="143" y="42" on="1"/>
        <pt x="262" y="23" on="1"/>
        <pt x="252" y="0" on="1"/>
        <pt x="-64" y="0" on="1"/>
        <pt x="-55" y="23" on="1"/>
        <pt x="33" y="42" on="1"/>
        <pt x="319" y="728" on="1"/>
        <pt x="241" y="747" on="1"/>
        <pt x="250" y="770" on="1"/>
        <pt x="490" y="770" on="1"/>
        <pt x="607" y="770" on="0"/>
        <pt x="717" y="686" on="0"/>
        <pt x="717" y="607" on="1"/>
        <pt x="717" y="558" on="0"/>
        <pt x="679" y="475" on="0"/>
        <pt x="610" y="411" on="0"/>
        <pt x="511" y="368" on="0"/>
        <pt x="450" y="359" on="1"/>
        <pt x="564" y="42" on="1"/>
        <pt x="672" y="23" on="1"/>
        <pt x="665" y="0" on="1"/>
        <pt x="464" y="0" on="1"/>
        <pt x="347" y="354" on="1"/>
      </contour>
      <contour>
        <pt x="382" y="398" on="1"/>
        <pt x="430" y="398" on="0"/>
        <pt x="515" y="432" on="0"/>
        <pt x="579" y="489" on="0"/>
        <pt x="616" y="565" on="0"/>
        <pt x="616" y="608" on="1"/>
        <pt x="616" y="667" on="0"/>
        <pt x="552" y="729" on="0"/>
        <pt x="490" y="729" on="1"/>
        <pt x="429" y="729" on="1"/>
        <pt x="289" y="398" on="1"/>
      </contour>
      <contour>
        <pt x="480" y="847" on="1"/>
        <pt x="624" y="954" on="1"/>
        <pt x="646" y="970" on="0"/>
        <pt x="668" y="970" on="1"/>
        <pt x="685" y="970" on="0"/>
        <pt x="711" y="946" on="0"/>
        <pt x="711" y="927" on="1"/>
        <pt x="711" y="910" on="0"/>
        <pt x="682" y="881" on="0"/>
        <pt x="643" y="870" on="1"/>
        <pt x="491" y="826" on="1"/>
      </contour>
    </TTGlyph>
    <TTGlyph name="Rcaron" xMin="-64" yMin="0" xMax="729" yMax="970">
      <contour>
        <pt x="270" y="354" on="1"/>
        <pt x="143" y="42" on="1"/>
        <pt x="262" y="23" on="1"/>
        <pt x="252" y="0" on="1"/>
        <pt x="-64" y="0" on="1"/>
        <pt x="-55" y="23" on="1"/>
        <pt x="33" y="42" on="1"/>
        <pt x="319" y="728" on="1"/>
        <pt x="241" y="747" on="1"/>
        <pt x="250" y="770" on="1"/>
        <pt x="490" y="770" on="1"/>
        <pt x="607" y="770" on="0"/>
        <pt x="717" y="686" on="0"/>
        <pt x="717" y="607" on="1"/>
        <pt x="717" y="558" on="0"/>
        <pt x="679" y="475" on="0"/>
        <pt x="610" y="411" on="0"/>
        <pt x="511" y="368" on="0"/>
        <pt x="450" y="359" on="1"/>
        <pt x="564" y="42" on="1"/>
        <pt x="672" y="23" on="1"/>
        <pt x="665" y="0" on="1"/>
        <pt x="464" y="0" on="1"/>
        <pt x="347" y="354" on="1"/>
      </contour>
      <contour>
        <pt x="382" y="398" on="1"/>
        <pt x="430" y="398" on="0"/>
        <pt x="515" y="432" on="0"/>
        <pt x="579" y="489" on="0"/>
        <pt x="616" y="565" on="0"/>
        <pt x="616" y="608" on="1"/>
        <pt x="616" y="667" on="0"/>
        <pt x="552" y="729" on="0"/>
        <pt x="490" y="729" on="1"/>
        <pt x="429" y="729" on="1"/>
        <pt x="289" y="398" on="1"/>
      </contour>
      <contour>
        <pt x="533" y="830" on="1"/>
        <pt x="516" y="830" on="0"/>
        <pt x="497" y="843" on="0"/>
        <pt x="489" y="857" on="1"/>
        <pt x="435" y="953" on="1"/>
        <pt x="461" y="970" on="1"/>
        <pt x="552" y="902" on="1"/>
        <pt x="717" y="970" on="1"/>
        <pt x="729" y="953" on="1"/>
        <pt x="597" y="857" on="1"/>
        <pt x="579" y="844" on="0"/>
        <pt x="552" y="830" on="0"/>
      </contour>
    </TTGlyph>
    <TTGlyph name="Rcommaaccent" xMin="-64" yMin="-257" xMax="717" yMax="770">
      <contour>
        <pt x="270" y="354" on="1"/>
        <pt x="143" y="42" on="1"/>
        <pt x="262" y="23" on="1"/>
        <pt x="252" y="0" on="1"/>
        <pt x="-64" y="0" on="1"/>
        <pt x="-55" y="23" on="1"/>
        <pt x="33" y="42" on="1"/>
        <pt x="319" y="728" on="1"/>
        <pt x="241" y="747" on="1"/>
        <pt x="250" y="770" on="1"/>
        <pt x="490" y="770" on="1"/>
        <pt x="607" y="770" on="0"/>
        <pt x="717" y="686" on="0"/>
        <pt x="717" y="607" on="1"/>
        <pt x="717" y="558" on="0"/>
        <pt x="679" y="475" on="0"/>
        <pt x="610" y="411" on="0"/>
        <pt x="511" y="368" on="0"/>
        <pt x="450" y="359" on="1"/>
        <pt x="564" y="42" on="1"/>
        <pt x="672" y="23" on="1"/>
        <pt x="665" y="0" on="1"/>
        <pt x="464" y="0" on="1"/>
        <pt x="347" y="354" on="1"/>
      </contour>
      <contour>
        <pt x="382" y="398" on="1"/>
        <pt x="430" y="398" on="0"/>
        <pt x="515" y="432" on="0"/>
        <pt x="579" y="489" on="0"/>
        <pt x="616" y="565" on="0"/>
        <pt x="616" y="608" on="1"/>
        <pt x="616" y="667" on="0"/>
        <pt x="552" y="729" on="0"/>
        <pt x="490" y="729" on="1"/>
        <pt x="429" y="729" on="1"/>
        <pt x="289" y="398" on="1"/>
      </contour>
      <contour>
        <pt x="257" y="-159" on="1"/>
        <pt x="228" y="-151" on="0"/>
        <pt x="228" y="-115" on="1"/>
        <pt x="228" y="-87" on="0"/>
        <pt x="260" y="-54" on="0"/>
        <pt x="294" y="-54" on="1"/>
        <pt x="344" y="-54" on="0"/>
        <pt x="344" y="-110" on="1"/>
        <pt x="344" y="-148" on="0"/>
        <pt x="280" y="-225" on="0"/>
        <pt x="221" y="-257" on="1"/>
        <pt x="206" y="-238" on="1"/>
        <pt x="237" y="-223" on="0"/>
        <pt x="280" y="-183" on="0"/>
        <pt x="280" y="-171" on="1"/>
        <pt x="280" y="-166" on="0"/>
        <pt x="271" y="-162" on="0"/>
      </contour>
    </TTGlyph>
    <TTGlyph name="Rdotbelow" xMin="-64" yMin="-256" xMax="717" yMax="770">
      <contour>
        <pt x="270" y="354" on="1"/>
        <pt x="143" y="42" on="1"/>
        <pt x="262" y="23" on="1"/>
        <pt x="252" y="0" on="1"/>
        <pt x="-64" y="0" on="1"/>
        <pt x="-55" y="23" on="1"/>
        <pt x="33" y="42" on="1"/>
        <pt x="319" y="728" on="1"/>
        <pt x="241" y="747" on="1"/>
        <pt x="250" y="770" on="1"/>
        <pt x="490" y="770" on="1"/>
        <pt x="607" y="770" on="0"/>
        <pt x="717" y="686" on="0"/>
        <pt x="717" y="607" on="1"/>
        <pt x="717" y="558" on="0"/>
        <pt x="679" y="475" on="0"/>
        <pt x="610" y="411" on="0"/>
        <pt x="511" y="368" on="0"/>
        <pt x="450" y="359" on="1"/>
        <pt x="564" y="42" on="1"/>
        <pt x="672" y="23" on="1"/>
        <pt x="665" y="0" on="1"/>
        <pt x="464" y="0" on="1"/>
        <pt x="347" y="354" on="1"/>
      </contour>
      <contour>
        <pt x="382" y="398" on="1"/>
        <pt x="430" y="398" on="0"/>
        <pt x="515" y="432" on="0"/>
        <pt x="579" y="489" on="0"/>
        <pt x="616" y="565" on="0"/>
        <pt x="616" y="608" on="1"/>
        <pt x="616" y="667" on="0"/>
        <pt x="552" y="729" on="0"/>
        <pt x="490" y="729" on="1"/>
        <pt x="429" y="729" on="1"/>
        <pt x="289" y="398" on="1"/>
      </contour>
      <contour>
        <pt x="247" y="-131" on="1"/>
        <pt x="273" y="-131" on="0"/>
        <pt x="311" y="-163" on="0"/>
        <pt x="311" y="-186" on="1"/>
        <pt x="311" y="-200" on="0"/>
        <pt x="298" y="-225" on="0"/>
        <pt x="277" y="-244" on="0"/>
        <pt x="250" y="-256" on="0"/>
        <pt x="236" y="-256" on="1"/>
        <pt x="207" y="-256" on="0"/>
        <pt x="174" y="-225" on="0"/>
        <pt x="174" y="-199" on="1"/>
        <pt x="174" y="-171" on="0"/>
        <pt x="218" y="-131" on="0"/>
      </contour>
    </TTGlyph>
    <TTGlyph name="S" xMin="-37" yMin="-10" xMax="675" yMax="780">
      <contour>
        <pt x="69" y="261" on="1"/>
        <pt x="98" y="261" on="1"/>
        <pt x="85" y="209" on="0"/>
        <pt x="85" y="165" on="1"/>
        <pt x="85" y="30" on="0"/>
        <pt x="222" y="30" on="1"/>
        <pt x="299" y="30" on="0"/>
        <pt x="386" y="108" on="0"/>
        <pt x="386" y="177" on="1"/>
        <pt x="386" y="217" on="0"/>
        <pt x="358" y="279" on="0"/>
        <pt x="316" y="332" on="0"/>
        <pt x="267" y="382" on="0"/>
        <pt x="225" y="439" on="0"/>
        <pt x="197" y="507" on="0"/>
        <pt x="197" y="552" on="1"/>
        <pt x="197" y="602" on="0"/>
        <pt x="234" y="686" on="0"/>
        <pt x="300" y="746" on="0"/>
        <pt x="391" y="780" on="0"/>
        <pt x="446" y="780" on="1"/>
        <pt x="495" y="780" on="0"/>
        <pt x="568" y="750" on="0"/>
        <pt x="597" y="718" on="1"/>
        <pt x="643" y="770" on="1"/>
        <pt x="675" y="770" on="1"/>
        <pt x="589" y="550" on="1"/>
        <pt x="559" y="550" on="1"/>
        <pt x="564" y="569" on="0"/>
        <pt x="572" y="619" on="0"/>
        <pt x="572" y="637" on="1"/>
        <pt x="572" y="687" on="0"/>
        <pt x="510" y="740" on="0"/>
        <pt x="450" y="740" on="1"/>
        <pt x="378" y="740" on="0"/>
        <pt x="302" y="663" on="0"/>
        <pt x="302" y="591" on="1"/>
        <pt x="302" y="570" on="0"/>
        <pt x="308" y="538" on="0"/>
        <pt x="324" y="505" on="0"/>
        <pt x="355" y="466" on="0"/>
        <pt x="379" y="438" on="1"/>
        <pt x="413" y="399" on="0"/>
        <pt x="457" y="339" on="0"/>
        <pt x="483" y="289" on="0"/>
        <pt x="494" y="244" on="0"/>
        <pt x="494" y="219" on="1"/>
        <pt x="494" y="170" on="0"/>
        <pt x="452" y="86" on="0"/>
        <pt x="377" y="25" on="0"/>
        <pt x="276" y="-10" on="0"/>
        <pt x="216" y="-10" on="1"/>
        <pt x="88" y="-10" on="0"/>
        <pt x="45" y="72" on="1"/>
        <pt x="-6" y="0" on="1"/>
        <pt x="-37" y="0" on="1"/>
      </contour>
    </TTGlyph>
    <TTGlyph name="Sacute" xMin="-37" yMin="-10" xMax="675" yMax="970">
      <contour>
        <pt x="69" y="261" on="1"/>
        <pt x="98" y="261" on="1"/>
        <pt x="85" y="209" on="0"/>
        <pt x="85" y="165" on="1"/>
        <pt x="85" y="30" on="0"/>
        <pt x="222" y="30" on="1"/>
        <pt x="299" y="30" on="0"/>
        <pt x="386" y="108" on="0"/>
        <pt x="386" y="177" on="1"/>
        <pt x="386" y="217" on="0"/>
        <pt x="358" y="279" on="0"/>
        <pt x="316" y="332" on="0"/>
        <pt x="267" y="382" on="0"/>
        <pt x="225" y="439" on="0"/>
        <pt x="197" y="507" on="0"/>
        <pt x="197" y="552" on="1"/>
        <pt x="197" y="602" on="0"/>
        <pt x="234" y="686" on="0"/>
        <pt x="300" y="746" on="0"/>
        <pt x="391" y="780" on="0"/>
        <pt x="446" y="780" on="1"/>
        <pt x="495" y="780" on="0"/>
        <pt x="568" y="750" on="0"/>
        <pt x="597" y="718" on="1"/>
        <pt x="643" y="770" on="1"/>
        <pt x="675" y="770" on="1"/>
        <pt x="589" y="550" on="1"/>
        <pt x="559" y="550" on="1"/>
        <pt x="564" y="569" on="0"/>
        <pt x="572" y="619" on="0"/>
        <pt x="572" y="637" on="1"/>
        <pt x="572" y="687" on="0"/>
        <pt x="510" y="740" on="0"/>
        <pt x="450" y="740" on="1"/>
        <pt x="378" y="740" on="0"/>
        <pt x="302" y="663" on="0"/>
        <pt x="302" y="591" on="1"/>
        <pt x="302" y="570" on="0"/>
        <pt x="308" y="538" on="0"/>
        <pt x="324" y="505" on="0"/>
        <pt x="355" y="466" on="0"/>
        <pt x="379" y="438" on="1"/>
        <pt x="413" y="399" on="0"/>
        <pt x="457" y="339" on="0"/>
        <pt x="483" y="289" on="0"/>
        <pt x="494" y="244" on="0"/>
        <pt x="494" y="219" on="1"/>
        <pt x="494" y="170" on="0"/>
        <pt x="452" y="86" on="0"/>
        <pt x="377" y="25" on="0"/>
        <pt x="276" y="-10" on="0"/>
        <pt x="216" y="-10" on="1"/>
        <pt x="88" y="-10" on="0"/>
        <pt x="45" y="72" on="1"/>
        <pt x="-6" y="0" on="1"/>
        <pt x="-37" y="0" on="1"/>
      </contour>
      <contour>
        <pt x="413" y="847" on="1"/>
        <pt x="557" y="954" on="1"/>
        <pt x="579" y="970" on="0"/>
        <pt x="601" y="970" on="1"/>
        <pt x="618" y="970" on="0"/>
        <pt x="644" y="946" on="0"/>
        <pt x="644" y="927" on="1"/>
        <pt x="644" y="910" on="0"/>
        <pt x="615" y="881" on="0"/>
        <pt x="576" y="870" on="1"/>
        <pt x="424" y="826" on="1"/>
      </contour>
    </TTGlyph>
    <TTGlyph name="Scaron" xMin="-37" yMin="-10" xMax="707" yMax="970">
      <contour>
        <pt x="69" y="261" on="1"/>
        <pt x="98" y="261" on="1"/>
        <pt x="85" y="209" on="0"/>
        <pt x="85" y="165" on="1"/>
        <pt x="85" y="30" on="0"/>
        <pt x="222" y="30" on="1"/>
        <pt x="299" y="30" on="0"/>
        <pt x="386" y="108" on="0"/>
        <pt x="386" y="177" on="1"/>
        <pt x="386" y="217" on="0"/>
        <pt x="358" y="279" on="0"/>
        <pt x="316" y="332" on="0"/>
        <pt x="267" y="382" on="0"/>
        <pt x="225" y="439" on="0"/>
        <pt x="197" y="507" on="0"/>
        <pt x="197" y="552" on="1"/>
        <pt x="197" y="602" on="0"/>
        <pt x="234" y="686" on="0"/>
        <pt x="300" y="746" on="0"/>
        <pt x="391" y="780" on="0"/>
        <pt x="446" y="780" on="1"/>
        <pt x="495" y="780" on="0"/>
        <pt x="568" y="750" on="0"/>
        <pt x="597" y="718" on="1"/>
        <pt x="643" y="770" on="1"/>
        <pt x="675" y="770" on="1"/>
        <pt x="589" y="550" on="1"/>
        <pt x="559" y="550" on="1"/>
        <pt x="564" y="569" on="0"/>
        <pt x="572" y="619" on="0"/>
        <pt x="572" y="637" on="1"/>
        <pt x="572" y="687" on="0"/>
        <pt x="510" y="740" on="0"/>
        <pt x="450" y="740" on="1"/>
        <pt x="378" y="740" on="0"/>
        <pt x="302" y="663" on="0"/>
        <pt x="302" y="591" on="1"/>
        <pt x="302" y="570" on="0"/>
        <pt x="308" y="538" on="0"/>
        <pt x="324" y="505" on="0"/>
        <pt x="355" y="466" on="0"/>
        <pt x="379" y="438" on="1"/>
        <pt x="413" y="399" on="0"/>
        <pt x="457" y="339" on="0"/>
        <pt x="483" y="289" on="0"/>
        <pt x="494" y="244" on="0"/>
        <pt x="494" y="219" on="1"/>
        <pt x="494" y="170" on="0"/>
        <pt x="452" y="86" on="0"/>
        <pt x="377" y="25" on="0"/>
        <pt x="276" y="-10" on="0"/>
        <pt x="216" y="-10" on="1"/>
        <pt x="88" y="-10" on="0"/>
        <pt x="45" y="72" on="1"/>
        <pt x="-6" y="0" on="1"/>
        <pt x="-37" y="0" on="1"/>
      </contour>
      <contour>
        <pt x="511" y="830" on="1"/>
        <pt x="494" y="830" on="0"/>
        <pt x="475" y="843" on="0"/>
        <pt x="467" y="857" on="1"/>
        <pt x="413" y="953" on="1"/>
        <pt x="439" y="970" on="1"/>
        <pt x="530" y="902" on="1"/>
        <pt x="695" y="970" on="1"/>
        <pt x="707" y="953" on="1"/>
        <pt x="575" y="857" on="1"/>
        <pt x="557" y="844" on="0"/>
        <pt x="530" y="830" on="0"/>
      </contour>
    </TTGlyph>
    <TTGlyph name="Schwa" xMin="-8" yMin="-10" xMax="701" yMax="779">
      <contour>
        <pt x="130" y="-10" on="1"/>
        <pt x="66" y="-10" on="0"/>
        <pt x="-8" y="42" on="0"/>
        <pt x="-8" y="88" on="1"/>
        <pt x="-8" y="134" on="0"/>
        <pt x="72" y="222" on="0"/>
        <pt x="216" y="299" on="0"/>
        <pt x="418" y="360" on="0"/>
        <pt x="540" y="379" on="1"/>
        <pt x="569" y="450" on="0"/>
        <pt x="602" y="581" on="0"/>
        <pt x="602" y="626" on="1"/>
        <pt x="602" y="730" on="0"/>
        <pt x="492" y="730" on="1"/>
        <pt x="414" y="730" on="0"/>
        <pt x="259" y="629" on="0"/>
        <pt x="188" y="535" on="1"/>
        <pt x="151" y="557" on="1"/>
        <pt x="328" y="779" on="0"/>
        <pt x="514" y="779" on="1"/>
        <pt x="604" y="779" on="0"/>
        <pt x="701" y="678" on="0"/>
        <pt x="701" y="586" on="1"/>
        <pt x="701" y="520" on="0"/>
        <pt x="652" y="380" on="0"/>
        <pt x="567" y="247" on="0"/>
        <pt x="454" y="130" on="0"/>
        <pt x="327" y="41" on="0"/>
        <pt x="193" y="-10" on="0"/>
      </contour>
      <contour>
        <pt x="508" y="332" on="1"/>
        <pt x="431" y="318" on="0"/>
        <pt x="292" y="264" on="0"/>
        <pt x="185" y="196" on="0"/>
        <pt x="122" y="119" on="0"/>
        <pt x="122" y="83" on="1"/>
        <pt x="122" y="61" on="0"/>
        <pt x="146" y="41" on="0"/>
        <pt x="173" y="41" on="1"/>
        <pt x="210" y="41" on="0"/>
        <pt x="293" y="74" on="0"/>
        <pt x="371" y="131" on="0"/>
        <pt x="439" y="205" on="0"/>
        <pt x="462" y="247" on="1"/>
      </contour>
    </TTGlyph>
    <TTGlyph name="Scircumflex" xMin="-37" yMin="-10" xMax="675" yMax="970">
      <contour>
        <pt x="69" y="261" on="1"/>
        <pt x="98" y="261" on="1"/>
        <pt x="85" y="209" on="0"/>
        <pt x="85" y="165" on="1"/>
        <pt x="85" y="30" on="0"/>
        <pt x="222" y="30" on="1"/>
        <pt x="299" y="30" on="0"/>
        <pt x="386" y="108" on="0"/>
        <pt x="386" y="177" on="1"/>
        <pt x="386" y="217" on="0"/>
        <pt x="358" y="279" on="0"/>
        <pt x="316" y="332" on="0"/>
        <pt x="267" y="382" on="0"/>
        <pt x="225" y="439" on="0"/>
        <pt x="197" y="507" on="0"/>
        <pt x="197" y="552" on="1"/>
        <pt x="197" y="602" on="0"/>
        <pt x="234" y="686" on="0"/>
        <pt x="300" y="746" on="0"/>
        <pt x="391" y="780" on="0"/>
        <pt x="446" y="780" on="1"/>
        <pt x="495" y="780" on="0"/>
        <pt x="568" y="750" on="0"/>
        <pt x="597" y="718" on="1"/>
        <pt x="643" y="770" on="1"/>
        <pt x="675" y="770" on="1"/>
        <pt x="589" y="550" on="1"/>
        <pt x="559" y="550" on="1"/>
        <pt x="564" y="569" on="0"/>
        <pt x="572" y="619" on="0"/>
        <pt x="572" y="637" on="1"/>
        <pt x="572" y="687" on="0"/>
        <pt x="510" y="740" on="0"/>
        <pt x="450" y="740" on="1"/>
        <pt x="378" y="740" on="0"/>
        <pt x="302" y="663" on="0"/>
        <pt x="302" y="591" on="1"/>
        <pt x="302" y="570" on="0"/>
        <pt x="308" y="538" on="0"/>
        <pt x="324" y="505" on="0"/>
        <pt x="355" y="466" on="0"/>
        <pt x="379" y="438" on="1"/>
        <pt x="413" y="399" on="0"/>
        <pt x="457" y="339" on="0"/>
        <pt x="483" y="289" on="0"/>
        <pt x="494" y="244" on="0"/>
        <pt x="494" y="219" on="1"/>
        <pt x="494" y="170" on="0"/>
        <pt x="452" y="86" on="0"/>
        <pt x="377" y="25" on="0"/>
        <pt x="276" y="-10" on="0"/>
        <pt x="216" y="-10" on="1"/>
        <pt x="88" y="-10" on="0"/>
        <pt x="45" y="72" on="1"/>
        <pt x="-6" y="0" on="1"/>
        <pt x="-37" y="0" on="1"/>
      </contour>
      <contour>
        <pt x="539" y="970" on="1"/>
        <pt x="556" y="970" on="0"/>
        <pt x="575" y="957" on="0"/>
        <pt x="583" y="943" on="1"/>
        <pt x="637" y="847" on="1"/>
        <pt x="611" y="830" on="1"/>
        <pt x="520" y="898" on="1"/>
        <pt x="355" y="830" on="1"/>
        <pt x="343" y="847" on="1"/>
        <pt x="475" y="943" on="1"/>
        <pt x="493" y="956" on="0"/>
        <pt x="520" y="970" on="0"/>
      </contour>
    </TTGlyph>
    <TTGlyph name="Sdotbelow" xMin="-37" yMin="-256" xMax="675" yMax="780">
      <contour>
        <pt x="69" y="261" on="1"/>
        <pt x="98" y="261" on="1"/>
        <pt x="85" y="209" on="0"/>
        <pt x="85" y="165" on="1"/>
        <pt x="85" y="30" on="0"/>
        <pt x="222" y="30" on="1"/>
        <pt x="299" y="30" on="0"/>
        <pt x="386" y="108" on="0"/>
        <pt x="386" y="177" on="1"/>
        <pt x="386" y="217" on="0"/>
        <pt x="358" y="279" on="0"/>
        <pt x="316" y="332" on="0"/>
        <pt x="267" y="382" on="0"/>
        <pt x="225" y="439" on="0"/>
        <pt x="197" y="507" on="0"/>
        <pt x="197" y="552" on="1"/>
        <pt x="197" y="602" on="0"/>
        <pt x="234" y="686" on="0"/>
        <pt x="300" y="746" on="0"/>
        <pt x="391" y="780" on="0"/>
        <pt x="446" y="780" on="1"/>
        <pt x="495" y="780" on="0"/>
        <pt x="568" y="750" on="0"/>
        <pt x="597" y="718" on="1"/>
        <pt x="643" y="770" on="1"/>
        <pt x="675" y="770" on="1"/>
        <pt x="589" y="550" on="1"/>
        <pt x="559" y="550" on="1"/>
        <pt x="564" y="569" on="0"/>
        <pt x="572" y="619" on="0"/>
        <pt x="572" y="637" on="1"/>
        <pt x="572" y="687" on="0"/>
        <pt x="510" y="740" on="0"/>
        <pt x="450" y="740" on="1"/>
        <pt x="378" y="740" on="0"/>
        <pt x="302" y="663" on="0"/>
        <pt x="302" y="591" on="1"/>
        <pt x="302" y="570" on="0"/>
        <pt x="308" y="538" on="0"/>
        <pt x="324" y="505" on="0"/>
        <pt x="355" y="466" on="0"/>
        <pt x="379" y="438" on="1"/>
        <pt x="413" y="399" on="0"/>
        <pt x="457" y="339" on="0"/>
        <pt x="483" y="289" on="0"/>
        <pt x="494" y="244" on="0"/>
        <pt x="494" y="219" on="1"/>
        <pt x="494" y="170" on="0"/>
        <pt x="452" y="86" on="0"/>
        <pt x="377" y="25" on="0"/>
        <pt x="276" y="-10" on="0"/>
        <pt x="216" y="-10" on="1"/>
        <pt x="88" y="-10" on="0"/>
        <pt x="45" y="72" on="1"/>
        <pt x="-6" y="0" on="1"/>
        <pt x="-37" y="0" on="1"/>
      </contour>
      <contour>
        <pt x="144" y="-131" on="1"/>
        <pt x="170" y="-131" on="0"/>
        <pt x="208" y="-163" on="0"/>
        <pt x="208" y="-186" on="1"/>
        <pt x="208" y="-200" on="0"/>
        <pt x="195" y="-225" on="0"/>
        <pt x="174" y="-244" on="0"/>
        <pt x="147" y="-256" on="0"/>
        <pt x="133" y="-256" on="1"/>
        <pt x="104" y="-256" on="0"/>
        <pt x="71" y="-225" on="0"/>
        <pt x="71" y="-199" on="1"/>
        <pt x="71" y="-171" on="0"/>
        <pt x="115" y="-131" on="0"/>
      </contour>
    </TTGlyph>
    <TTGlyph name="T" xMin="88" yMin="0" xMax="873" yMax="770">
      <contour>
        <pt x="490" y="730" on="1"/>
        <pt x="312" y="730" on="1"/>
        <pt x="262" y="687" on="0"/>
        <pt x="175" y="593" on="0"/>
        <pt x="143" y="550" on="1"/>
        <pt x="119" y="550" on="1"/>
        <pt x="247" y="770" on="1"/>
        <pt x="873" y="770" on="1"/>
        <pt x="819" y="550" on="1"/>
        <pt x="795" y="550" on="1"/>
        <pt x="796" y="561" on="0"/>
        <pt x="796" y="584" on="0"/>
        <pt x="796" y="595" on="1"/>
        <pt x="796" y="629" on="0"/>
        <pt x="788" y="698" on="0"/>
        <pt x="777" y="730" on="1"/>
        <pt x="599" y="730" on="1"/>
        <pt x="314" y="42" on="1"/>
        <pt x="416" y="23" on="1"/>
        <pt x="406" y="0" on="1"/>
        <pt x="88" y="0" on="1"/>
        <pt x="98" y="23" on="1"/>
        <pt x="205" y="42" on="1"/>
      </contour>
    </TTGlyph>
    <TTGlyph name="Tbar" xMin="88" yMin="0" xMax="873" yMax="770">
      <contour>
        <pt x="361" y="420" on="1"/>
        <pt x="173" y="420" on="1"/>
        <pt x="191" y="464" on="1"/>
        <pt x="379" y="464" on="1"/>
        <pt x="490" y="730" on="1"/>
        <pt x="312" y="730" on="1"/>
        <pt x="262" y="687" on="0"/>
        <pt x="175" y="593" on="0"/>
        <pt x="143" y="550" on="1"/>
        <pt x="119" y="550" on="1"/>
        <pt x="247" y="770" on="1"/>
        <pt x="873" y="770" on="1"/>
        <pt x="819" y="550" on="1"/>
        <pt x="795" y="550" on="1"/>
        <pt x="796" y="561" on="0"/>
        <pt x="796" y="584" on="0"/>
        <pt x="796" y="595" on="1"/>
        <pt x="796" y="629" on="0"/>
        <pt x="788" y="698" on="0"/>
        <pt x="777" y="730" on="1"/>
        <pt x="599" y="730" on="1"/>
        <pt x="489" y="464" on="1"/>
        <pt x="718" y="464" on="1"/>
        <pt x="699" y="420" on="1"/>
        <pt x="471" y="420" on="1"/>
        <pt x="314" y="42" on="1"/>
        <pt x="416" y="23" on="1"/>
        <pt x="406" y="0" on="1"/>
        <pt x="88" y="0" on="1"/>
        <pt x="98" y="23" on="1"/>
        <pt x="205" y="42" on="1"/>
      </contour>
    </TTGlyph>
    <TTGlyph name="Tcaron" xMin="88" yMin="0" xMax="873" yMax="970">
      <contour>
        <pt x="490" y="730" on="1"/>
        <pt x="312" y="730" on="1"/>
        <pt x="262" y="687" on="0"/>
        <pt x="175" y="593" on="0"/>
        <pt x="143" y="550" on="1"/>
        <pt x="119" y="550" on="1"/>
        <pt x="247" y="770" on="1"/>
        <pt x="873" y="770" on="1"/>
        <pt x="819" y="550" on="1"/>
        <pt x="795" y="550" on="1"/>
        <pt x="796" y="561" on="0"/>
        <pt x="796" y="584" on="0"/>
        <pt x="796" y="595" on="1"/>
        <pt x="796" y="629" on="0"/>
        <pt x="788" y="698" on="0"/>
        <pt x="777" y="730" on="1"/>
        <pt x="599" y="730" on="1"/>
        <pt x="314" y="42" on="1"/>
        <pt x="416" y="23" on="1"/>
        <pt x="406" y="0" on="1"/>
        <pt x="88" y="0" on="1"/>
        <pt x="98" y="23" on="1"/>
        <pt x="205" y="42" on="1"/>
      </contour>
      <contour>
        <pt x="575" y="830" on="1"/>
        <pt x="558" y="830" on="0"/>
        <pt x="539" y="843" on="0"/>
        <pt x="531" y="857" on="1"/>
        <pt x="477" y="953" on="1"/>
        <pt x="503" y="970" on="1"/>
        <pt x="594" y="902" on="1"/>
        <pt x="759" y="970" on="1"/>
        <pt x="771" y="953" on="1"/>
        <pt x="639" y="857" on="1"/>
        <pt x="621" y="844" on="0"/>
        <pt x="594" y="830" on="0"/>
      </contour>
    </TTGlyph>
    <TTGlyph name="Tdotbelow" xMin="88" yMin="-256" xMax="873" yMax="770">
      <contour>
        <pt x="490" y="730" on="1"/>
        <pt x="312" y="730" on="1"/>
        <pt x="262" y="687" on="0"/>
        <pt x="175" y="593" on="0"/>
        <pt x="143" y="550" on="1"/>
        <pt x="119" y="550" on="1"/>
        <pt x="247" y="770" on="1"/>
        <pt x="873" y="770" on="1"/>
        <pt x="819" y="550" on="1"/>
        <pt x="795" y="550" on="1"/>
        <pt x="796" y="561" on="0"/>
        <pt x="796" y="584" on="0"/>
        <pt x="796" y="595" on="1"/>
        <pt x="796" y="629" on="0"/>
        <pt x="788" y="698" on="0"/>
        <pt x="777" y="730" on="1"/>
        <pt x="599" y="730" on="1"/>
        <pt x="314" y="42" on="1"/>
        <pt x="416" y="23" on="1"/>
        <pt x="406" y="0" on="1"/>
        <pt x="88" y="0" on="1"/>
        <pt x="98" y="23" on="1"/>
        <pt x="205" y="42" on="1"/>
      </contour>
      <contour>
        <pt x="181" y="-131" on="1"/>
        <pt x="207" y="-131" on="0"/>
        <pt x="245" y="-163" on="0"/>
        <pt x="245" y="-186" on="1"/>
        <pt x="245" y="-200" on="0"/>
        <pt x="232" y="-225" on="0"/>
        <pt x="211" y="-244" on="0"/>
        <pt x="184" y="-256" on="0"/>
        <pt x="170" y="-256" on="1"/>
        <pt x="141" y="-256" on="0"/>
        <pt x="108" y="-225" on="0"/>
        <pt x="108" y="-199" on="1"/>
        <pt x="108" y="-171" on="0"/>
        <pt x="152" y="-131" on="0"/>
      </contour>
    </TTGlyph>
    <TTGlyph name="Thorn" xMin="-61" yMin="0" xMax="654" yMax="770">
      <contour>
        <pt x="326" y="728" on="1"/>
        <pt x="207" y="747" on="1"/>
        <pt x="217" y="770" on="1"/>
        <pt x="533" y="770" on="1"/>
        <pt x="524" y="747" on="1"/>
        <pt x="436" y="728" on="1"/>
        <pt x="380" y="596" on="1"/>
        <pt x="424" y="596" on="1"/>
        <pt x="533" y="596" on="0"/>
        <pt x="654" y="504" on="0"/>
        <pt x="654" y="420" on="1"/>
        <pt x="654" y="363" on="0"/>
        <pt x="603" y="270" on="0"/>
        <pt x="509" y="203" on="0"/>
        <pt x="377" y="167" on="0"/>
        <pt x="297" y="167" on="1"/>
        <pt x="199" y="167" on="1"/>
        <pt x="146" y="42" on="1"/>
        <pt x="265" y="23" on="1"/>
        <pt x="255" y="0" on="1"/>
        <pt x="-61" y="0" on="1"/>
        <pt x="-52" y="23" on="1"/>
        <pt x="36" y="42" on="1"/>
      </contour>
      <contour>
        <pt x="311" y="211" on="1"/>
        <pt x="360" y="211" on="0"/>
        <pt x="448" y="246" on="0"/>
        <pt x="512" y="307" on="0"/>
        <pt x="550" y="388" on="0"/>
        <pt x="550" y="434" on="1"/>
        <pt x="550" y="493" on="0"/>
        <pt x="486" y="555" on="0"/>
        <pt x="424" y="555" on="1"/>
        <pt x="363" y="555" on="1"/>
        <pt x="218" y="211" on="1"/>
      </contour>
    </TTGlyph>
</ttFont>
